<?xml version="1.0" encoding="UTF-8" standalone="no"?>
<!-- Created with Inkscape (http://www.inkscape.org/) -->

<svg
   xmlns:dc="http://purl.org/dc/elements/1.1/"
   xmlns:cc="http://creativecommons.org/ns#"
   xmlns:rdf="http://www.w3.org/1999/02/22-rdf-syntax-ns#"
   xmlns:svg="http://www.w3.org/2000/svg"
   xmlns="http://www.w3.org/2000/svg"
   xmlns:xlink="http://www.w3.org/1999/xlink"
   xmlns:sodipodi="http://sodipodi.sourceforge.net/DTD/sodipodi-0.dtd"
   xmlns:inkscape="http://www.inkscape.org/namespaces/inkscape"
   width="10cm"
   height="10cm"
   id="svg2"
   version="1.1"
   inkscape:version="0.92.1 r15371"
   sodipodi:docname="logo-anielskie-kuligi.svg"
   inkscape:export-filename="/home/marek/js/work/KuligiBiesiady/logo/logo-anielskie-kuligi.png"
   inkscape:export-xdpi="254"
   inkscape:export-ydpi="254">
  <defs
     id="defs4">
    <linearGradient
       inkscape:collect="always"
       id="linearGradient4240">
      <stop
         style="stop-color:#ffffff;stop-opacity:1;"
         offset="0"
         id="stop4242" />
      <stop
         style="stop-color:#ffffff;stop-opacity:0;"
         offset="1"
         id="stop4244" />
    </linearGradient>
    <marker
       inkscape:stockid="Arrow1Mstart"
       orient="auto"
       refY="0"
       refX="0"
       id="Arrow1Mstart"
       style="overflow:visible">
      <path
         id="path3868"
         d="M 4.2666667,0 6.4,-2.1333333 -1.0666667,0 6.4,2.1333333 Z"
         style="fill-rule:evenodd;stroke:#000000;stroke-width:0.42666668pt"
         inkscape:connector-curvature="0" />
    </marker>
    <linearGradient
       id="linearGradient3768">
      <stop
         style="stop-color:#ff8400;stop-opacity:1;"
         offset="0"
         id="stop3770" />
      <stop
         id="stop3984"
         offset="0.44880623"
         style="stop-color:#ff8400;stop-opacity:1;" />
      <stop
         style="stop-color:#0098ff;stop-opacity:1;"
         offset="0.54067183"
         id="stop3986" />
      <stop
         style="stop-color:#0098ff;stop-opacity:1;"
         offset="1"
         id="stop3772" />
    </linearGradient>
    <linearGradient
       inkscape:collect="always"
       xlink:href="#linearGradient3768"
       id="linearGradient3774"
       x1="492.87964"
       y1="490.88312"
       x2="602.05096"
       y2="490.88312"
       gradientUnits="userSpaceOnUse"
       gradientTransform="matrix(1.0313736,0,0,1.0142925,-4.3422894,54.463111)" />
    <linearGradient
       inkscape:collect="always"
       xlink:href="#linearGradient3768"
       id="linearGradient4428"
       gradientUnits="userSpaceOnUse"
       gradientTransform="matrix(1.0313736,0,0,1.0142925,-4.3422894,54.463111)"
       x1="492.87964"
       y1="490.88312"
       x2="602.05096"
       y2="490.88312" />
    <mask
       maskUnits="userSpaceOnUse"
       id="mask4424">
      <rect
         style="fill:url(#linearGradient4428);fill-opacity:1;stroke:none"
         id="rect4426"
         width="625.10681"
         height="1000"
         x="-8.5096664"
         y="52.362183" />
    </mask>
    <linearGradient
       gradientUnits="userSpaceOnUse"
       y2="384.71753"
       x2="367.69553"
       y1="-4.2998338"
       x1="367.69553"
       id="linearGradient4111"
       xlink:href="#linearGradient4105"
       inkscape:collect="always" />
    <clipPath
       id="clipPath16201-1"
       clipPathUnits="userSpaceOnUse">
      <path
         id="path16203-7"
         d="M 0,800 H 800 V 0 H 0 Z"
         inkscape:connector-curvature="0" />
    </clipPath>
    <clipPath
       id="clipPath16201"
       clipPathUnits="userSpaceOnUse">
      <path
         id="path16203"
         d="M 0,800 H 800 V 0 H 0 Z"
         inkscape:connector-curvature="0" />
    </clipPath>
    <linearGradient
       id="linearGradient4105">
      <stop
         id="stop4107"
         offset="0"
         style="stop-color:#c8c8c8;stop-opacity:1;" />
      <stop
         style="stop-color:#969696;stop-opacity:1;"
         offset="0.5"
         id="stop4113" />
      <stop
         id="stop4109"
         offset="1"
         style="stop-color:#ffffff;stop-opacity:1;" />
    </linearGradient>
    <linearGradient
       inkscape:collect="always"
       xlink:href="#linearGradient4105"
       id="linearGradient4755"
       gradientUnits="userSpaceOnUse"
       x1="367.69553"
       y1="-4.2998338"
       x2="367.69553"
       y2="384.71753"
       gradientTransform="translate(-86.4511,-435.90096)" />
    <linearGradient
       inkscape:collect="always"
       xlink:href="#linearGradient4240"
       id="linearGradient4246"
       x1="1339.1313"
       y1="340.41724"
       x2="1379.4218"
       y2="340.41724"
       gradientUnits="userSpaceOnUse" />
  </defs>
  <sodipodi:namedview
     id="base"
     pagecolor="#ffffff"
     bordercolor="#666666"
     borderopacity="1.0"
     inkscape:pageopacity="0.0"
     inkscape:pageshadow="2"
     inkscape:zoom="1"
     inkscape:cx="316.01522"
     inkscape:cy="126.68454"
     inkscape:document-units="cm"
     inkscape:current-layer="layer1"
     showgrid="false"
     showguides="true"
     inkscape:guide-bbox="true"
     borderlayer="true"
     inkscape:window-width="1855"
     inkscape:window-height="1176"
     inkscape:window-x="65"
     inkscape:window-y="24"
     inkscape:window-maximized="1"
     units="cm"
     width="42.33cm"
     inkscape:snap-page="true">
    <sodipodi:guide
       orientation="1,0"
       position="1173.3333,0"
       id="guide2985"
       inkscape:locked="false" />
  </sodipodi:namedview>
  <metadata
     id="metadata7">
    <rdf:RDF>
      <cc:Work
         rdf:about="">
        <dc:format>image/svg+xml</dc:format>
        <dc:type
           rdf:resource="http://purl.org/dc/dcmitype/StillImage" />
        <dc:title />
      </cc:Work>
    </rdf:RDF>
  </metadata>
  <g
     inkscape:label="Layer 1"
     inkscape:groupmode="layer"
     id="layer1"
     transform="translate(0,-744.56703)">
    <path
       style="fill:#ffffff;fill-opacity:1;stroke:none;stroke-width:2;stroke-miterlimit:4;stroke-dasharray:none;stroke-opacity:1"
       d="M 0,744.56702 H 377.95276 V 1122.5198 H 0 Z"
       id="rect4668" />
    <path
       style="color:#000000;font-style:normal;font-variant:normal;font-weight:normal;font-stretch:normal;font-size:medium;line-height:normal;font-family:sans-serif;font-variant-ligatures:normal;font-variant-position:normal;font-variant-caps:normal;font-variant-numeric:normal;font-variant-alternates:normal;font-feature-settings:normal;text-indent:0;text-align:start;text-decoration:none;text-decoration-line:none;text-decoration-style:solid;text-decoration-color:#000000;letter-spacing:normal;word-spacing:normal;text-transform:none;writing-mode:lr-tb;direction:ltr;text-orientation:mixed;dominant-baseline:auto;baseline-shift:baseline;text-anchor:start;white-space:normal;shape-padding:0;clip-rule:nonzero;display:inline;overflow:visible;visibility:visible;opacity:1;isolation:auto;mix-blend-mode:normal;color-interpolation:sRGB;color-interpolation-filters:linearRGB;solid-color:#000000;solid-opacity:1;vector-effect:none;fill:#000000;fill-opacity:1;fill-rule:nonzero;stroke:none;stroke-width:1;stroke-linecap:butt;stroke-linejoin:miter;stroke-miterlimit:4;stroke-dasharray:none;stroke-dashoffset:0;stroke-opacity:1;color-rendering:auto;image-rendering:auto;shape-rendering:auto;text-rendering:auto;enable-background:accumulate"
       d="m 18.398438,762.96484 v 0.5 340.65816 H 359.55469 V 762.96484 Z m 1,1 H 358.55469 V 1103.123 H 19.398438 Z"
       id="rect4670"
       inkscape:connector-curvature="0" />
    <text
       xml:space="preserve"
       style="font-style:normal;font-variant:normal;font-weight:normal;font-stretch:normal;font-size:12.80000019px;line-height:0%;font-family:'Trebuchet MS';-inkscape-font-specification:'Trebuchet MS';text-align:start;letter-spacing:0px;word-spacing:0px;writing-mode:lr-tb;text-anchor:start;fill:#000000;fill-opacity:1;stroke:none;stroke-width:1.06666672"
       x="1371.6525"
       y="866.07556"
       id="text4314"><tspan
         sodipodi:role="line"
         id="tspan4316"
         x="1371.6525"
         y="866.07556"
         style="font-size:25.60000038px;line-height:1.25;stroke-width:1.06666672"> </tspan></text>
    <path
       style="fill:#231f20;fill-opacity:1;fill-rule:nonzero;stroke:none;stroke-width:0.35177243"
       d="M 177.37695 91.244141 C 174.37493 91.271882 170.67566 91.733141 166.73242 92.636719 C 162.22586 93.669379 158.25793 95.083456 155.43164 96.572266 C 154.0185 97.316666 152.89123 98.072778 152.10352 98.861328 C 151.31581 99.649858 150.78887 100.56265 151.01172 101.53516 C 151.23456 102.50769 152.10573 103.09797 153.1582 103.46484 C 154.21066 103.83171 155.55413 104.02137 157.15039 104.07617 C 160.34296 104.18579 164.53055 103.73184 169.03711 102.69922 C 173.54367 101.66656 177.5116 100.25053 180.33789 98.761719 C 181.75104 98.017319 182.88221 97.263139 183.66992 96.474609 C 184.45763 95.686069 184.98262 94.773321 184.75977 93.800781 C 184.53693 92.828281 183.6677 92.237954 182.61523 91.871094 C 181.56275 91.504224 180.21543 91.312613 178.61914 91.257812 C 178.22007 91.244111 177.80581 91.240178 177.37695 91.244141 z M 178.48633 92.443359 C 179.98565 92.494859 181.17793 92.829451 181.99219 93.113281 C 182.80644 93.397121 183.19226 93.804611 183.26172 94.144531 C 183.32922 94.476391 183.09149 94.933047 182.38867 95.429688 C 181.68444 95.927328 180.81169 96.398466 179.48438 97.097656 C 176.82973 98.496046 172.95563 99.886511 168.55664 100.89453 C 164.15763 101.90253 160.06311 102.33732 157.06445 102.23438 C 155.56513 102.18287 154.7893 102.18972 153.82227 101.97461 C 152.98053 101.78737 152.60034 101.5686 152.50977 101.19141 C 152.408 100.76616 152.58587 100.28779 153.19531 99.677734 C 153.80474 99.067664 154.73911 98.279258 156.06641 97.580078 C 158.72105 96.181698 162.59514 94.78925 166.99414 93.78125 C 171.39313 92.77323 175.48767 92.340409 178.48633 92.443359 z M 191.38672 101.14648 C 187.05993 103.92127 180.14428 102.65127 179.10938 104.10938 C 178.07447 105.56745 182.1677 107.40113 182.21484 110.69336 C 187.67082 110.50541 193.64301 105.66038 199.14648 106.69531 C 196.04209 107.21275 191.95147 108.95425 189.74023 111.44727 C 198.42021 110.24667 205.67311 115.30902 211 123.29883 C 216.64384 131.7653 223.04018 135.5288 223.79297 140.98438 C 220.12397 135.24605 207.70794 132.33113 204.60352 120.47852 C 202.44013 135.62341 225.67458 141.12521 227.15625 151.42578 C 228.35544 142.04256 226.48655 132.84528 219.08984 126.875 C 220.92434 127.10999 222.28677 126.59254 224.02734 125.32227 C 217.44251 125.55727 209.91749 107.02535 197.45312 109.37695 C 198.4409 108.03633 200.69884 107.18962 203.23828 106.625 C 197.0302 103.52097 189.08136 106.27365 185.17773 106.83789 C 187.40411 105.30136 189.69364 103.45093 191.38672 101.14648 z M 176.28906 104.04492 C 176.21875 104.03605 176.15548 104.04194 176.09961 104.0625 C 175.20612 104.39211 175.49101 108.82508 175.62891 110.50586 C 175.96522 107.09367 180.4731 106.32049 180.33203 117.70312 C 180.76508 115.77507 181.46205 113.51649 180.66211 110.41211 C 179.91283 107.50174 177.34376 104.17797 176.28906 104.04492 z M 174.35938 104.95508 C 172.32896 106.07687 168.84577 107.78702 168.08594 110.15234 C 167.18118 112.96793 172.96812 111.81916 174.17188 111.49414 C 172.85485 109.28324 172.94844 107.21274 174.35938 104.95508 z M 160.15039 106.18164 C 159.61957 106.38102 161.14622 108.83682 161.69922 110.76172 C 162.2522 112.6866 163.62294 116.09383 165.23828 116.97852 C 164.33106 115.43002 163.02704 112.17769 163.91211 111.91211 C 164.79716 111.64687 167.51683 113.81429 168.54297 114.89844 C 167.45036 116.18136 165.0625 122.35517 163.8457 124.19141 C 162.74712 125.84896 162.81784 127.79268 163.37891 129.74219 C 164.42684 133.38331 165.62494 138.44811 165.69141 143.55859 C 165.75751 148.66906 164.68929 153.09254 164.24219 154.96484 C 163.81795 156.74258 165.50437 158.59166 166.30078 159.45508 C 167.16261 160.38855 167.59525 162.57237 168.80078 162.88477 C 170.21736 163.2511 171.29055 162.85168 173.44727 162.61914 C 174.88531 162.46504 175.92496 161.26958 176.69922 160.31836 C 177.47347 159.36716 177.86715 156.25536 177.58398 153.57031 C 177.00602 154.59552 177.0233 155.80866 176.44922 156.78906 C 175.70734 158.05571 175.47431 156.83685 175.70508 156.0918 C 175.9696 155.23843 176.2105 153.76975 175.72461 152.95117 C 175.23812 152.13257 173.89314 151.60541 173.33594 152 C 172.27429 152.75204 173.23839 154.38368 172.60938 155.22656 C 171.92553 156.14251 171.08576 156.72958 171.12305 157.95117 C 171.16685 159.41114 169.91563 160.21108 169.35352 159.12305 C 168.75445 157.96404 168.29215 157.48679 167.23438 157.44336 C 164.37482 157.3243 166.32961 152.80359 166.72852 149.63477 C 167.14081 146.35877 167.16415 144.13069 166.78711 139.85352 C 166.38926 135.34006 164.7227 131.55826 165.11914 128.66211 C 165.35728 126.92472 168.21246 126.28977 168.33594 125.42969 C 168.45899 124.56961 166.43301 125.47363 166.03516 124.63281 C 165.63695 123.79209 175.76391 119.296 174.29102 112.7168 C 172.98595 112.7401 170.96953 113.284 169.85547 113.98438 C 168.8677 112.75318 165.19581 110.30352 163.8457 109.17188 C 162.49596 108.04022 160.68121 105.98254 160.15039 106.18164 z M 222.51953 106.74219 C 222.29077 106.74578 222.06692 106.76043 221.84961 106.78516 C 221.06623 106.87466 220.35968 107.10593 219.75781 107.49219 C 217.45262 108.97384 217.41969 111.50723 218.29102 114.19336 C 219.27634 117.23303 221.37945 120.4837 222.93359 122.88281 C 223.31596 123.47378 223.66717 124.01439 223.86523 124.33203 C 224.13574 124.76683 224.36146 125.15174 224.52539 125.48242 C 225.40517 127.2578 226.3385 129.24265 227.26367 131.34766 C 228.08365 133.21424 228.90785 135.19905 229.69336 137.24414 C 230.40747 139.10219 231.07502 140.96545 231.66211 142.78125 C 232.20877 144.4733 232.70447 146.17771 233.12695 147.86719 C 233.95642 151.18172 234.49455 154.57814 234.74609 157.99609 C 235.00112 161.45957 234.964 164.94 234.64062 168.375 C 234.3163 171.81397 233.70333 175.2178 232.81055 178.52344 C 231.93076 181.78006 230.77585 184.94588 229.34766 187.95898 C 227.63348 191.57446 225.53316 194.9579 223.06055 198.00391 C 220.75561 200.84414 218.11277 203.39159 215.15625 205.58008 C 215.00288 205.08246 214.9043 204.60923 214.9043 204.19922 C 214.9043 201.23539 217.44407 199.63647 220.07812 194.60352 C 222.71221 189.57103 221.98367 182.96466 219.93555 175.41406 C 219.18276 172.63841 217.59836 169.7528 217.30078 167.41797 C 216.97222 164.83075 217.6784 160.6913 215.75 157.35156 C 216.73812 161.96074 215.09234 170.00519 212.64648 166.94727 C 212.26973 170.09882 216.49443 173.00568 217.25391 178.84766 C 218.00669 184.63289 216.11902 189.61212 211.8457 191.64062 C 206.20116 194.32218 197.02983 187.90116 192.84375 187.73633 C 194.3722 189.59438 195.99467 193.16917 191.80859 191.6875 C 196.75925 194.41818 202.62448 202.3927 210.70117 208.44727 C 208.91339 209.44217 207.04028 210.32755 205.0625 211.0625 C 204.72104 211.18935 204.36451 211.29349 204.01758 211.41211 C 204.25783 208.8995 202.98587 203.0253 200.13477 202.22266 C 200.91077 203.56239 202.28886 206.44935 201.61133 208.16406 C 201.15824 209.31373 199.60554 208.43115 199.65234 207.12109 C 199.70224 205.71576 199.10027 204.74346 198.79492 203.5625 C 198.66977 204.48242 198.36931 207.94212 196.9668 207.73828 C 195.91816 207.58652 194.87128 206.64469 194.21875 205.86719 C 193.17678 204.62576 194.0331 203.3233 194.19336 201.89648 C 194.46845 199.44538 191.21856 195.39258 189.83398 193.50977 C 187.98155 190.99142 188.42264 189.06463 189.55078 187.86523 C 190.67998 186.66583 190.57865 185.59913 191.45703 185.39648 C 191.98117 185.27506 198.93033 188.56947 201.61328 189.31055 C 204.29625 190.05208 209.79956 190.58311 211.31641 189.8418 C 212.83326 189.10165 214.01116 185.30577 213.29883 185.4043 C 212.5858 185.5024 211.31632 187.58414 208.63477 187.97266 C 205.18037 188.47254 202.0961 187.52317 199.46484 186.73633 C 196.04315 185.71367 190.6187 182.8637 190.38477 183.05469 C 190.15084 183.24614 190.01278 184.60036 189.33984 185.82031 C 188.66549 187.04096 186.03053 188.95156 187.15234 192.09961 C 188.06942 194.6754 190.6137 196.74316 191.34961 199.22461 C 191.91913 201.14641 189.19779 204.33999 187.32812 203.59961 C 185.45845 202.8583 184.55788 194.20417 183.66016 190.90039 C 183.06179 188.69794 181.3076 185.61047 181.57812 183.28125 C 181.75743 181.74027 184.04869 183.14074 185.84766 183.06836 C 187.64661 182.99836 189.78228 181.65949 191.87109 181.42578 C 195.18902 181.05384 198.75809 181.26913 201.68555 182.18555 C 200.55671 180.66837 197.48953 179.99971 194.31445 180.10547 C 191.57871 180.19647 190.15148 179.61159 189.19922 177.24805 C 193.11446 177.63656 196.65119 176.63032 200.40039 176.32422 C 202.08009 176.1888 204.00882 176.18464 205.47852 177.27734 C 206.90672 178.34085 207.96598 180.56331 209.41211 181.41016 C 210.82624 182.23785 209.81056 176.09758 208.54102 175.03711 C 207.68341 174.32009 206.27235 174.53103 206.02539 174.00195 C 205.59729 173.086 206.48508 171.88468 206.44922 170.61523 C 204.09153 174.8801 200.18564 175.51206 195.58984 175.80469 C 193.11123 171.30007 193.36408 165.93024 193.50195 158.55273 C 193.64274 151.00329 191.79548 146.23009 188.56445 140.2793 C 191.17531 148.25135 191.02589 153.31917 190.25586 160.0332 C 189.19808 158.79877 188.1055 157.66966 186.80078 157.07031 C 190.375 163.07327 187.64742 171.45109 191.04102 175.56836 C 189.60972 175.39561 188.2098 175.2519 186.9082 175.48242 C 184.59763 172.25477 184.67711 167.43794 185.59961 164.97461 C 184.55625 165.71802 183.64351 166.79966 183.19922 168.49219 C 181.08612 162.43493 187.71632 152.86297 185.45898 139.22266 C 184.75332 141.40993 183.69554 142.63146 182.99023 143.66602 C 183.84786 147.90421 182.07271 155.09657 180.84961 160.45898 C 179.62896 165.81204 180.72754 170.94295 180.89648 171.57617 C 178.66308 172.25443 176.26469 174.02086 174.01758 174.42969 C 171.66527 174.8579 167.08381 174.68218 165.41992 175.29297 C 163.75533 175.90213 161.95403 180.277 162.47852 182.25391 C 162.83909 183.61325 165.04575 185.75042 166.94531 188.57812 C 168.19339 190.43688 169.15049 192.32894 169.38477 193.625 C 169.54821 194.52694 169.51921 196.14312 169.98438 196.95703 C 170.78149 198.35163 172.35832 199.28844 173.46289 200.39258 C 174.74158 201.67137 174.76621 204.24743 175.94922 204.84375 C 177.41117 205.58062 178.71599 206.02815 179.92188 206.81055 C 181.22692 207.65739 185.91673 208.1305 186.83203 207.46484 C 187.15384 207.23063 187.06802 206.38283 186.81055 205.33008 C 188.84934 206.16229 191.06107 206.2107 192.79492 207.74219 C 194.52776 209.27197 195.79534 210.44178 198.00586 211.5625 C 198.76405 211.94662 199.78255 212.20549 200.81641 212.36523 C 198.64266 212.92176 196.38468 213.34204 194.01953 213.57031 C 193.4785 213.62171 192.8343 213.66738 192.11914 213.70703 C 191.35299 213.74913 190.63775 213.77692 190 213.79102 C 189.36294 213.81432 188.64738 213.81432 187.88086 213.79102 C 187.1643 213.79102 186.51776 213.76423 185.97461 213.73633 C 182.01436 213.52386 178.29807 212.82166 174.83594 211.70117 C 171.21619 210.52932 167.884 208.90029 164.84961 206.89258 C 161.66608 204.78632 158.8094 202.26508 156.29492 199.42383 C 153.69498 196.48568 151.45314 193.19515 149.58594 189.65625 C 148.03003 186.70619 146.74069 183.59318 145.72266 180.37695 C 144.68952 177.11332 143.93322 173.74006 143.46289 170.31836 C 142.99259 166.89971 142.80518 163.42434 142.91211 159.95312 C 143.01741 156.52701 143.41029 153.11041 144.09766 149.76367 C 144.44768 148.0576 144.87117 146.3329 145.3457 144.61914 C 145.85436 142.77999 146.44035 140.88895 147.07422 139.00195 C 147.77215 136.92512 148.51023 134.90769 149.25 133.00781 C 150.08407 130.86517 150.93286 128.84323 151.73633 127.03125 C 151.88623 126.69425 152.09578 126.29956 152.34766 125.85352 C 152.53164 125.52741 152.85779 124.9717 153.21484 124.36523 C 154.6645 121.90142 156.62727 118.56699 157.48242 115.48828 C 158.23801 112.76696 158.0972 110.23722 155.73047 108.85547 C 155.1131 108.49491 154.39664 108.29193 153.60938 108.23633 C 152.73734 108.17443 151.77533 108.28936 150.75977 108.56055 C 149.76812 108.82543 148.72012 109.24428 147.65039 109.80078 C 146.57219 110.36186 145.47721 111.06123 144.4043 111.88086 C 143.96249 112.21856 143.54277 112.55814 143.14844 112.90039 C 142.75764 113.23916 142.35384 113.61235 141.93945 114.01758 C 141.52684 114.42107 141.14512 114.81669 140.79688 115.20117 C 140.43277 115.60255 140.06976 116.02769 139.71094 116.47266 C 136.60267 120.32844 133.90155 124.43869 131.61328 128.73242 C 129.27399 133.121 127.37684 137.68247 125.92578 142.33789 C 124.44975 147.07362 123.42879 151.91695 122.86914 156.7832 C 122.30769 161.6679 122.21038 166.57893 122.58008 171.43164 C 123.01277 177.10201 124.08502 182.69356 125.80273 188.07812 C 127.48138 193.34154 129.77664 198.4035 132.69141 203.14062 C 135.50876 207.71852 138.90844 211.99892 142.89648 215.86914 L 142.89648 215.87695 C 146.72939 219.5975 151.10752 222.93781 156.03516 225.80078 C 158.18063 227.04759 160.33493 228.15801 162.49023 229.13281 C 164.67861 230.12231 166.89752 230.98478 169.13867 231.72656 C 171.39741 232.47417 173.67207 233.09231 175.95508 233.58398 C 178.26481 234.08155 180.57207 234.44621 182.86914 234.68359 C 184.14081 234.81437 185.37692 234.90547 186.58594 234.95898 C 187.84283 235.01258 189.07074 235.03091 190.27344 235.00781 C 191.48143 234.98471 192.70508 234.92452 193.95312 234.82422 C 195.16323 234.72642 196.39374 234.58825 197.65625 234.41016 C 199.97443 234.08426 202.29578 233.62727 204.60938 233.03516 C 206.90365 232.44818 209.18069 231.73255 211.43555 230.88477 C 213.64012 230.05614 215.85191 229.08803 218.05859 227.97852 C 220.22339 226.88978 222.35438 225.6777 224.44531 224.33984 C 229.2463 221.26861 233.47929 217.744 237.15039 213.86328 C 240.96959 209.82589 244.18345 205.40338 246.80273 200.70898 C 249.51279 195.8523 251.58819 190.69783 253.04102 185.36719 C 254.5269 179.91396 255.35922 174.2796 255.54883 168.5957 C 255.71134 163.73131 255.40487 158.83082 254.63477 153.97461 C 253.86826 149.13568 252.6414 144.34059 250.96484 139.67188 C 249.31608 135.08276 247.2278 130.60722 244.70312 126.32227 C 242.23334 122.13055 239.3599 118.13956 236.08984 114.41992 C 235.71239 113.99075 235.33179 113.58086 234.95117 113.19531 C 234.58638 112.82594 234.18698 112.4477 233.75781 112.0625 C 233.3262 111.67485 232.90719 111.31991 232.50195 110.99805 C 232.09317 110.67302 231.6587 110.35086 231.20312 110.0332 C 230.09644 109.25965 228.97285 108.6084 227.87109 108.09375 C 226.77883 107.58334 225.71349 107.2083 224.71094 106.98633 C 223.94136 106.8156 223.20582 106.7314 222.51953 106.74219 z M 224.36719 109.58008 C 225.00283 109.55908 225.68869 109.68301 226.39258 109.93555 C 228.29742 110.618 230.52534 112.29666 232.31445 114.48047 C 234.69175 117.38224 236.90616 120.44444 238.91406 123.64062 C 240.86923 126.75137 242.63392 129.99765 244.17188 133.35352 C 248.8997 143.66833 250.99503 154.64483 250.77344 165.35352 C 250.54229 176.54459 247.78129 187.45193 242.85156 197.01562 C 238.57259 205.31736 233.00208 211.97892 226.62305 217.07422 C 219.75891 222.55733 211.96381 226.22564 203.83398 228.17383 C 199.99053 229.09468 195.8073 229.64447 191.59375 229.81445 C 187.36827 229.98489 183.13054 229.77294 179.19141 229.16992 C 170.51562 227.84117 162.06172 224.60702 154.52148 219.33008 C 147.53387 214.43978 141.33671 207.79592 136.48047 199.28711 C 131.14655 189.94313 127.92402 179.16318 127.21484 167.99219 C 126.53662 157.30287 128.16051 146.24767 132.44336 135.74023 C 133.83636 132.32163 135.46153 129.00376 137.28125 125.8125 C 139.15094 122.53363 141.23108 119.37793 143.48242 116.37695 C 145.17623 114.11894 147.33348 112.34698 149.20703 111.58398 C 149.90003 111.30187 150.57726 111.1482 151.21289 111.14258 C 151.95163 111.13558 152.61931 111.32929 153.17969 111.75 C 153.6268 112.08489 153.98258 112.54328 154.22461 113.13672 C 154.91689 114.83648 153.28254 117.86658 151.00586 122.08398 C 150.04273 123.86815 148.95368 125.88239 147.87305 128.08203 C 145.05113 133.82552 142.66499 140.62569 141.17383 147.54688 C 139.81633 153.85091 139.20615 160.2364 139.69336 165.98242 C 140.92174 180.47704 145.3263 191.7515 151.63672 200.03711 C 158.74535 209.37128 168.28757 214.92879 178.43164 217.02734 C 181.86879 217.73876 185.97727 218.0431 190.08984 217.95508 C 194.20206 217.86638 198.29158 217.3886 201.69531 216.53125 C 211.74019 214.00077 221.03881 208.04119 227.74219 198.41211 C 233.69311 189.86407 237.61213 178.41079 238.2207 163.87695 C 238.46201 158.1153 237.5787 151.7635 235.95312 145.52344 C 234.16825 138.67235 231.49238 131.97914 228.42773 126.36133 C 227.25387 124.20955 226.08141 122.24357 225.04297 120.50195 C 222.58795 116.38551 220.82654 113.42873 221.44531 111.70117 C 221.66174 111.09788 221.99737 110.62377 222.42969 110.26953 C 222.97211 109.82596 223.62988 109.60541 224.36719 109.58008 z M 224.43555 110.7793 C 223.56991 110.80045 222.90095 111.20988 222.58008 112.10547 C 221.95392 113.85134 225.73045 118.90382 229.48633 125.78906 C 235.44325 136.70765 239.93863 151.59283 239.42188 163.92773 C 238.10271 195.43555 221.40505 212.80674 201.98828 217.69727 C 194.99048 219.46053 185.25655 219.66738 178.18945 218.20508 C 158.582 214.14762 141.15742 197.50681 138.49414 166.08398 C 137.45148 153.78224 141.30813 138.71721 146.79297 127.55469 C 150.25195 120.51502 153.80902 115.3079 153.10938 113.58984 C 151.96049 110.7704 147.46069 113.07564 144.44531 117.0957 C 140.06222 122.93828 136.33282 129.38227 133.55664 136.19336 C 124.94595 157.31796 127.26081 180.7087 137.52344 198.68945 C 147.4209 216.02906 162.98363 225.46834 179.37305 227.97852 C 187.10817 229.16297 195.97961 228.81704 203.55469 227.00195 C 218.9289 223.31759 233.07564 213.35912 241.78516 196.46289 C 251.27106 178.06024 252.58499 154.59147 243.08008 133.85352 C 240.01581 127.16692 236.01376 120.89041 231.38477 115.24023 C 229.1956 112.56738 226.33994 110.73275 224.43555 110.7793 z M 182.21484 111.77539 C 183.43761 113.3274 184.11956 114.88034 183.97852 116.71484 C 190.61013 116.00953 196.6448 127.81123 204.03906 134.68164 C 211.3524 141.47832 221.34708 145.40578 226.61523 152.93164 C 224.45182 144.6535 214.24558 140.84404 207.42578 134.40039 C 199.88167 127.27278 195.76054 112.48105 182.21484 111.77539 z M 234.9375 123.85742 C 235.07331 123.8651 235.18831 123.89625 235.27344 123.95508 C 235.50139 124.11268 235.75106 124.36013 235.99414 124.64648 C 236.27731 124.97857 236.55221 125.36481 236.78125 125.72852 C 237.40918 126.7258 237.90293 127.83352 238.1875 128.5332 C 238.4414 129.1611 238.43793 129.60515 238.20117 129.96289 C 237.86629 130.46768 236.12038 131.25591 235.57617 131.25391 C 235.2272 131.25252 234.78206 131.156 234.40039 130.51367 C 234.05707 129.93605 233.62673 129.13205 233.22852 128.33984 C 232.61607 127.12201 232.07707 125.92796 232.04297 125.61523 C 231.999 125.21456 232.6484 124.67484 233.39062 124.29883 C 233.93518 124.0223 234.53008 123.83438 234.9375 123.85742 z M 181.08984 124.21289 C 181.43811 126.96727 180.54862 129.21791 177.57227 128.94141 C 178.18612 128.41059 178.74956 128.22744 179.5625 127.94531 C 176.80988 127.39513 175.46407 129.60448 175.67969 132.06055 C 176.07792 131.34682 176.5099 130.81691 177.14062 130.26953 C 177.17372 130.81691 177.04098 131.34683 176.74219 131.89453 C 177.96986 131.91083 179.32852 131.31392 179.89453 129.83789 C 180.44223 130.38525 180.65805 131.36464 180.35938 132.31055 C 182.01871 129.93785 182.15184 126.85119 181.08984 124.21289 z M 141.26367 125.85938 C 141.66964 125.81883 142.27197 125.97975 142.82812 126.23242 C 143.58548 126.57647 144.25755 127.09012 144.23047 127.49219 C 144.20947 127.80633 143.72176 129.02121 143.16211 130.26367 C 142.79801 131.07273 142.40395 131.89268 142.08594 132.48438 C 141.73205 133.1425 141.29038 133.25928 140.94141 133.27539 C 140.39794 133.30109 138.61965 132.58767 138.26367 132.09766 C 138.01146 131.7501 137.98868 131.3077 138.2168 130.66992 C 138.47078 129.95864 138.9157 128.82925 139.5 127.80664 C 139.71388 127.43304 139.97381 127.03543 140.24219 126.69141 C 140.47357 126.39487 140.71038 126.13743 140.93164 125.9707 C 141.01431 125.90818 141.12835 125.87288 141.26367 125.85938 z M 184.3418 129.98633 C 185.53641 138.64759 181.12278 140.70501 180.45898 140.33984 C 179.75053 139.95039 179.83422 138.21656 179.86133 137.41992 C 178.44436 141.31325 177.73719 144.82056 178.63281 149.20117 C 179.03136 144.19015 188.68864 140.8045 184.3418 129.98633 z M 176.40234 133.61719 C 175.8381 133.64684 175.15351 135.3302 174.79297 136.71289 C 174.26037 138.75353 173.66364 144.43154 173.93555 148.39258 C 174.8667 140.30917 176.33754 137.25356 176.71289 136.63086 C 177.08786 136.00816 176.96692 133.58679 176.40234 133.61719 z M 243.33984 146.3418 C 243.92797 146.34678 244.44263 146.46309 244.61914 146.71875 C 244.77745 146.94617 244.92251 147.26346 245.04883 147.61719 C 245.19631 148.02859 245.3184 148.48825 245.4043 148.91016 C 245.63856 150.06426 245.70786 151.27593 245.72656 152.03125 C 245.74309 152.70836 245.58292 153.12205 245.23438 153.37305 C 244.74329 153.72606 242.8286 153.84418 242.32031 153.65039 C 241.9942 153.52524 241.61247 153.27867 241.48242 152.54297 C 241.36621 151.88128 241.24845 150.97781 241.15625 150.0957 C 241.01326 148.73987 240.93282 147.43338 241.01172 147.12891 C 241.11161 146.73853 241.90895 146.46175 242.73633 146.37305 C 242.93878 146.35116 243.1438 146.34014 243.33984 146.3418 z M 133.83008 148.68164 C 134.02588 148.67165 134.2284 148.67235 134.43164 148.68555 C 135.26184 148.73925 136.07264 148.98367 136.18945 149.36914 C 136.28105 149.67034 136.25442 150.97762 136.16992 152.33789 C 136.11502 153.22303 136.03576 154.13096 135.94727 154.79688 C 135.84917 155.53701 135.47869 155.80248 135.1582 155.94141 C 134.65869 156.15621 132.74219 156.12099 132.23633 155.78711 C 131.87719 155.55128 131.70015 155.14343 131.6875 154.4668 C 131.6735 153.71149 131.69229 152.49915 131.87695 151.33594 C 131.94445 150.91053 132.04641 150.44606 132.17578 150.0293 C 132.28738 149.67043 132.41866 149.34552 132.56641 149.11133 C 132.73207 148.84796 133.24267 148.71162 133.83008 148.68164 z M 243.56836 169.46875 C 243.70248 169.46273 243.8461 169.46625 243.99414 169.47656 C 244.19153 169.49032 244.39736 169.51949 244.60156 169.55859 C 245.40115 169.71199 246.17517 170.0437 246.30078 170.43945 C 246.38488 170.70329 246.42857 171.05011 246.44727 171.42578 C 246.46807 171.86122 246.4499 172.33523 246.4082 172.76367 C 246.29421 173.93692 246.00563 175.11553 245.80273 175.84375 C 245.6198 176.49517 245.34611 176.84467 244.93945 176.98242 C 244.36641 177.17738 242.50142 176.73152 242.07227 176.39648 C 241.7971 176.1819 241.5047 175.83288 241.5957 175.0918 C 241.67765 174.42521 241.83003 173.52737 242 172.65625 C 242.26101 171.31885 242.56392 170.04583 242.72852 169.77734 C 242.84645 169.58297 243.16599 169.4868 243.56836 169.46875 z M 134.7207 171.80273 C 135.06135 171.81937 135.32724 171.90142 135.43945 172.06836 C 135.61503 172.3301 135.97372 173.5871 136.29102 174.91211 C 136.49788 175.77506 136.68805 176.66551 136.79883 177.32812 C 136.92164 178.06525 136.64482 178.42759 136.37891 178.6543 C 135.96453 179.00732 134.1202 179.53233 133.53906 179.36328 C 133.12719 179.24199 132.83887 178.9042 132.62891 178.26172 L 132.62891 178.25977 C 132.395 177.54147 132.05603 176.37687 131.89258 175.21094 C 131.83278 174.78531 131.79322 174.31162 131.79492 173.875 C 131.79692 173.49957 131.82779 173.14968 131.90039 172.88281 C 132.00919 172.48284 132.76801 172.11718 133.56055 171.92969 C 133.96527 171.83396 134.38006 171.7861 134.7207 171.80273 z M 182.375 173.16016 C 183.89208 173.24075 184.83007 174.43146 185.64648 175.87109 C 184.8306 176.21662 184.06406 176.7577 183.37695 177.64062 C 182.25866 179.07818 181.11189 180.54068 180.21875 182.13281 C 179.5134 183.39168 179.94435 184.25383 180.33008 185.55469 C 178.27225 184.23181 176.64689 182.14788 174.27734 182.89258 C 175.12372 182.89258 176.14671 183.45743 176.72852 184.17188 C 177.35046 184.93513 177.83894 185.96181 178.99414 187.13086 C 179.82308 187.96912 180.68235 188.7062 181.51172 189.47461 C 182.11699 191.47804 182.69031 193.49041 183.06055 195.54297 C 183.18133 196.21273 183.27962 197.0966 183.40625 198.05664 C 183.2711 198.0035 183.13696 197.94632 182.99023 197.92188 L 182.99023 197.91992 C 182.56353 197.84992 180.5362 197.89453 179.89844 197.89453 C 179.26068 197.89453 179.51012 196.20258 178.65039 195.25977 C 177.32736 193.80984 173.40781 188.21267 172.43164 183.41016 C 171.74391 184.94041 170.66096 185.88382 169.23242 186.04492 C 171.54885 187.82545 176.88729 193.89163 176.2168 195.68945 C 175.73594 196.97687 174.54503 197.61587 175.21094 198.00391 C 175.74317 198.31398 177.42354 198.2764 178.16016 198.64648 C 178.76063 198.94743 178.73317 200.44485 179.29883 200.81445 C 179.99253 201.26695 181.13329 200.48448 181.65039 199.91992 C 182.5439 202.27156 180.89601 204.27117 179.53711 203.02344 C 178.77131 202.31996 178.40006 201.24848 177.31836 201.2207 C 176.23665 201.1927 175.09911 201.09043 174.63477 199.62695 C 174.12892 198.03133 171.62645 197.65583 171.10547 195.64648 C 170.45434 193.1321 169.87398 190.39323 168.55273 188.12891 C 167.27578 185.94024 165.12621 184.09892 164.05859 181.81055 C 163.27026 180.12154 164.75292 177.0884 165.91797 176.50586 C 166.66091 176.13439 169.59162 176.13356 170.30078 176.58984 C 171.12814 177.12171 170.55097 178.25096 170.38477 179.19727 C 170.10723 180.77865 171.21661 182.58162 170.17383 184.07031 C 172.9363 183.0808 173.49063 177.92238 178.35742 178.23828 C 177.81709 177.33914 173.52675 178.59373 173.27734 175.88672 C 176.59632 176.28504 179.60176 173.8091 180.95117 173.37109 C 181.47764 173.20036 181.94932 173.13754 182.375 173.16016 z M 238.18945 188.74219 C 238.58192 188.7256 239.17024 188.94527 239.70898 189.25977 C 240.41288 189.6714 241.03158 190.24376 241.01758 190.6582 C 241.00824 190.93511 240.93626 191.27646 240.82812 191.63672 C 240.70183 192.05465 240.52782 192.49727 240.3457 192.88672 C 239.84794 193.95467 239.1841 194.96938 238.75 195.58789 L 238.74805 195.58789 C 238.35897 196.14123 237.98545 196.375 237.55664 196.375 C 236.95124 196.36753 235.34221 195.32598 235.04883 194.86719 C 234.86136 194.57278 234.69972 194.14503 235.0332 193.47656 C 235.33221 192.87511 235.77398 192.0791 236.22461 191.31445 C 236.91585 190.14026 237.62928 189.04221 237.87305 188.84375 C 237.95123 188.78024 238.05863 188.74772 238.18945 188.74219 z M 140.78516 190.82227 C 140.91611 190.82224 141.0266 190.84992 141.10742 190.91016 C 141.35965 191.09694 142.11625 192.16499 142.85742 193.30859 C 143.3397 194.05293 143.81593 194.83029 144.14062 195.41797 C 144.50188 196.07312 144.36062 196.50405 144.18555 196.80664 C 143.91221 197.27687 142.34846 198.38677 141.74414 198.41992 C 141.31532 198.44322 140.93216 198.2206 140.51953 197.68359 L 140.51758 197.68359 C 140.05749 197.08471 139.35102 196.10046 138.80859 195.05469 C 138.6099 194.67295 138.41501 194.23849 138.27148 193.82617 C 138.14774 193.4715 138.06156 193.13362 138.04102 192.85742 C 138.01002 192.44345 138.60415 191.84489 139.28906 191.4043 C 139.81382 191.06668 140.39229 190.82235 140.78516 190.82227 z M 228.67578 205.02344 C 229.06673 205.03497 229.64748 205.489 230.12305 206.04102 C 230.65457 206.65718 231.05357 207.39781 230.90625 207.78516 C 230.80812 208.04455 230.62963 208.34546 230.41016 208.65039 C 230.15512 209.00459 229.84625 209.36618 229.54688 209.67578 C 228.73007 210.52355 227.77084 211.26663 227.16016 211.71094 C 226.61176 212.10887 226.18029 212.21117 225.77539 212.06641 C 225.20587 211.86282 224.02225 210.35524 223.89453 209.82617 C 223.8122 209.48669 223.79911 209.03175 224.33203 208.50781 C 224.80974 208.03618 225.48581 207.42608 226.16016 206.84961 C 227.19541 205.96378 228.22598 205.15662 228.52148 205.04688 C 228.56871 205.02954 228.61993 205.02179 228.67578 205.02344 z M 150.98633 206.68359 C 151.04212 206.67956 151.09456 206.68393 151.14258 206.69922 C 151.44228 206.79502 152.50362 207.55938 153.57617 208.40039 C 154.27408 208.94744 154.97615 209.52813 155.47461 209.97852 C 156.02829 210.47981 156.03628 210.93435 155.96875 211.27734 C 155.86373 211.81061 154.74363 213.36735 154.18359 213.5957 C 153.78539 213.7568 153.3494 213.67315 152.78516 213.29883 C 152.15548 212.88206 151.16748 212.17971 150.31445 211.36719 C 150.00278 211.0702 149.67801 210.72385 149.4082 210.38086 C 149.17565 210.08504 148.9844 209.79114 148.875 209.53711 C 148.71178 209.15583 149.07726 208.39802 149.58203 207.75781 C 150.03296 207.18681 150.59575 206.71183 150.98633 206.68359 z "
       transform="translate(0,744.56703)"
       id="path16345-4-6" />
    <path
       style="font-style:normal;font-variant:normal;font-weight:normal;font-stretch:normal;font-size:medium;line-height:1.25;font-family:ShangriLaNF;-inkscape-font-specification:'ShangriLaNF, Normal';font-variant-ligatures:normal;font-variant-caps:normal;font-variant-numeric:normal;font-feature-settings:normal;text-align:start;letter-spacing:0px;word-spacing:0px;writing-mode:lr-tb;text-anchor:start;fill:#4479c6;fill-opacity:1;stroke:none;stroke-width:1.08469117"
       d="M 339.88672 243.58203 C 337.83303 244.04484 336.21327 245.42 335.02734 247.70508 C 333.98604 249.67198 333.46484 251.79695 333.46484 254.08203 L 333.46484 271.17773 C 333.46484 271.6984 333.27642 272.18954 332.90039 272.65234 C 332.55328 273.11514 332.12026 273.3457 331.59961 273.3457 C 331.45498 273.3457 331.38281 273.4179 331.38281 273.5625 C 331.38281 273.70717 331.45498 273.78125 331.59961 273.78125 L 338.32422 273.78125 C 338.46885 273.78125 338.54102 273.70717 338.54102 273.5625 C 338.54102 273.4179 338.46885 273.3457 338.32422 273.3457 C 337.80357 273.3457 337.35454 273.11514 336.97852 272.65234 C 336.63141 272.18954 336.45898 271.6984 336.45898 271.17773 L 336.45898 251.43555 C 336.45898 248.10916 337.65976 245.62139 340.06055 243.97266 C 340.14735 243.88588 340.17542 243.79966 340.14648 243.71289 C 340.11756 243.62611 340.03135 243.58203 339.88672 243.58203 z M 52.492188 250.44922 C 52.441569 250.42753 52.373885 250.43708 52.287109 250.48047 C 50.493753 251.23252 49.018332 252.92638 47.861328 255.55859 L 41.136719 270.78711 C 40.847467 271.42344 40.412486 272.00082 39.833984 272.52148 C 39.255483 273.01322 38.662115 273.25977 38.054688 273.25977 C 37.881137 273.25977 37.794922 273.346 37.794922 273.51953 C 37.794922 273.6642 37.881137 273.73633 38.054688 273.73633 L 46.169922 273.73633 C 46.343473 273.73633 46.429688 273.6642 46.429688 273.51953 C 46.429688 273.346 46.343473 273.25977 46.169922 273.25977 L 45.474609 273.25977 C 43.854804 273.25977 42.914623 272.47795 42.654297 270.91602 C 43.840226 269.23835 45.62033 268.40039 47.992188 268.40039 C 49.583068 268.40039 50.942233 268.8194 52.070312 269.6582 C 52.764515 270.2078 53.211586 270.62675 53.414062 270.91602 C 53.703313 271.32095 53.849609 271.71189 53.849609 272.08789 C 53.849609 272.84022 53.400584 273.2311 52.503906 273.25977 C 52.301431 273.2887 52.199219 273.37493 52.199219 273.51953 C 52.199219 273.6642 52.301431 273.73633 52.503906 273.73633 L 61.484375 273.73633 C 61.629 273.73633 61.701172 273.6642 61.701172 273.51953 C 61.701172 273.346 61.629 273.25977 61.484375 273.25977 L 61.224609 273.25977 C 60.646107 273.25977 60.096824 272.99918 59.576172 272.47852 C 59.055521 271.95792 58.664623 271.39458 58.404297 270.78711 L 51.982422 255.55859 C 51.635321 254.71973 51.462891 253.8658 51.462891 252.99805 C 51.462891 251.92782 51.795661 251.23419 52.460938 250.91602 C 52.605566 250.88709 52.647697 250.78488 52.589844 250.61133 C 52.575381 250.52455 52.542806 250.47091 52.492188 250.44922 z M 292.8418 251.82031 C 291.97495 251.87093 291.26384 252.36433 290.70703 253.30078 C 289.37648 252.49087 287.9151 252.08594 286.32422 252.08594 C 283.89451 252.08594 281.7395 252.9399 279.85938 254.64648 C 277.40074 256.90261 276.17188 259.79535 276.17188 263.32422 C 276.17187 265.86969 276.89554 268.14092 278.3418 270.13672 C 280.25085 272.82679 282.78075 274.17188 285.93359 274.17188 C 289.11535 274.17188 291.58909 272.97111 293.35352 270.57031 C 293.46922 269.96285 293.59951 269.55794 293.74414 269.35547 C 294.00447 269.0084 294.52566 268.74782 295.30664 268.57422 C 295.45127 268.51642 295.50745 268.38606 295.47852 268.18359 C 295.47852 268.00999 295.3923 267.92383 295.21875 267.92383 L 287.92969 267.92383 C 287.814 267.92383 287.72779 268.00999 287.66992 268.18359 C 287.66992 268.38586 287.74209 268.51622 287.88672 268.57422 C 289.10157 268.92135 289.70898 269.61492 289.70898 270.65625 C 289.70898 271.35045 289.4043 271.91574 288.79688 272.34961 C 288.18945 272.75428 287.52586 272.94078 286.80273 272.91211 C 285.2697 272.88318 283.86645 271.943 282.59375 270.0918 C 281.08964 267.98026 280.33789 265.39224 280.33789 262.32617 C 280.33789 260.30144 280.74283 258.4511 281.55273 256.77344 C 282.56511 254.66191 283.96641 253.51926 285.75977 253.3457 C 287.23495 253.17216 288.46577 253.95201 289.44922 255.6875 C 290.08557 256.81557 290.40234 257.91411 290.40234 258.98438 C 290.40234 259.64964 290.258 260.24301 289.96875 260.76367 C 289.73735 261.11074 289.47675 261.28516 289.1875 261.28516 C 288.98503 261.25622 288.82664 261.154 288.71094 260.98047 C 288.62417 260.80694 288.63821 260.60445 288.75391 260.37305 C 288.89853 260.14165 288.81231 260.02734 288.49414 260.02734 C 287.45282 260.22981 286.96166 260.69093 287.01953 261.41406 C 287.07738 262.25286 287.69883 262.67383 288.88477 262.67383 C 290.21532 262.67383 291.2858 261.96421 292.0957 260.54688 C 292.4428 259.91054 292.61523 259.14471 292.61523 258.24805 C 292.61523 257.87198 292.51497 256.94584 292.3125 255.4707 C 292.11003 254.19798 292.47088 253.11348 293.39648 252.2168 C 293.48328 252.15895 293.49732 252.08677 293.43945 252 C 293.41053 251.8843 293.33836 251.82617 293.22266 251.82617 C 293.09249 251.81532 292.96563 251.81308 292.8418 251.82031 z M 138.26367 252.08594 C 136.00752 252.08594 133.89659 252.65122 131.92969 253.7793 C 129.67353 255.05199 128.40058 256.71391 128.11133 258.76758 C 128.05346 259.17258 128.02539 259.56345 128.02539 259.93945 C 128.02539 261.79065 128.79119 263.20794 130.32422 264.19141 C 131.24983 264.79881 132.91367 265.42024 135.31445 266.05664 C 137.10781 266.51944 138.36476 266.95444 139.08789 267.35938 C 140.50522 268.14038 141.14267 269.18082 140.99805 270.48242 C 140.88234 271.32122 140.40523 272.00082 139.56641 272.52148 C 138.72758 273.04215 137.70118 273.30273 136.48633 273.30273 C 134.92437 273.30273 133.52112 272.89782 132.27734 272.08789 C 130.91786 271.19122 130.10798 270.00638 129.84766 268.53125 L 128.45898 268.66016 C 129.58706 271.43696 130.45507 273.5198 131.0625 274.9082 L 132.10352 273.82422 C 133.26052 274.28702 134.48938 274.51758 135.79102 274.51758 C 137.93147 274.51758 139.78374 273.94027 141.3457 272.7832 C 142.82088 271.713 143.60073 270.20753 143.6875 268.26953 C 143.8032 266.3316 143.09553 264.85615 141.5625 263.84375 C 140.66583 263.23635 139.0601 262.61492 136.74609 261.97852 C 134.75026 261.45785 133.40514 260.99478 132.71094 260.58984 C 131.49608 259.89564 130.93275 258.92739 131.01953 257.68359 C 131.1063 256.43986 131.72776 255.44152 132.88477 254.68945 C 133.92607 254.02417 135.14089 253.69141 136.5293 253.69141 C 138.0334 253.69141 139.30636 254.11234 140.34766 254.95117 C 141.47574 255.87675 142.03906 257.07558 142.03906 258.55078 C 142.03906 258.92678 141.99498 259.28959 141.9082 259.63672 L 142.3418 259.85352 C 143.20955 258.52298 144.19382 257.0175 145.29297 255.33984 C 143.93349 253.17046 141.59006 252.08594 138.26367 252.08594 z M 94.494141 252.17188 C 94.32059 252.17187 94.234375 252.27409 94.234375 252.47656 C 94.234375 252.62119 94.32059 252.69336 94.494141 252.69336 L 94.929688 252.69336 C 95.999916 252.69336 96.535156 253.19856 96.535156 254.21094 L 96.535156 270.83008 C 96.535156 271.46641 96.316689 272.05782 95.882812 272.60742 C 95.477861 273.12809 94.972662 273.38867 94.365234 273.38867 L 93.886719 273.38867 C 93.684243 273.38867 93.583984 273.4749 93.583984 273.64844 C 93.583984 273.82197 93.684243 273.91016 93.886719 273.91016 L 108.50977 273.91016 C 108.88579 273.73662 109.21856 273.34568 109.50781 272.73828 C 109.73921 272.24655 109.85352 271.8276 109.85352 271.48047 C 109.85352 270.0342 108.89929 268.91961 106.99023 268.13867 C 106.90346 268.10994 106.8032 268.13983 106.6875 268.22656 C 106.62963 268.3711 106.62963 268.4713 106.6875 268.5293 C 107.12137 268.9921 107.33789 269.49929 107.33789 270.04883 C 107.33789 270.94549 106.83073 271.68319 105.81836 272.26172 C 104.92168 272.78239 103.9815 273.04297 102.99805 273.04297 C 101.23361 273.04297 100.35156 272.30528 100.35156 270.83008 L 100.35156 267.22852 L 102.95508 267.22852 C 104.141 267.22852 105.03905 267.77775 105.64648 268.87695 C 105.70433 268.96362 105.79055 268.99351 105.90625 268.96484 C 106.02195 268.93591 106.08008 268.86371 106.08008 268.74805 L 106.08008 264.53906 C 106.08008 264.42313 106.02195 264.35093 105.90625 264.32227 C 105.79057 264.29353 105.70435 264.32147 105.64648 264.4082 C 105.27046 265.0446 104.96578 265.43548 104.73438 265.58008 C 104.32943 265.89828 103.73606 266.05664 102.95508 266.05664 L 100.35156 266.05664 L 100.35156 254.56055 C 100.35156 253.57709 100.91684 253.08398 102.04492 253.08398 L 102.86914 253.08398 C 103.93937 253.08398 104.87955 253.24433 105.68945 253.5625 C 106.81753 253.96745 107.38086 254.61697 107.38086 255.51367 C 107.38086 255.94754 107.2806 256.31034 107.07812 256.59961 C 106.99135 256.71528 107.00539 256.81554 107.12109 256.90234 C 107.20787 256.98908 107.29409 256.98908 107.38086 256.90234 C 109.02959 255.77424 109.95573 254.29884 110.1582 252.47656 C 110.21606 252.27409 110.14389 252.17188 109.94141 252.17188 L 94.494141 252.17188 z M 178.75781 252.17188 C 178.58426 252.17187 178.49805 252.27409 178.49805 252.47656 C 178.49805 252.62119 178.58426 252.69336 178.75781 252.69336 L 179.19141 252.69336 C 180.26163 252.69336 180.79687 253.19856 180.79688 254.21094 L 180.79688 270.83008 C 180.79687 271.46641 180.58036 272.05782 180.14648 272.60742 C 179.74154 273.12809 179.23438 273.38867 178.62695 273.38867 L 178.15039 273.38867 C 177.94792 273.38867 177.8457 273.4749 177.8457 273.64844 C 177.8457 273.82197 177.94792 273.91016 178.15039 273.91016 L 192.77148 273.91016 C 193.14751 273.73662 193.48028 273.34568 193.76953 272.73828 C 194.00093 272.24655 194.11719 271.8276 194.11719 271.48047 C 194.11719 270.0342 193.16297 268.91961 191.25391 268.13867 C 191.16713 268.10994 191.06492 268.13983 190.94922 268.22656 C 190.89135 268.3711 190.89135 268.4713 190.94922 268.5293 C 191.38309 268.9921 191.59961 269.49929 191.59961 270.04883 C 191.59961 270.94549 191.0944 271.68319 190.08203 272.26172 C 189.18535 272.78239 188.24517 273.04297 187.26172 273.04297 C 185.49729 273.04297 184.61523 272.30528 184.61523 270.83008 L 184.61523 267.22852 L 187.21875 267.22852 C 188.40468 267.22852 189.30078 267.77775 189.9082 268.87695 C 189.96606 268.96362 190.05227 268.99351 190.16797 268.96484 C 190.28367 268.93591 190.3418 268.86371 190.3418 268.74805 L 190.3418 264.53906 C 190.3418 264.42313 190.28367 264.35093 190.16797 264.32227 C 190.05228 264.29353 189.96607 264.32147 189.9082 264.4082 C 189.53218 265.0446 189.2275 265.43548 188.99609 265.58008 C 188.59115 265.89828 187.99973 266.05664 187.21875 266.05664 L 184.61523 266.05664 L 184.61523 254.56055 C 184.61523 253.57709 185.17856 253.08398 186.30664 253.08398 L 187.13086 253.08398 C 188.20109 253.08398 189.14127 253.24433 189.95117 253.5625 C 191.07925 253.96745 191.64453 254.61697 191.64453 255.51367 C 191.64453 255.94754 191.54232 256.31034 191.33984 256.59961 C 191.25308 256.71528 191.26711 256.81554 191.38281 256.90234 C 191.46959 256.98908 191.55776 256.98908 191.64453 256.90234 C 193.29326 255.77424 194.21745 254.29884 194.41992 252.47656 C 194.47778 252.27409 194.40561 252.17188 194.20312 252.17188 L 178.75781 252.17188 z M 82.470703 252.17383 C 82.326078 252.17383 82.251953 252.27409 82.251953 252.47656 C 82.251953 252.62119 82.326078 252.69336 82.470703 252.69336 L 82.947266 252.69336 C 84.017494 252.69336 84.552734 253.20051 84.552734 254.21289 L 84.552734 270.83008 C 84.552734 271.46641 84.33622 272.05978 83.902344 272.60938 C 83.468467 273.13004 82.933227 273.39062 82.296875 273.39062 L 81.818359 273.39062 C 81.673734 273.39062 81.601562 273.47686 81.601562 273.65039 C 81.601562 273.82392 81.673734 273.91016 81.818359 273.91016 L 91.060547 273.91016 C 91.234098 273.91016 91.320312 273.82392 91.320312 273.65039 C 91.320312 273.47686 91.234098 273.39062 91.060547 273.39062 L 90.583984 273.39062 C 89.976558 273.39062 89.455361 273.13004 89.021484 272.60938 C 88.587608 272.05978 88.371094 271.46641 88.371094 270.83008 L 88.371094 254.21289 C 88.371094 253.20051 88.906334 252.69336 89.976562 252.69336 L 90.453125 252.69336 C 90.626676 252.69336 90.712891 252.62119 90.712891 252.47656 C 90.712891 252.27409 90.626676 252.17383 90.453125 252.17383 L 82.470703 252.17383 z M 167.25781 252.17383 C 167.11319 252.17383 167.04102 252.27409 167.04102 252.47656 C 167.04102 252.62119 167.11319 252.69336 167.25781 252.69336 L 167.73438 252.69336 C 168.8046 252.69336 169.33984 253.20051 169.33984 254.21289 L 169.33984 270.83008 C 169.33984 271.46641 169.12333 272.05978 168.68945 272.60938 C 168.25558 273.13004 167.72034 273.39062 167.08398 273.39062 L 166.60742 273.39062 C 166.4628 273.39062 166.39062 273.47686 166.39062 273.65039 C 166.39062 273.82392 166.4628 273.91016 166.60742 273.91016 L 175.84961 273.91016 C 176.02316 273.91016 176.10938 273.82392 176.10938 273.65039 C 176.10937 273.47686 176.02316 273.39062 175.84961 273.39062 L 175.37109 273.39062 C 174.76367 273.39062 174.24247 273.13004 173.80859 272.60938 C 173.37471 272.05978 173.1582 271.46641 173.1582 270.83008 L 173.1582 254.21289 C 173.1582 253.20051 173.69345 252.69336 174.76367 252.69336 L 175.24219 252.69336 C 175.41573 252.69336 175.50195 252.62119 175.50195 252.47656 C 175.50195 252.27409 175.41573 252.17383 175.24219 252.17383 L 167.25781 252.17383 z M 266.59375 252.17383 C 266.44912 252.17383 266.37695 252.27409 266.37695 252.47656 C 266.37695 252.62119 266.44912 252.69336 266.59375 252.69336 L 267.07031 252.69336 C 268.14055 252.69336 268.67578 253.20051 268.67578 254.21289 L 268.67578 270.83008 C 268.67578 271.46641 268.45927 272.05978 268.02539 272.60938 C 267.59152 273.13004 267.05628 273.39062 266.41992 273.39062 L 265.94141 273.39062 C 265.79678 273.39062 265.72461 273.47686 265.72461 273.65039 C 265.72461 273.82392 265.79678 273.91016 265.94141 273.91016 L 275.18359 273.91016 C 275.35715 273.91016 275.44336 273.82392 275.44336 273.65039 C 275.44336 273.47686 275.35715 273.39062 275.18359 273.39062 L 274.70703 273.39062 C 274.0996 273.39062 273.57841 273.13004 273.14453 272.60938 C 272.71066 272.05978 272.49414 271.46641 272.49414 270.83008 L 272.49414 254.21289 C 272.49414 253.20051 273.02938 252.69336 274.09961 252.69336 L 274.57617 252.69336 C 274.74972 252.69336 274.83594 252.62119 274.83594 252.47656 C 274.83594 252.27409 274.74972 252.17383 274.57617 252.17383 L 266.59375 252.17383 z M 296.92578 252.17383 C 296.78115 252.17383 296.70898 252.27409 296.70898 252.47656 C 296.70898 252.62119 296.78115 252.69336 296.92578 252.69336 L 297.40234 252.69336 C 298.47257 252.69336 299.00781 253.20051 299.00781 254.21289 L 299.00781 270.83008 C 299.00781 271.46641 298.7913 272.05978 298.35742 272.60938 C 297.92354 273.13004 297.3883 273.39062 296.75195 273.39062 L 296.27344 273.39062 C 296.12881 273.39062 296.05664 273.47686 296.05664 273.65039 C 296.05664 273.82392 296.12881 273.91016 296.27344 273.91016 L 305.51562 273.91016 C 305.68918 273.91016 305.77539 273.82392 305.77539 273.65039 C 305.77539 273.47686 305.68918 273.39062 305.51562 273.39062 L 305.03906 273.39062 C 304.43164 273.39062 303.91044 273.13004 303.47656 272.60938 C 303.04269 272.05978 302.82617 271.46641 302.82617 270.83008 L 302.82617 254.21289 C 302.82617 253.20051 303.36141 252.69336 304.43164 252.69336 L 304.9082 252.69336 C 305.08176 252.69336 305.16797 252.62119 305.16797 252.47656 C 305.16797 252.27409 305.08176 252.17383 304.9082 252.17383 L 296.92578 252.17383 z M 112.13477 252.2168 C 111.96122 252.2168 111.87305 252.30301 111.87305 252.47656 C 111.87305 252.62119 111.96122 252.69336 112.13477 252.69336 L 112.52539 252.69336 C 113.62454 252.69336 114.17383 253.20051 114.17383 254.21289 L 114.17383 270.83008 C 114.17383 271.46641 113.95731 272.05978 113.52344 272.60938 C 113.08956 273.13004 112.55432 273.39062 111.91797 273.39062 L 111.48438 273.39062 C 111.31082 273.39062 111.22266 273.47686 111.22266 273.65039 C 111.22266 273.82392 111.31082 273.91016 111.48438 273.91016 L 126.97266 273.91016 C 127.52223 273.91016 128.15968 273.69363 128.88281 273.25977 C 127.87043 272.76803 127.23298 271.95814 126.97266 270.83008 C 126.7991 270.04908 126.4242 269.36948 125.8457 268.79102 C 125.2672 268.21248 124.58567 267.92383 123.80469 267.92383 C 123.16833 267.92383 122.48875 268.12625 121.76562 268.53125 C 122.83585 269.16758 123.37109 269.90534 123.37109 270.74414 C 123.37109 271.46727 123.02428 272.04465 122.33008 272.47852 C 121.6648 272.88325 120.94114 273.07164 120.16016 273.04297 C 119.55273 273.01404 119.03349 272.79751 118.59961 272.39258 C 118.19466 271.95864 117.99219 271.43748 117.99219 270.83008 L 117.99219 254.21289 C 117.99219 253.20051 118.51143 252.69336 119.55273 252.69336 L 120.55078 252.69336 C 120.72433 252.69336 120.8125 252.62119 120.8125 252.47656 C 120.8125 252.30301 120.72433 252.2168 120.55078 252.2168 L 112.13477 252.2168 z M 146.10156 252.2168 C 145.92802 252.2168 145.8418 252.30301 145.8418 252.47656 C 145.8418 252.62119 145.92802 252.69336 146.10156 252.69336 L 146.53516 252.69336 C 147.63431 252.69336 148.18555 253.20051 148.18555 254.21289 L 148.18555 270.83008 C 148.18555 271.46641 147.95303 272.05978 147.49023 272.60938 C 147.05635 273.13004 146.53516 273.39062 145.92773 273.39062 L 145.45117 273.39062 C 145.27762 273.39062 145.19141 273.47686 145.19141 273.65039 C 145.19141 273.82392 145.27762 273.91016 145.45117 273.91016 L 154.69336 273.91016 C 154.86691 273.91016 154.95312 273.82392 154.95312 273.65039 C 154.95312 273.47686 154.86691 273.39062 154.69336 273.39062 L 154.21484 273.39062 C 153.57849 273.39062 153.04325 273.13004 152.60938 272.60938 C 152.1755 272.05978 151.95898 271.46641 151.95898 270.83008 L 151.95898 269.5293 C 152.2193 268.95076 152.58212 268.66016 153.04492 268.66016 C 153.50772 268.66016 154.09914 269.09509 154.82227 269.96289 C 156.29745 271.64049 157.41201 272.72506 158.16406 273.2168 C 159.49462 274.05566 161.01217 274.27219 162.71875 273.86719 C 163.29725 273.72259 163.90466 273.33165 164.54102 272.69531 C 165.2063 272.05891 165.61123 271.45151 165.75586 270.87305 C 165.84263 270.43918 165.80051 270.00613 165.62695 269.57227 C 165.48233 269.10947 165.17765 268.87695 164.71484 268.87695 C 164.1942 268.87695 163.86142 269.23976 163.7168 269.96289 C 164.1796 270.10749 164.47024 270.32401 164.58594 270.61328 C 164.78841 270.98928 164.73028 271.39426 164.41211 271.82812 C 164.12286 272.26199 163.64574 272.47852 162.98047 272.47852 C 162.25734 272.47852 161.54772 272.27603 160.85352 271.87109 C 159.89899 270.85869 159.19132 270.00475 158.72852 269.31055 C 157.31118 267.34368 156.09636 266.36133 155.08398 266.36133 L 154.82227 266.36133 C 155.51647 265.58033 156.41452 264.52389 157.51367 263.19336 C 159.42273 260.87936 160.84002 258.95689 161.76562 257.42383 C 162.72016 255.89081 163.19727 254.64594 163.19727 253.69141 C 163.19727 252.67902 162.67607 252.18786 161.63477 252.2168 C 160.27529 252.27465 159.20481 252.99831 158.42383 254.38672 C 159.32051 254.21317 159.86979 254.41564 160.07227 254.99414 C 160.21689 255.45693 160.07255 256.10645 159.63867 256.94531 C 157.38251 261.13945 154.82256 264.7418 151.95898 267.75 L 151.95898 254.21289 C 151.95898 253.20051 152.50827 252.69336 153.60742 252.69336 L 153.99805 252.69336 C 154.1716 252.69336 154.25977 252.62119 154.25977 252.47656 C 154.25977 252.30301 154.1716 252.2168 153.99805 252.2168 L 146.10156 252.2168 z M 208.54102 252.2168 C 208.36746 252.2168 208.28125 252.30301 208.28125 252.47656 C 208.28125 252.62119 208.36746 252.69336 208.54102 252.69336 L 208.97461 252.69336 C 210.07376 252.69336 210.62305 253.20051 210.62305 254.21289 L 210.62305 270.83008 C 210.62305 271.46641 210.39249 272.05978 209.92969 272.60938 C 209.49581 273.13004 208.97462 273.39062 208.36719 273.39062 L 207.89062 273.39062 C 207.71707 273.39062 207.63086 273.47686 207.63086 273.65039 C 207.63086 273.82392 207.71707 273.91016 207.89062 273.91016 L 217.13281 273.91016 C 217.30637 273.91016 217.39258 273.82392 217.39258 273.65039 C 217.39258 273.47686 217.30637 273.39062 217.13281 273.39062 L 216.6543 273.39062 C 216.01794 273.39062 215.48271 273.13004 215.04883 272.60938 C 214.61495 272.05978 214.39844 271.46641 214.39844 270.83008 L 214.39844 269.5293 C 214.65876 268.95076 215.02158 268.66016 215.48438 268.66016 C 215.94717 268.66016 216.53859 269.09509 217.26172 269.96289 C 218.7369 271.64049 219.85146 272.72506 220.60352 273.2168 C 221.93407 274.05566 223.45162 274.27219 225.1582 273.86719 C 225.73671 273.72259 226.34412 273.33165 226.98047 272.69531 C 227.64575 272.05891 228.05069 271.45151 228.19531 270.87305 C 228.28209 270.43918 228.23995 270.00613 228.06641 269.57227 C 227.92178 269.10947 227.6171 268.87695 227.1543 268.87695 C 226.63364 268.87695 226.30088 269.23976 226.15625 269.96289 C 226.61905 270.10749 226.90969 270.32401 227.02539 270.61328 C 227.22787 270.98928 227.16974 271.39426 226.85156 271.82812 C 226.56232 272.26199 226.0852 272.47852 225.41992 272.47852 C 224.6968 272.47852 223.98718 272.27603 223.29297 271.87109 C 222.33844 270.85869 221.63077 270.00475 221.16797 269.31055 C 219.75064 267.34368 218.53582 266.36133 217.52344 266.36133 L 217.26172 266.36133 C 217.95593 265.58033 218.85397 264.52389 219.95312 263.19336 C 221.86218 260.87936 223.27947 258.95689 224.20508 257.42383 C 225.1596 255.89081 225.63672 254.64594 225.63672 253.69141 C 225.63672 252.67902 225.11553 252.18786 224.07422 252.2168 C 222.71474 252.27465 221.64425 252.99831 220.86328 254.38672 C 221.75995 254.21317 222.30924 254.41564 222.51172 254.99414 C 222.65635 255.45693 222.51201 256.10645 222.07812 256.94531 C 219.82196 261.13945 217.26202 264.7418 214.39844 267.75 L 214.39844 254.21289 C 214.39844 253.20051 214.94772 252.69336 216.04688 252.69336 L 216.4375 252.69336 C 216.61105 252.69336 216.69922 252.62119 216.69922 252.47656 C 216.69922 252.30301 216.61105 252.2168 216.4375 252.2168 L 208.54102 252.2168 z M 247.73242 252.2168 C 247.61776 252.2168 247.55453 252.268 247.51562 252.34375 C 247.48158 252.32297 247.4474 252.30273 247.39258 252.30273 L 241.88281 252.30273 C 241.76711 252.30273 241.70898 252.3749 241.70898 252.51953 C 241.70898 252.66416 241.76711 252.73828 241.88281 252.73828 L 242.31641 252.73828 C 242.77921 252.73828 243.18414 252.88263 243.53125 253.17188 C 243.87836 253.46113 244.03675 253.82199 244.00781 254.25586 C 243.80534 257.00378 243.61691 259.76617 243.44336 262.54297 C 243.09626 266.01397 242.40263 268.63208 241.36133 270.39648 C 240.60928 271.72708 239.74127 272.39258 238.75781 272.39258 C 237.97683 272.39258 237.26917 271.81325 236.63281 270.65625 C 235.67829 268.92072 234.98271 266.24457 234.54883 262.62891 C 234.28851 259.82317 234.01386 257.03265 233.72461 254.25586 C 233.66676 253.85091 233.78301 253.51814 234.07227 253.25781 C 234.39044 252.9975 234.73725 252.83912 235.11328 252.78125 L 235.67773 252.78125 C 235.90913 252.75233 236.02539 252.66416 236.02539 252.51953 C 236.02539 252.3749 235.93722 252.30273 235.76367 252.30273 L 227.86719 252.30273 C 227.66471 252.30273 227.56445 252.3749 227.56445 252.51953 C 227.56445 252.66416 227.66471 252.73828 227.86719 252.73828 C 229.11097 252.73828 229.79055 253.24349 229.90625 254.25586 L 230.86133 263.36719 C 231.41091 267.24319 232.29296 270.0196 233.50781 271.69727 C 234.72267 273.346 236.17 274.17188 237.84766 274.17188 C 239.58316 274.17188 241.05663 273.33196 242.27148 271.6543 C 243.51526 269.9477 244.34114 267.15718 244.74609 263.28125 C 244.94857 260.27298 245.13504 257.26405 245.30859 254.25586 C 245.39537 253.24349 246.09094 252.73828 247.39258 252.73828 C 247.48039 252.73828 247.53191 252.70175 247.56641 252.64844 C 247.60882 252.67457 247.65865 252.69336 247.73242 252.69336 L 248.12305 252.69336 C 249.2222 252.69336 249.77148 253.20051 249.77148 254.21289 L 249.77148 270.83008 C 249.77148 271.46641 249.55497 272.05978 249.12109 272.60938 C 248.68722 273.13004 248.15198 273.39062 247.51562 273.39062 L 247.08203 273.39062 C 246.90848 273.39062 246.82227 273.47686 246.82227 273.65039 C 246.82227 273.82392 246.90848 273.91016 247.08203 273.91016 L 262.57227 273.91016 C 263.12185 273.91016 263.75734 273.69363 264.48047 273.25977 C 263.46809 272.76803 262.83259 271.95814 262.57227 270.83008 C 262.39872 270.04908 262.02187 269.36948 261.44336 268.79102 C 260.86486 268.21248 260.18528 267.92383 259.4043 267.92383 C 258.76795 267.92383 258.08837 268.12625 257.36523 268.53125 C 258.43547 269.16758 258.9707 269.90534 258.9707 270.74414 C 258.9707 271.46727 258.62389 272.04465 257.92969 272.47852 C 257.26441 272.88325 256.54075 273.07164 255.75977 273.04297 C 255.15234 273.01404 254.63114 272.79751 254.19727 272.39258 C 253.79231 271.95864 253.58984 271.43748 253.58984 270.83008 L 253.58984 254.21289 C 253.58984 253.20051 254.11104 252.69336 255.15234 252.69336 L 256.15039 252.69336 C 256.32394 252.69336 256.41016 252.62119 256.41016 252.47656 C 256.41016 252.30301 256.32394 252.2168 256.15039 252.2168 L 247.73242 252.2168 z M 61.496094 252.43359 C 61.322543 252.43359 61.234375 252.51981 61.234375 252.69336 C 61.234375 252.86691 61.322543 252.95312 61.496094 252.95312 C 62.450622 252.95312 63.21642 253.17159 63.794922 253.60547 C 64.257724 253.92364 64.762923 254.53105 65.3125 255.42773 L 65.3125 271.08984 C 65.3125 271.69731 65.095986 272.27664 64.662109 272.82617 C 64.228233 273.37577 63.708989 273.65039 63.101562 273.65039 L 62.580078 273.65039 C 62.406527 273.65039 62.320312 273.73662 62.320312 273.91016 C 62.320312 274.05482 62.406527 274.12695 62.580078 274.12695 L 69.347656 274.12695 C 69.521207 274.12695 69.609375 274.05482 69.609375 273.91016 C 69.609375 273.73662 69.521207 273.65039 69.347656 273.65039 L 68.871094 273.65039 C 68.263666 273.65039 67.74247 273.37577 67.308594 272.82617 C 66.874718 272.27664 66.658203 271.69731 66.658203 271.08984 L 66.658203 257.5957 L 76.074219 272.78125 C 77.231223 274.66138 78.518218 275.86215 79.935547 276.38281 C 80.022322 276.41215 80.136624 276.39784 80.28125 276.33984 C 80.3391 276.25311 80.296969 276.12282 80.152344 275.94922 C 79.458141 275.39969 78.878817 274.4454 78.416016 273.08594 C 78.039989 271.9 77.851562 270.78547 77.851562 269.74414 L 77.851562 254.42969 C 77.851562 253.44623 78.402799 252.95312 79.501953 252.95312 L 79.935547 252.95312 C 80.080173 252.95312 80.152344 252.86691 80.152344 252.69336 C 80.152344 252.51981 80.080173 252.43359 79.935547 252.43359 L 74.425781 252.43359 C 74.281156 252.43359 74.207031 252.51981 74.207031 252.69336 C 74.207031 252.86691 74.281156 252.95312 74.425781 252.95312 L 74.902344 252.95312 C 75.972572 252.95313 76.507812 253.44623 76.507812 254.42969 L 76.507812 267.01172 L 67.742188 252.43359 L 61.496094 252.43359 z M 48.337891 256.94531 L 53.458984 269.09375 C 53.256509 268.89128 53.110213 268.74696 53.023438 268.66016 C 51.606108 267.56102 49.914172 267.01172 47.947266 267.01172 C 46.26961 267.01172 44.738014 267.46076 43.349609 268.35742 L 48.337891 256.94531 z M 324.67969 259.50586 C 323.08881 259.50586 321.62743 260.22951 320.29688 261.67578 L 320.29688 259.93945 L 315.4375 259.93945 C 315.26395 259.93945 315.17773 259.99755 315.17773 260.11328 C 315.17773 260.25788 315.26395 260.33008 315.4375 260.33008 C 315.95815 260.33008 316.39313 260.56259 316.74023 261.02539 C 317.08733 261.45926 317.25977 261.9504 317.25977 262.5 L 317.25977 278.90039 C 317.25977 282.11106 316.07499 284.58478 313.70312 286.32031 C 313.61635 286.37818 313.57227 286.46441 313.57227 286.58008 C 313.60119 286.66688 313.6874 286.71094 313.83203 286.71094 C 314.15021 286.71094 314.68545 286.50845 315.4375 286.10352 C 316.99945 285.26465 318.23027 283.83137 319.12695 281.80664 C 319.90793 280.04217 320.29688 278.1778 320.29688 276.21094 L 320.29688 273.30273 C 320.84645 273.592 321.46986 273.73633 322.16406 273.73633 C 324.10204 273.73633 325.79397 272.76808 327.24023 270.83008 C 328.57079 269.06568 329.23633 267.17128 329.23633 265.14648 C 329.23633 263.67135 328.85948 262.39839 328.10742 261.32812 C 327.23967 260.11326 326.09702 259.50586 324.67969 259.50586 z M 322.90039 260.85156 C 324.08632 260.85156 325.0265 261.61732 325.7207 263.15039 C 326.2992 264.36526 326.58789 265.63822 326.58789 266.96875 C 326.58789 268.29928 326.2992 269.57224 325.7207 270.78711 C 325.0265 272.32018 324.08632 273.08594 322.90039 273.08594 C 321.91694 273.08594 321.04893 272.47854 320.29688 271.26367 L 320.29688 262.67383 C 320.99108 261.45896 321.85909 260.85156 322.90039 260.85156 z M 198.81445 262.80273 C 198.6409 262.80273 198.55469 262.89092 198.55469 263.06445 L 198.55469 265.44922 C 198.55469 265.59389 198.6409 265.66602 198.81445 265.66602 L 203.28516 265.66602 C 203.4587 265.66602 203.54492 265.59389 203.54492 265.44922 L 203.54492 263.06445 C 203.54492 262.89092 203.4587 262.80273 203.28516 262.80273 L 198.81445 262.80273 z M 310.65234 270.30859 C 310.18954 270.30859 309.7846 270.48301 309.4375 270.83008 C 309.0904 271.17721 308.91602 271.58212 308.91602 272.04492 C 308.91602 272.53659 309.07636 272.9556 309.39453 273.30273 C 309.74163 273.64987 310.16062 273.82422 310.65234 273.82422 C 311.14407 273.82422 311.56305 273.64987 311.91016 273.30273 C 312.25726 272.9556 312.43164 272.53659 312.43164 272.04492 C 312.43164 271.58212 312.25726 271.17721 311.91016 270.83008 C 311.56305 270.48301 311.14407 270.30859 310.65234 270.30859 z "
       transform="translate(0,744.56703)"
       id="path4523" />
    <text
       xml:space="preserve"
       style="font-style:normal;font-variant:normal;font-weight:normal;font-stretch:normal;font-size:41.27088928px;line-height:1.25;font-family:ShangriLaNF;-inkscape-font-specification:'ShangriLaNF, Normal';font-variant-ligatures:normal;font-variant-caps:normal;font-variant-numeric:normal;font-feature-settings:normal;text-align:start;letter-spacing:0px;word-spacing:0px;writing-mode:lr-tb;text-anchor:start;fill:#000000;fill-opacity:1;stroke:none;stroke-width:1.03177226"
       x="483.39841"
       y="1043.24"
       id="text2487-9"><tspan
         sodipodi:role="line"
         id="tspan2485-0"
         x="483.39841"
         y="1043.24"
         style="stroke-width:1.03177226">ShangriLaNF</tspan></text>
  </g>
</svg>
