<?xml version="1.0" encoding="UTF-8" standalone="no"?>
<!-- Created with Inkscape (http://www.inkscape.org/) -->

<svg
   xmlns:dc="http://purl.org/dc/elements/1.1/"
   xmlns:cc="http://creativecommons.org/ns#"
   xmlns:rdf="http://www.w3.org/1999/02/22-rdf-syntax-ns#"
   xmlns:svg="http://www.w3.org/2000/svg"
   xmlns="http://www.w3.org/2000/svg"
   xmlns:xlink="http://www.w3.org/1999/xlink"
   xmlns:sodipodi="http://sodipodi.sourceforge.net/DTD/sodipodi-0.dtd"
   xmlns:inkscape="http://www.inkscape.org/namespaces/inkscape"
   width="10cm"
   height="10cm"
   id="svg2"
   version="1.1"
   inkscape:version="0.48.4 r9939"
   sodipodi:docname="logo-anielskie-kuligi.svg"
   inkscape:export-filename="/home/marek/js/work/KuligiBiesiady/logo/logo-anielskie-kuligi.png"
   inkscape:export-xdpi="254"
   inkscape:export-ydpi="254">
  <defs
     id="defs4">
    <linearGradient
       inkscape:collect="always"
       id="linearGradient4240">
      <stop
         style="stop-color:#ffffff;stop-opacity:1;"
         offset="0"
         id="stop4242" />
      <stop
         style="stop-color:#ffffff;stop-opacity:0;"
         offset="1"
         id="stop4244" />
    </linearGradient>
    <marker
       inkscape:stockid="Arrow1Mstart"
       orient="auto"
       refY="0"
       refX="0"
       id="Arrow1Mstart"
       style="overflow:visible">
      <path
         id="path3868"
         d="M 4.2666667,0 6.4,-2.1333333 -1.0666667,0 6.4,2.1333333 Z"
         style="fill-rule:evenodd;stroke:#000000;stroke-width:0.42666668pt"
         inkscape:connector-curvature="0" />
    </marker>
    <linearGradient
       id="linearGradient3768">
      <stop
         style="stop-color:#ff8400;stop-opacity:1;"
         offset="0"
         id="stop3770" />
      <stop
         id="stop3984"
         offset="0.44880623"
         style="stop-color:#ff8400;stop-opacity:1;" />
      <stop
         style="stop-color:#0098ff;stop-opacity:1;"
         offset="0.54067183"
         id="stop3986" />
      <stop
         style="stop-color:#0098ff;stop-opacity:1;"
         offset="1"
         id="stop3772" />
    </linearGradient>
    <linearGradient
       inkscape:collect="always"
       xlink:href="#linearGradient3768"
       id="linearGradient3774"
       x1="492.87964"
       y1="490.88312"
       x2="602.05096"
       y2="490.88312"
       gradientUnits="userSpaceOnUse"
       gradientTransform="matrix(1.0313736,0,0,1.0142925,-4.3422894,54.463111)" />
    <linearGradient
       inkscape:collect="always"
       xlink:href="#linearGradient3768"
       id="linearGradient4428"
       gradientUnits="userSpaceOnUse"
       gradientTransform="matrix(1.0313736,0,0,1.0142925,-4.3422894,54.463111)"
       x1="492.87964"
       y1="490.88312"
       x2="602.05096"
       y2="490.88312" />
    <mask
       maskUnits="userSpaceOnUse"
       id="mask4424">
      <rect
         style="fill:url(#linearGradient4428);fill-opacity:1;stroke:none"
         id="rect4426"
         width="625.10681"
         height="1000"
         x="-8.5096664"
         y="52.362183" />
    </mask>
    <linearGradient
       gradientUnits="userSpaceOnUse"
       y2="384.71753"
       x2="367.69553"
       y1="-4.2998338"
       x1="367.69553"
       id="linearGradient4111"
       xlink:href="#linearGradient4105"
       inkscape:collect="always" />
    <clipPath
       id="clipPath16201-1"
       clipPathUnits="userSpaceOnUse">
      <path
         id="path16203-7"
         d="M 0,800 H 800 V 0 H 0 Z"
         inkscape:connector-curvature="0" />
    </clipPath>
    <clipPath
       id="clipPath16201"
       clipPathUnits="userSpaceOnUse">
      <path
         id="path16203"
         d="M 0,800 H 800 V 0 H 0 Z"
         inkscape:connector-curvature="0" />
    </clipPath>
    <linearGradient
       id="linearGradient4105">
      <stop
         id="stop4107"
         offset="0"
         style="stop-color:#c8c8c8;stop-opacity:1;" />
      <stop
         style="stop-color:#969696;stop-opacity:1;"
         offset="0.5"
         id="stop4113" />
      <stop
         id="stop4109"
         offset="1"
         style="stop-color:#ffffff;stop-opacity:1;" />
    </linearGradient>
    <linearGradient
       inkscape:collect="always"
       xlink:href="#linearGradient4105"
       id="linearGradient4755"
       gradientUnits="userSpaceOnUse"
       x1="367.69553"
       y1="-4.2998338"
       x2="367.69553"
       y2="384.71753"
       gradientTransform="translate(-86.4511,-435.90096)" />
    <linearGradient
       inkscape:collect="always"
       xlink:href="#linearGradient4240"
       id="linearGradient4246"
       x1="1339.1313"
       y1="340.41724"
       x2="1379.4218"
       y2="340.41724"
       gradientUnits="userSpaceOnUse" />
    <filter
       inkscape:collect="always"
       id="filter3854">
      <feGaussianBlur
         inkscape:collect="always"
         stdDeviation="1.2445771"
         id="feGaussianBlur3856" />
    </filter>
  </defs>
  <sodipodi:namedview
     id="base"
     pagecolor="#ffffff"
     bordercolor="#666666"
     borderopacity="1.0"
     inkscape:pageopacity="0.0"
     inkscape:pageshadow="2"
     inkscape:zoom="2"
     inkscape:cx="333.91035"
     inkscape:cy="259.15642"
     inkscape:document-units="cm"
     inkscape:current-layer="layer1"
     showgrid="false"
     showguides="true"
     inkscape:guide-bbox="true"
     borderlayer="true"
     inkscape:window-width="1600"
     inkscape:window-height="837"
     inkscape:window-x="-8"
     inkscape:window-y="-8"
     inkscape:window-maximized="1"
     units="cm"
     width="42.33cm"
     inkscape:snap-page="true">
    <sodipodi:guide
       orientation="1,0"
       position="1173.3333,0"
       id="guide2985"
       inkscape:locked="false" />
  </sodipodi:namedview>
  <metadata
     id="metadata7">
    <rdf:RDF>
      <cc:Work
         rdf:about="">
        <dc:format>image/svg+xml</dc:format>
        <dc:type
           rdf:resource="http://purl.org/dc/dcmitype/StillImage" />
        <dc:title></dc:title>
      </cc:Work>
    </rdf:RDF>
  </metadata>
  <g
     inkscape:label="Layer 1"
     inkscape:groupmode="layer"
     id="layer1"
     transform="translate(0,-744.56703)">
    <path
       style="fill:#ffffff;fill-opacity:1;fill-rule:nonzero;stroke:#ffffff;stroke-width:1.77165353;stroke-miterlimit:4;stroke-opacity:1;stroke-dasharray:none;filter:url(#filter3854)"
       d="m 294.40076,723.16506 c -3.00202,0.0277 -6.70129,0.489 -10.64453,1.39258 -4.50656,1.03266 -8.47449,2.44674 -11.30078,3.93555 -1.41314,0.7444 -2.54041,1.50051 -3.32812,2.28906 -0.78771,0.78853 -1.31465,1.70132 -1.0918,2.67383 0.22284,0.97253 1.09401,1.56281 2.14648,1.92968 1.05246,0.36687 2.39593,0.55653 3.99219,0.61133 3.19257,0.10962 7.38016,-0.34433 11.88672,-1.37695 4.50656,-1.03266 8.47449,-2.44869 11.30078,-3.9375 1.41315,-0.7444 2.54432,-1.49858 3.33203,-2.28711 0.78771,-0.78854 1.3127,-1.70129 1.08985,-2.67383 -0.22284,-0.9725 -1.09207,-1.56283 -2.14454,-1.92969 -1.05248,-0.36687 -2.3998,-0.55848 -3.99609,-0.61328 -0.39907,-0.0137 -0.81333,-0.0176 -1.24219,-0.0137 z m 1.10938,1.19922 c 1.49932,0.0515 2.6916,0.38609 3.50586,0.66992 0.81425,0.28384 1.20007,0.69133 1.26953,1.03125 0.0675,0.33186 -0.17023,0.78852 -0.87305,1.28516 -0.70423,0.49764 -1.57698,0.96878 -2.90429,1.66797 -2.65465,1.39839 -6.52875,2.78885 -10.92774,3.79687 -4.39901,1.008 -8.49353,1.44279 -11.49219,1.33985 -1.49932,-0.0515 -2.27515,-0.0447 -3.24218,-0.25977 -0.84174,-0.18724 -1.22193,-0.40601 -1.3125,-0.7832 -0.10177,-0.42525 0.0761,-0.90362 0.68554,-1.51368 0.60943,-0.61007 1.5438,-1.39847 2.8711,-2.09765 2.65464,-1.39838 6.52873,-2.79083 10.92773,-3.79883 4.39899,-1.00802 8.49353,-1.44084 11.49219,-1.33789 z m 12.90039,8.70312 c -4.32679,2.77479 -11.24244,1.50479 -12.27734,2.9629 -1.03491,1.45807 3.05832,3.29175 3.10546,6.58398 5.45598,-0.18795 11.42817,-5.03298 16.93164,-3.99805 -3.10439,0.51744 -7.19501,2.25894 -9.40625,4.75196 8.67998,-1.2006 15.93288,3.86175 21.25977,11.85156 5.64384,8.46647 12.04018,12.22997 12.79297,17.68555 -3.669,-5.73833 -16.08503,-8.65325 -19.18945,-20.50586 -2.16339,15.14489 21.07106,20.64669 22.55273,30.94726 1.19919,-9.38322 -0.6697,-18.5805 -8.06641,-24.55078 1.8345,0.23499 3.19693,-0.28246 4.9375,-1.55273 -6.58483,0.235 -14.10985,-18.29692 -26.57422,-15.94532 0.98778,-1.34062 3.24572,-2.18733 5.78516,-2.75195 -6.20808,-3.10403 -14.15692,-0.35135 -18.06055,0.21289 2.22638,-1.53653 4.51591,-3.38696 6.20899,-5.69141 z m -15.09766,2.89844 c -0.0703,-0.009 -0.13358,-0.003 -0.18945,0.0176 -0.89349,0.32961 -0.6086,4.76258 -0.4707,6.44336 0.33631,-3.41219 4.84419,-4.18537 4.70312,7.19726 0.43305,-1.92805 1.13002,-4.18663 0.33008,-7.29101 -0.74928,-2.91037 -3.31835,-6.23414 -4.37305,-6.36719 z m -1.92968,0.91016 c -2.03042,1.12179 -5.51361,2.83194 -6.27344,5.19726 -0.90476,2.81559 4.88218,1.66682 6.08594,1.3418 -1.31703,-2.2109 -1.22344,-4.2814 0.1875,-6.53906 z m -14.20899,1.22656 c -0.53082,0.19938 0.99583,2.65518 1.54883,4.58008 0.55298,1.92488 1.92372,5.33211 3.53906,6.2168 -0.90722,-1.5485 -2.21124,-4.80083 -1.32617,-5.06641 0.88505,-0.26524 3.60472,1.90218 4.63086,2.98633 -1.09261,1.28292 -3.48047,7.45673 -4.69727,9.29297 -1.09858,1.65755 -1.02786,3.60127 -0.46679,5.55078 1.04793,3.64112 2.24603,8.70592 2.3125,13.8164 0.0661,5.11047 -1.00212,9.53395 -1.44922,11.40625 -0.42424,1.77774 1.26218,3.62682 2.05859,4.49024 0.86183,0.93347 1.29447,3.11729 2.5,3.42969 1.41658,0.36633 2.48977,-0.0331 4.64649,-0.26563 1.43804,-0.1541 2.47769,-1.34956 3.25195,-2.30078 0.77425,-0.9512 1.16793,-4.063 0.88476,-6.74805 -0.57796,1.02521 -0.56068,2.23835 -1.13476,3.21875 -0.74188,1.26665 -0.97491,0.0478 -0.74414,-0.69726 0.26452,-0.85337 0.50542,-2.32205 0.0195,-3.14063 -0.48649,-0.8186 -1.83147,-1.34576 -2.38867,-0.95117 -1.06165,0.75204 -0.0975,2.38368 -0.72656,3.22656 -0.68385,0.91595 -1.52362,1.50302 -1.48633,2.72461 0.0438,1.45997 -1.20742,2.25991 -1.76953,1.17188 -0.59907,-1.15901 -1.06137,-1.63626 -2.11914,-1.67969 -2.85956,-0.11906 -0.90477,-4.63977 -0.50586,-7.80859 0.41229,-3.276 0.43563,-5.50408 0.0586,-9.78125 -0.39785,-4.51346 -2.06441,-8.29526 -1.66797,-11.19141 0.23814,-1.73739 3.09332,-2.37234 3.2168,-3.23242 0.12305,-0.86008 -1.90293,0.0439 -2.30078,-0.79688 -0.39821,-0.84072 9.72875,-5.33681 8.25586,-11.91601 -1.30507,0.0233 -3.32149,0.5672 -4.43555,1.26758 -0.98777,-1.2312 -4.65966,-3.68086 -6.00977,-4.8125 -1.34974,-1.13166 -3.16449,-3.18934 -3.69531,-2.99024 z m 62.36914,0.56055 c -0.22876,0.004 -0.45261,0.0182 -0.66992,0.043 -0.78338,0.0895 -1.48993,0.32077 -2.0918,0.70703 -2.30519,1.48165 -2.33812,4.01504 -1.46679,6.70117 0.98532,3.03967 3.08843,6.29034 4.64257,8.68945 0.38237,0.59097 0.73358,1.13158 0.93164,1.44922 0.27051,0.4348 0.49623,0.81971 0.66016,1.15039 0.87978,1.77538 1.81311,3.76023 2.73828,5.86524 0.81998,1.86658 1.64418,3.85139 2.42969,5.89648 0.71411,1.85805 1.38166,3.72131 1.96875,5.53711 0.54666,1.69205 1.04236,3.39646 1.46484,5.08594 0.82947,3.31453 1.3676,6.71095 1.61914,10.1289 0.25503,3.46348 0.21791,6.94391 -0.10547,10.37891 -0.32432,3.43897 -0.93729,6.8428 -1.83007,10.14844 -0.87979,3.25662 -2.0347,6.42244 -3.46289,9.43554 -1.71418,3.61548 -3.8145,6.99892 -6.28711,10.04493 -2.30494,2.84023 -4.94778,5.38768 -7.9043,7.57617 -0.15337,-0.49762 -0.25195,-0.97085 -0.25195,-1.38086 0,-2.96383 2.53977,-4.56275 5.17382,-9.5957 2.63409,-5.03249 1.90555,-11.63886 -0.14257,-19.18946 -0.75279,-2.77565 -2.33719,-5.66126 -2.63477,-7.99609 -0.32856,-2.58722 0.37762,-6.72667 -1.55078,-10.06641 0.98812,4.60918 -0.65766,12.65363 -3.10352,9.59571 -0.37675,3.15155 3.84795,6.05841 4.60743,11.90039 0.75278,5.78523 -1.13489,10.76446 -5.40821,12.79296 -5.64454,2.68156 -14.81587,-3.73946 -19.00195,-3.90429 1.52845,1.85805 3.15092,5.43284 -1.03516,3.95117 4.95066,2.73068 10.81589,10.7052 18.89258,16.75977 -1.78778,0.9949 -3.66089,1.88028 -5.63867,2.61523 -0.34146,0.12685 -0.69799,0.23099 -1.04492,0.34961 0.24025,-2.51261 -1.03171,-8.38681 -3.88281,-9.18945 0.776,1.33973 2.15409,4.22669 1.47656,5.9414 -0.45309,1.14967 -2.00579,0.26709 -1.95899,-1.04297 0.0499,-1.40533 -0.55207,-2.37763 -0.85742,-3.55859 -0.12515,0.91992 -0.42561,4.37962 -1.82812,4.17578 -1.04864,-0.15176 -2.09552,-1.09359 -2.74805,-1.87109 -1.04197,-1.24143 -0.18565,-2.54389 -0.0254,-3.97071 0.27509,-2.4511 -2.9748,-6.5039 -4.35938,-8.38671 -1.85243,-2.51835 -1.41134,-4.44514 -0.2832,-5.64454 1.1292,-1.1994 1.02787,-2.2661 1.90625,-2.46875 0.52414,-0.12142 7.4733,3.17299 10.15625,3.91407 2.68297,0.74153 8.18628,1.27256 9.70313,0.53125 1.51685,-0.74015 2.69475,-4.53603 1.98242,-4.4375 -0.71303,0.0981 -1.98251,2.17984 -4.66406,2.56836 -3.4544,0.49988 -6.53867,-0.44949 -9.16993,-1.23633 -3.42169,-1.02266 -8.84614,-3.87263 -9.08007,-3.68164 -0.23393,0.19145 -0.37199,1.54567 -1.04493,2.76562 -0.67435,1.22065 -3.30931,3.13125 -2.1875,6.2793 0.91708,2.57579 3.46136,4.64355 4.19727,7.125 0.56952,1.9218 -2.15182,5.11538 -4.02149,4.375 -1.86967,-0.74131 -2.77024,-9.39544 -3.66796,-12.69922 -0.59837,-2.20245 -2.35256,-5.28992 -2.08204,-7.61914 0.17931,-1.54098 2.47057,-0.14051 4.26954,-0.21289 1.79895,-0.07 3.93462,-1.40887 6.02343,-1.64258 3.31793,-0.37194 6.887,-0.15665 9.81446,0.75977 -1.12884,-1.51718 -4.19602,-2.18584 -7.3711,-2.08008 -2.73574,0.091 -4.16297,-0.49388 -5.11523,-2.85742 3.91524,0.38851 7.45197,-0.61773 11.20117,-0.92383 1.6797,-0.13542 3.60843,-0.13958 5.07813,0.95312 1.4282,1.06351 2.48746,3.28597 3.93359,4.13282 1.41413,0.82769 0.39845,-5.31258 -0.87109,-6.37305 -0.85761,-0.71702 -2.26867,-0.50608 -2.51563,-1.03516 -0.4281,-0.91595 0.45969,-2.11727 0.42383,-3.38672 -2.35769,4.26487 -6.26358,4.89683 -10.85938,5.18946 -2.47861,-4.50462 -2.22576,-9.87445 -2.08789,-17.25196 0.14079,-7.54944 -1.70647,-12.32264 -4.9375,-18.27343 2.61086,7.97205 2.46144,13.03987 1.69141,19.7539 -1.05778,-1.23443 -2.15036,-2.36354 -3.45508,-2.96289 3.57422,6.00296 0.84664,14.38078 4.24024,18.49805 -1.4313,-0.17275 -2.83122,-0.31646 -4.13282,-0.0859 -2.31057,-3.22765 -2.23109,-8.04448 -1.30859,-10.50781 -1.04336,0.74341 -1.9561,1.82505 -2.40039,3.51758 -2.1131,-6.05726 4.5171,-15.62922 2.25976,-29.26953 -0.70566,2.18727 -1.76344,3.4088 -2.46875,4.44336 0.85763,4.23819 -0.91752,11.43055 -2.14062,16.79296 -1.22065,5.35306 -0.12207,10.48397 0.0469,11.11719 -2.2334,0.67826 -4.63179,2.44469 -6.8789,2.85352 -2.35231,0.42821 -6.93377,0.25249 -8.59766,0.86328 -1.66459,0.60916 -3.46589,4.98403 -2.9414,6.96094 0.36057,1.35934 2.56723,3.49651 4.46679,6.32421 1.24808,1.85876 2.20518,3.75082 2.43946,5.04688 0.16344,0.90194 0.13444,2.51812 0.59961,3.33203 0.79711,1.3946 2.37394,2.33141 3.47851,3.43555 1.27869,1.27879 1.30332,3.85485 2.48633,4.45117 1.46195,0.73687 2.76677,1.1844 3.97266,1.9668 1.30504,0.84684 5.99485,1.31995 6.91015,0.65429 0.32181,-0.23421 0.23599,-1.08201 -0.0215,-2.13476 2.03879,0.83221 4.25052,0.88062 5.98437,2.41211 1.73284,1.52978 3.00042,2.69959 5.21094,3.82031 0.75819,0.38412 1.77669,0.64299 2.81055,0.80273 -2.17375,0.55653 -4.43173,0.97681 -6.79688,1.20508 -0.54103,0.0514 -1.18523,0.0971 -1.90039,0.13672 -0.76615,0.0421 -1.48139,0.0699 -2.11914,0.084 -0.63706,0.0233 -1.35262,0.0233 -2.11914,0 -0.71656,0 -1.3631,-0.0268 -1.90625,-0.0547 -3.96025,-0.21247 -7.67654,-0.91467 -11.13867,-2.03516 -3.61975,-1.17185 -6.95194,-2.80088 -9.98633,-4.80859 -3.18353,-2.10626 -6.04021,-4.6275 -8.55469,-7.46875 -2.59994,-2.93815 -4.84178,-6.22868 -6.70898,-9.76758 -1.55591,-2.95006 -2.84525,-6.06307 -3.86328,-9.2793 -1.03314,-3.26363 -1.78944,-6.63689 -2.25977,-10.05859 -0.4703,-3.41865 -0.65771,-6.89402 -0.55078,-10.36524 0.1053,-3.42611 0.49818,-6.84271 1.18555,-10.18945 0.35002,-1.70607 0.77351,-3.43077 1.24804,-5.14453 0.50866,-1.83915 1.09465,-3.73019 1.72852,-5.61719 0.69793,-2.07683 1.43601,-4.09426 2.17578,-5.99414 0.83407,-2.14264 1.68286,-4.16458 2.48633,-5.97656 0.1499,-0.337 0.35945,-0.73169 0.61133,-1.17773 0.18398,-0.32611 0.51013,-0.88182 0.86718,-1.48829 1.44966,-2.46381 3.41243,-5.79824 4.26758,-8.87695 0.75559,-2.72132 0.61478,-5.25106 -1.75195,-6.63281 -0.61737,-0.36056 -1.33383,-0.56354 -2.12109,-0.61914 -0.87204,-0.0619 -1.83405,0.053 -2.84961,0.32422 -0.99165,0.26488 -2.03965,0.68373 -3.10938,1.24023 -1.0782,0.56108 -2.17318,1.26045 -3.24609,2.08008 -0.44181,0.3377 -0.86153,0.67728 -1.25586,1.01953 -0.3908,0.33877 -0.7946,0.71196 -1.20899,1.11719 -0.41261,0.40349 -0.79433,0.79911 -1.14257,1.18359 -0.36411,0.40138 -0.72712,0.82652 -1.08594,1.27149 -3.10827,3.85578 -5.80939,7.96603 -8.09766,12.25976 -2.33929,4.38858 -4.23644,8.95005 -5.6875,13.60547 -1.47603,4.73573 -2.49699,9.57906 -3.05664,14.44531 -0.56145,4.8847 -0.65876,9.79573 -0.28906,14.64844 0.43269,5.67037 1.50494,11.26192 3.22265,16.64648 1.67865,5.26342 3.97391,10.32538 6.88868,15.0625 2.81735,4.5779 6.21703,8.8583 10.20507,12.72852 l 0,0.008 c 3.83291,3.72055 8.21104,7.06086 13.13868,9.92383 2.14547,1.24681 4.29977,2.35723 6.45507,3.33203 2.18838,0.9895 4.40729,1.85197 6.64844,2.59375 2.25874,0.74761 4.5334,1.36575 6.81641,1.85742 2.30973,0.49757 4.61699,0.86223 6.91406,1.09961 1.27167,0.13078 2.50778,0.22188 3.7168,0.27539 1.25689,0.0536 2.4848,0.0719 3.6875,0.0488 1.20799,-0.0231 2.43164,-0.0833 3.67968,-0.18359 1.21011,-0.0978 2.44062,-0.23597 3.70313,-0.41406 2.31818,-0.3259 4.63953,-0.78289 6.95313,-1.375 2.29427,-0.58698 4.57131,-1.30261 6.82617,-2.15039 2.20457,-0.82863 4.41636,-1.79674 6.62304,-2.90625 2.1648,-1.08874 4.29579,-2.30082 6.38672,-3.63868 4.80099,-3.07123 9.03398,-6.59584 12.70508,-10.47656 3.8192,-4.03739 7.03306,-8.4599 9.65234,-13.1543 2.71006,-4.85668 4.78546,-10.01115 6.23829,-15.34179 1.48588,-5.45323 2.3182,-11.08759 2.50781,-16.77149 0.16251,-4.86439 -0.14396,-9.76488 -0.91406,-14.62109 -0.76651,-4.83893 -1.99337,-9.63402 -3.66993,-14.30273 -1.64876,-4.58912 -3.73704,-9.06466 -6.26172,-13.34961 -2.46978,-4.19172 -5.34322,-8.18271 -8.61328,-11.90235 -0.37745,-0.42917 -0.75805,-0.83906 -1.13867,-1.22461 -0.36479,-0.36937 -0.76419,-0.74761 -1.19336,-1.13281 -0.43161,-0.38765 -0.85062,-0.74259 -1.25586,-1.06445 -0.40878,-0.32503 -0.84325,-0.64719 -1.29883,-0.96485 -1.10668,-0.77355 -2.23027,-1.4248 -3.33203,-1.93945 -1.09226,-0.51041 -2.1576,-0.88545 -3.16015,-1.10742 -0.76958,-0.17073 -1.50512,-0.25493 -2.19141,-0.24414 z m 1.84766,2.83789 c 0.63564,-0.021 1.3215,0.10293 2.02539,0.35547 1.90484,0.68245 4.13276,2.36111 5.92187,4.54492 2.3773,2.90177 4.59171,5.96397 6.59961,9.16015 1.95517,3.11075 3.71986,6.35703 5.25782,9.7129 4.72782,10.31481 6.82315,21.29131 6.60156,32 -0.23115,11.19107 -2.99215,22.09841 -7.92188,31.6621 -4.27897,8.30174 -9.84948,14.9633 -16.22851,20.0586 -6.86414,5.48311 -14.65924,9.15142 -22.78907,11.09961 -3.84345,0.92085 -8.02668,1.47064 -12.24023,1.64062 -4.22548,0.17044 -8.46321,-0.0415 -12.40234,-0.64453 -8.67579,-1.32875 -17.12969,-4.5629 -24.66993,-9.83984 -6.98761,-4.8903 -13.18477,-11.53416 -18.04101,-20.04297 -5.33392,-9.34398 -8.55645,-20.12393 -9.26563,-31.29492 -0.67822,-10.68932 0.94567,-21.74452 5.22852,-32.25196 1.393,-3.4186 3.01817,-6.73647 4.83789,-9.92773 1.86969,-3.27887 3.94983,-6.43457 6.20117,-9.43555 1.69381,-2.25801 3.85106,-4.02997 5.72461,-4.79297 0.693,-0.28211 1.37023,-0.43578 2.00586,-0.4414 0.73874,-0.007 1.40642,0.18671 1.9668,0.60742 0.44711,0.33489 0.80289,0.79328 1.04492,1.38672 0.69228,1.69976 -0.94207,4.72986 -3.21875,8.94726 -0.96313,1.78417 -2.05218,3.79841 -3.13281,5.99805 -2.82192,5.74349 -5.20806,12.54366 -6.69922,19.46485 -1.3575,6.30403 -1.96768,12.68952 -1.48047,18.43554 1.22838,14.49462 5.63294,25.76908 11.94336,34.05469 7.10863,9.33417 16.65085,14.89168 26.79492,16.99023 3.43715,0.71142 7.54563,1.01576 11.6582,0.92774 4.11222,-0.0887 8.20174,-0.56648 11.60547,-1.42383 10.04488,-2.53048 19.3435,-8.49006 26.04688,-18.11914 5.95092,-8.54804 9.86994,-20.00132 10.47851,-34.53516 0.24131,-5.76165 -0.642,-12.11345 -2.26758,-18.35351 -1.78487,-6.85109 -4.46074,-13.5443 -7.52539,-19.16211 -1.17386,-2.15178 -2.34632,-4.11776 -3.38476,-5.85938 -2.45502,-4.11644 -4.21643,-7.07322 -3.59766,-8.80078 0.21643,-0.60329 0.55206,-1.0774 0.98438,-1.43164 0.54242,-0.44357 1.20019,-0.66412 1.9375,-0.68945 z m 0.0684,1.19922 c -0.86564,0.0211 -1.5346,0.43058 -1.85547,1.32617 -0.62616,1.74587 3.15037,6.79835 6.90625,13.68359 5.95692,10.91859 10.4523,25.80377 9.93555,38.13867 -1.31917,31.50782 -18.01683,48.87901 -37.4336,53.76954 -6.9978,1.76326 -16.73173,1.97011 -23.79883,0.50781 -19.60745,-4.05746 -37.03203,-20.69827 -39.69531,-52.1211 -1.04266,-12.30174 2.81399,-27.36677 8.29883,-38.52929 3.45898,-7.03967 7.01605,-12.24679 6.31641,-13.96485 -1.14889,-2.81944 -5.64869,-0.5142 -8.66407,3.50586 -4.38309,5.84258 -8.11249,12.28657 -10.88867,19.09766 -8.61069,21.1246 -6.29583,44.51534 3.9668,62.49609 9.89746,17.33961 25.46019,26.77889 41.84961,29.28907 7.73512,1.18445 16.60656,0.83852 24.18164,-0.97657 15.37421,-3.68436 29.52095,-13.64283 38.23047,-30.53906 9.4859,-18.40265 10.79983,-41.87142 1.29492,-62.60937 -3.06427,-6.6866 -7.06632,-12.96311 -11.69531,-18.61329 -2.18917,-2.67285 -5.04483,-4.50748 -6.94922,-4.46093 z m -42.22071,0.99609 c 1.22277,1.55201 1.90472,3.10495 1.76368,4.93945 6.63161,-0.70531 12.66628,11.09639 20.06054,17.9668 7.31334,6.79668 17.30802,10.72414 22.57617,18.25 -2.16341,-8.27814 -12.36965,-12.0876 -19.18945,-18.53125 -7.54411,-7.12761 -11.66524,-21.91934 -25.21094,-22.625 z m 52.72266,12.08203 c 0.13581,0.008 0.25081,0.0388 0.33594,0.0977 0.22795,0.1576 0.47762,0.40505 0.7207,0.6914 0.28317,0.33209 0.55807,0.71833 0.78711,1.08204 0.62793,0.99728 1.12168,2.105 1.40625,2.80468 0.2539,0.6279 0.25043,1.07195 0.0137,1.42969 -0.33488,0.50479 -2.08079,1.29302 -2.625,1.29102 -0.34897,-0.001 -0.79411,-0.0979 -1.17578,-0.74024 -0.34332,-0.57762 -0.77366,-1.38162 -1.17187,-2.17383 -0.61245,-1.21783 -1.15145,-2.41188 -1.18555,-2.72461 -0.044,-0.40067 0.60543,-0.94039 1.34765,-1.3164 0.54456,-0.27653 1.13946,-0.46445 1.54688,-0.44141 z m -53.84766,0.35547 c 0.34827,2.75438 -0.54122,5.00502 -3.51757,4.72852 0.61385,-0.53082 1.17729,-0.71397 1.99023,-0.9961 -2.75262,-0.55018 -4.09843,1.65917 -3.88281,4.11524 0.39823,-0.71373 0.83021,-1.24364 1.46093,-1.79102 0.0331,0.54738 -0.0996,1.0773 -0.39843,1.625 1.22767,0.0163 2.58633,-0.58061 3.15234,-2.05664 0.5477,0.54736 0.76352,1.52675 0.46485,2.47266 1.65933,-2.3727 1.79246,-5.45936 0.73046,-8.09766 z m -39.82617,1.64649 c 0.40597,-0.0405 1.0083,0.12037 1.56445,0.37304 0.75736,0.34405 1.42943,0.8577 1.40235,1.25977 -0.021,0.31414 -0.50871,1.52902 -1.06836,2.77148 -0.3641,0.80906 -0.75816,1.62901 -1.07617,2.22071 -0.35389,0.65812 -0.79556,0.7749 -1.14453,0.79101 -0.54347,0.0257 -2.32176,-0.68772 -2.67774,-1.17773 -0.25221,-0.34756 -0.27499,-0.78996 -0.0469,-1.42774 0.25398,-0.71128 0.6989,-1.84067 1.2832,-2.86328 0.21388,-0.3736 0.47381,-0.77121 0.74219,-1.11523 0.23138,-0.29654 0.46819,-0.55398 0.68945,-0.72071 0.0827,-0.0625 0.19671,-0.0978 0.33203,-0.11132 z m 43.07813,4.12695 c 1.19461,8.66126 -3.21902,10.71868 -3.88282,10.35351 -0.70845,-0.38945 -0.62476,-2.12328 -0.59765,-2.91992 -1.41697,3.89333 -2.12414,7.40064 -1.22852,11.78125 0.39855,-5.01102 10.05583,-8.39667 5.70899,-19.21484 z m -7.93946,3.63086 c -0.56424,0.0297 -1.24883,1.71301 -1.60937,3.0957 -0.5326,2.04064 -1.12933,7.71865 -0.85742,11.67969 0.93115,-8.08341 2.40199,-11.13902 2.77734,-11.76172 0.37497,-0.6227 0.25403,-3.04407 -0.31055,-3.01367 z m 66.9375,12.72461 c 0.58813,0.005 1.10279,0.12129 1.2793,0.37695 0.15831,0.22742 0.30337,0.54471 0.42969,0.89844 0.14748,0.4114 0.26957,0.87106 0.35547,1.29297 0.23426,1.1541 0.30356,2.36577 0.32226,3.12109 0.0165,0.67711 -0.14364,1.0908 -0.49218,1.3418 -0.49109,0.35301 -2.40578,0.47113 -2.91407,0.27734 -0.32611,-0.12515 -0.70784,-0.37172 -0.83789,-1.10742 -0.11621,-0.66169 -0.23397,-1.56516 -0.32617,-2.44727 -0.14299,-1.35583 -0.22343,-2.66232 -0.14453,-2.96679 0.0999,-0.39038 0.89723,-0.66716 1.72461,-0.75586 0.20245,-0.0219 0.40747,-0.0329 0.60351,-0.0312 z m -109.50976,2.33984 c 0.1958,-0.01 0.39832,-0.009 0.60156,0.004 0.8302,0.0537 1.641,0.29812 1.75781,0.68359 0.0916,0.3012 0.065,1.60848 -0.0195,2.96875 -0.0549,0.88514 -0.13416,1.79307 -0.22265,2.45899 -0.0981,0.74013 -0.46858,1.0056 -0.78907,1.14453 -0.49951,0.2148 -2.41601,0.17958 -2.92187,-0.1543 -0.35914,-0.23583 -0.53618,-0.64368 -0.54883,-1.32031 -0.014,-0.75531 0.005,-1.96765 0.18945,-3.13086 0.0675,-0.42541 0.16946,-0.88988 0.29883,-1.30664 0.1116,-0.35887 0.24288,-0.68378 0.39063,-0.91797 0.16566,-0.26337 0.67626,-0.39971 1.26367,-0.42969 z m 109.73828,20.78711 c 0.13412,-0.006 0.27774,-0.002 0.42578,0.008 0.19739,0.0138 0.40322,0.0429 0.60742,0.082 0.79959,0.1534 1.57361,0.48511 1.69922,0.88086 0.0841,0.26384 0.12779,0.61066 0.14649,0.98633 0.0208,0.43544 0.003,0.90945 -0.0391,1.33789 -0.11399,1.17325 -0.40257,2.35186 -0.60547,3.08008 -0.18293,0.65142 -0.45662,1.00092 -0.86328,1.13867 -0.57304,0.19496 -2.43803,-0.2509 -2.86718,-0.58594 -0.27517,-0.21458 -0.56757,-0.5636 -0.47657,-1.30468 0.082,-0.66659 0.23433,-1.56443 0.4043,-2.43555 0.26101,-1.3374 0.56392,-2.61042 0.72852,-2.87891 0.11793,-0.19437 0.43747,-0.29054 0.83984,-0.30859 z m -108.84766,2.33398 c 0.34065,0.0166 0.60654,0.0987 0.71875,0.26563 0.17558,0.26174 0.53427,1.51874 0.85157,2.84375 0.20686,0.86295 0.39703,1.7534 0.50781,2.41601 0.12281,0.73713 -0.15401,1.09947 -0.41992,1.32618 -0.41438,0.35302 -2.25871,0.87803 -2.83985,0.70898 -0.41187,-0.12129 -0.70019,-0.45908 -0.91015,-1.10156 l 0,-0.002 c -0.23391,-0.7183 -0.57288,-1.8829 -0.73633,-3.04883 -0.0598,-0.42563 -0.0994,-0.89932 -0.0977,-1.33594 0.002,-0.37543 0.0329,-0.72532 0.10547,-0.99219 0.1088,-0.39997 0.86762,-0.76563 1.66016,-0.95312 0.40472,-0.0957 0.81951,-0.14359 1.16015,-0.12696 z m 47.6543,1.35743 c 1.51708,0.0806 2.45507,1.2713 3.27148,2.71093 -0.81588,0.34553 -1.58242,0.88661 -2.26953,1.76953 -1.11829,1.43756 -2.26506,2.90006 -3.1582,4.49219 -0.70535,1.25887 -0.2744,2.12102 0.11133,3.42188 -2.05783,-1.32288 -3.68319,-3.40681 -6.05274,-2.66211 0.84638,0 1.86937,0.56485 2.45118,1.2793 0.62194,0.76325 1.11042,1.78993 2.26562,2.95898 0.82894,0.83826 1.68821,1.57534 2.51758,2.34375 0.60527,2.00343 1.17859,4.0158 1.54883,6.06836 0.12078,0.66976 0.21907,1.55363 0.3457,2.51367 -0.13515,-0.0531 -0.26929,-0.11032 -0.41602,-0.13476 l 0,-0.002 c -0.4267,-0.07 -2.45403,-0.0254 -3.09179,-0.0254 -0.63776,0 -0.38832,-1.69195 -1.24805,-2.63476 -1.32303,-1.44993 -5.24258,-7.0471 -6.21875,-11.84961 -0.68773,1.53025 -1.77068,2.47366 -3.19922,2.63476 2.31643,1.78053 7.65487,7.84671 6.98438,9.64453 -0.48086,1.28742 -1.67177,1.92642 -1.00586,2.31446 0.53223,0.31007 2.2126,0.27249 2.94922,0.64257 0.60047,0.30095 0.57301,1.79837 1.13867,2.16797 0.6937,0.4525 1.83446,-0.32997 2.35156,-0.89453 0.89351,2.35164 -0.75438,4.35125 -2.11328,3.10352 -0.7658,-0.70348 -1.13705,-1.77496 -2.21875,-1.80274 -1.08171,-0.028 -2.21925,-0.13027 -2.68359,-1.59375 -0.50585,-1.59562 -3.00832,-1.97112 -3.5293,-3.98047 -0.65113,-2.51438 -1.23149,-5.25325 -2.55274,-7.51757 -1.27695,-2.18867 -3.42652,-4.02999 -4.49414,-6.31836 -0.78833,-1.68901 0.69433,-4.72215 1.85938,-5.30469 0.74294,-0.37147 3.67365,-0.3723 4.38281,0.084 0.82736,0.53187 0.25019,1.66112 0.084,2.60743 -0.27754,1.58138 0.83184,3.38435 -0.21094,4.87304 2.76247,-0.98951 3.3168,-6.14793 8.18359,-5.83203 -0.54033,-0.89914 -4.83067,0.35545 -5.08008,-2.35156 3.31898,0.39832 6.32442,-2.07762 7.67383,-2.51563 0.52647,-0.17073 0.99815,-0.23355 1.42383,-0.21093 z m 55.81445,15.58203 c 0.39247,-0.0166 0.98079,0.20308 1.51953,0.51758 0.7039,0.41163 1.3226,0.98399 1.3086,1.39843 -0.009,0.27691 -0.0813,0.61826 -0.18946,0.97852 -0.12629,0.41793 -0.3003,0.86055 -0.48242,1.25 -0.49776,1.06795 -1.1616,2.08266 -1.5957,2.70117 l -0.002,0 c -0.38908,0.55334 -0.7626,0.78711 -1.19141,0.78711 -0.6054,-0.007 -2.21443,-1.04902 -2.50781,-1.50781 -0.18747,-0.29441 -0.34911,-0.72216 -0.0156,-1.39063 0.29901,-0.60145 0.74078,-1.39746 1.19141,-2.16211 0.69124,-1.17419 1.40467,-2.27224 1.64844,-2.4707 0.0782,-0.0635 0.18558,-0.096 0.3164,-0.10156 z m -97.40429,2.08008 c 0.13095,-3e-5 0.24144,0.0276 0.32226,0.0879 0.25223,0.18678 1.00883,1.25483 1.75,2.39843 0.48228,0.74434 0.95851,1.5217 1.2832,2.10938 0.36126,0.65515 0.22,1.08608 0.0449,1.38867 -0.27334,0.47023 -1.83709,1.58013 -2.44141,1.61328 -0.42882,0.0233 -0.81198,-0.19932 -1.22461,-0.73633 l -0.002,0 c -0.46009,-0.59888 -1.16656,-1.58313 -1.70899,-2.6289 -0.19869,-0.38174 -0.39358,-0.8162 -0.53711,-1.22852 -0.12374,-0.35467 -0.20992,-0.69255 -0.23046,-0.96875 -0.031,-0.41397 0.56313,-1.01253 1.24804,-1.45312 0.52476,-0.33762 1.10323,-0.58195 1.4961,-0.58203 z m 87.89062,14.20117 c 0.39095,0.0115 0.9717,0.46556 1.44727,1.01758 0.53152,0.61616 0.93052,1.35679 0.7832,1.74414 -0.0981,0.25939 -0.27662,0.5603 -0.49609,0.86523 -0.25504,0.3542 -0.56391,0.71579 -0.86328,1.02539 -0.81681,0.84777 -1.77604,1.59085 -2.38672,2.03516 -0.5484,0.39793 -0.97987,0.50023 -1.38477,0.35547 -0.56952,-0.20359 -1.75314,-1.71117 -1.88086,-2.24024 -0.0823,-0.33948 -0.0954,-0.79442 0.4375,-1.31836 0.47771,-0.47163 1.15378,-1.08173 1.82813,-1.6582 1.03525,-0.88583 2.06582,-1.69299 2.36132,-1.80273 0.0472,-0.0173 0.0985,-0.0251 0.1543,-0.0234 z m -77.68945,1.66015 c 0.0558,-0.004 0.10823,3.4e-4 0.15625,0.0156 0.2997,0.0958 1.36104,0.86016 2.43359,1.70117 0.69791,0.54705 1.39998,1.12774 1.89844,1.57813 0.55368,0.50129 0.56167,0.95583 0.49414,1.29882 -0.10502,0.53327 -1.22512,2.09001 -1.78516,2.31836 -0.3982,0.1611 -0.83419,0.0774 -1.39843,-0.29687 -0.62968,-0.41677 -1.61768,-1.11912 -2.47071,-1.93164 -0.31167,-0.29699 -0.63644,-0.64334 -0.90625,-0.98633 -0.23255,-0.29582 -0.4238,-0.58972 -0.5332,-0.84375 -0.16322,-0.38128 0.20226,-1.13909 0.70703,-1.7793 0.45093,-0.571 1.01372,-1.04598 1.4043,-1.07422 z"
       id="path16345-4-6-7"
       inkscape:connector-curvature="0"
       inkscape:export-filename="C:\Users\Marek\js\KuligiBiesiady\logo\logo-kon.png"
       inkscape:export-xdpi="449.93079"
       inkscape:export-ydpi="449.93079" />
    <path
       style="font-size:medium;font-style:normal;font-variant:normal;font-weight:normal;font-stretch:normal;text-align:start;line-height:1.25;letter-spacing:0px;word-spacing:0px;writing-mode:lr-tb;text-anchor:start;fill:#ffffff;fill-opacity:1;stroke:#ffffff;stroke-width:1.77165353;stroke-miterlimit:4;stroke-opacity:1;stroke-dasharray:none;filter:url(#filter3854);font-family:ShangriLaNF;-inkscape-font-specification:'ShangriLaNF, Normal'"
       d="m 456.91053,875.50295 c -2.05369,0.46281 -3.67345,1.83797 -4.85938,4.12305 -1.0413,1.9669 -1.5625,4.09187 -1.5625,6.37695 l 0,17.0957 c 0,0.52067 -0.18842,1.01181 -0.56445,1.47461 -0.34711,0.4628 -0.78013,0.69336 -1.30078,0.69336 -0.14463,0 -0.2168,0.0722 -0.2168,0.2168 0,0.14467 0.0722,0.21875 0.2168,0.21875 l 6.72461,0 c 0.14463,0 0.2168,-0.0741 0.2168,-0.21875 0,-0.1446 -0.0722,-0.2168 -0.2168,-0.2168 -0.52065,0 -0.96968,-0.23056 -1.3457,-0.69336 -0.34711,-0.4628 -0.51954,-0.95394 -0.51954,-1.47461 l 0,-19.74218 c 0,-3.32639 1.20078,-5.81416 3.60157,-7.46289 0.0868,-0.0868 0.11487,-0.173 0.0859,-0.25977 -0.0289,-0.0868 -0.11513,-0.13086 -0.25976,-0.13086 z M 169.516,882.37014 c -0.0506,-0.0217 -0.11831,-0.0121 -0.20508,0.0312 -1.79336,0.75205 -3.26878,2.44591 -4.42578,5.07812 l -6.72461,15.22852 c -0.28925,0.63633 -0.72423,1.21371 -1.30274,1.73437 -0.5785,0.49174 -1.17187,0.73829 -1.77929,0.73829 -0.17355,0 -0.25977,0.0862 -0.25977,0.25976 0,0.14467 0.0862,0.2168 0.25977,0.2168 l 8.11523,0 c 0.17355,0 0.25977,-0.0721 0.25977,-0.2168 0,-0.17353 -0.0862,-0.25976 -0.25977,-0.25976 l -0.69531,0 c -1.61981,0 -2.55999,-0.78182 -2.82031,-2.34375 1.18593,-1.67767 2.96603,-2.51563 5.33789,-2.51563 1.59088,0 2.95004,0.41901 4.07812,1.25781 0.6942,0.5496 1.14128,0.96855 1.34375,1.25782 0.28925,0.40493 0.43555,0.79587 0.43555,1.17187 0,0.75233 -0.44903,1.14321 -1.3457,1.17188 -0.20248,0.0289 -0.30469,0.11516 -0.30469,0.25976 0,0.14467 0.10221,0.2168 0.30469,0.2168 l 8.98046,0 c 0.14463,0 0.2168,-0.0721 0.2168,-0.2168 0,-0.17353 -0.0722,-0.25976 -0.2168,-0.25976 l -0.25976,0 c -0.5785,0 -1.12779,-0.26059 -1.64844,-0.78125 -0.52065,-0.5206 -0.91155,-1.08394 -1.17187,-1.69141 l -6.42188,-15.22852 c -0.3471,-0.83886 -0.51953,-1.69279 -0.51953,-2.56054 0,-1.07023 0.33277,-1.76386 0.99805,-2.08203 0.14463,-0.0289 0.18676,-0.13114 0.1289,-0.30469 -0.0145,-0.0868 -0.047,-0.14042 -0.0977,-0.16211 z m 240.34961,1.37109 c -0.86685,0.0506 -1.57796,0.54402 -2.13477,1.48047 -1.33055,-0.80991 -2.79193,-1.21484 -4.38281,-1.21484 -2.42971,0 -4.58472,0.85396 -6.46484,2.56054 -2.45864,2.25613 -3.6875,5.14887 -3.6875,8.67774 -1e-5,2.54547 0.72366,4.8167 2.16992,6.8125 1.90905,2.69007 4.43895,4.03516 7.59179,4.03516 3.18176,0 5.6555,-1.20077 7.41993,-3.60157 0.1157,-0.60746 0.24599,-1.01237 0.39062,-1.21484 0.26033,-0.34707 0.78152,-0.60765 1.5625,-0.78125 0.14463,-0.0578 0.20081,-0.18816 0.17188,-0.39063 0,-0.1736 -0.0862,-0.25976 -0.25977,-0.25976 l -7.28906,0 c -0.11569,0 -0.2019,0.0862 -0.25977,0.25976 0,0.20227 0.0722,0.33263 0.2168,0.39063 1.21485,0.34713 1.82226,1.0407 1.82226,2.08203 0,0.6942 -0.30468,1.25949 -0.9121,1.69336 -0.60743,0.40467 -1.27102,0.59117 -1.99415,0.5625 -1.53303,-0.0289 -2.93628,-0.96911 -4.20898,-2.82031 -1.50411,-2.11154 -2.25586,-4.69956 -2.25586,-7.76563 0,-2.02473 0.40494,-3.87507 1.21484,-5.55273 1.01238,-2.11153 2.41368,-3.25418 4.20704,-3.42774 1.47518,-0.17354 2.706,0.60631 3.68945,2.3418 0.63635,1.12807 0.95312,2.22661 0.95312,3.29688 0,0.66526 -0.14434,1.25863 -0.43359,1.77929 -0.2314,0.34707 -0.492,0.52149 -0.78125,0.52149 -0.20247,-0.0289 -0.36086,-0.13116 -0.47656,-0.30469 -0.0868,-0.17353 -0.0727,-0.37602 0.043,-0.60742 0.14462,-0.2314 0.0584,-0.34571 -0.25977,-0.34571 -1.04132,0.20247 -1.53248,0.66359 -1.47461,1.38672 0.0579,0.8388 0.6793,1.25977 1.86524,1.25977 1.33055,0 2.40103,-0.70962 3.21093,-2.12695 0.3471,-0.63634 0.51953,-1.40217 0.51953,-2.29883 0,-0.37607 -0.10026,-1.30221 -0.30273,-2.77735 -0.20247,-1.27272 0.15838,-2.35722 1.08398,-3.2539 0.0868,-0.0579 0.10084,-0.13003 0.043,-0.2168 -0.0289,-0.1157 -0.10109,-0.17383 -0.21679,-0.17383 -0.13017,-0.0108 -0.25703,-0.0131 -0.38086,-0.006 z m -154.57813,0.26563 c -2.25615,0 -4.36708,0.56528 -6.33398,1.69336 -2.25616,1.27269 -3.52911,2.93461 -3.81836,4.98828 -0.0579,0.405 -0.0859,0.79587 -0.0859,1.17187 0,1.8512 0.7658,3.26849 2.29883,4.25196 0.92561,0.6074 2.58945,1.22883 4.99023,1.86523 1.79336,0.4628 3.05031,0.8978 3.77344,1.30274 1.41733,0.781 2.05478,1.82144 1.91016,3.12304 -0.11571,0.8388 -0.59282,1.5184 -1.43164,2.03906 -0.83883,0.52067 -1.86523,0.78125 -3.08008,0.78125 -1.56196,0 -2.96521,-0.40491 -4.20899,-1.21484 -1.35948,-0.89667 -2.16936,-2.08151 -2.42968,-3.55664 l -1.38868,0.12891 c 1.12808,2.7768 1.99609,4.85964 2.60352,6.24804 l 1.04102,-1.08398 c 1.157,0.4628 2.38586,0.69336 3.6875,0.69336 2.14045,0 3.99272,-0.57731 5.55468,-1.73438 1.47518,-1.0702 2.25503,-2.57567 2.3418,-4.51367 0.1157,-1.93793 -0.59197,-3.41338 -2.125,-4.42578 -0.89667,-0.6074 -2.5024,-1.22883 -4.81641,-1.86523 -1.99583,-0.52067 -3.34095,-0.98374 -4.03515,-1.38868 -1.21486,-0.6942 -1.77819,-1.66245 -1.69141,-2.90625 0.0868,-1.24373 0.70823,-2.24207 1.86524,-2.99414 1.0413,-0.66528 2.25612,-0.99804 3.64453,-0.99804 1.5041,0 2.77706,0.42093 3.81836,1.25976 1.12808,0.92558 1.6914,2.12441 1.6914,3.59961 0,0.376 -0.0441,0.73881 -0.13086,1.08594 l 0.4336,0.2168 c 0.86775,-1.33054 1.85202,-2.83602 2.95117,-4.51368 -1.35948,-2.16938 -3.70291,-3.2539 -7.0293,-3.2539 z m -43.76953,0.0859 c -0.17355,-10e-6 -0.25976,0.10221 -0.25976,0.30468 0,0.14463 0.0862,0.2168 0.25976,0.2168 l 0.43555,0 c 1.07023,0 1.60547,0.5052 1.60547,1.51758 l 0,16.61914 c 0,0.63633 -0.21847,1.22774 -0.65235,1.77734 -0.40495,0.52067 -0.91015,0.78125 -1.51758,0.78125 l -0.47851,0 c -0.20248,0 -0.30274,0.0862 -0.30274,0.25977 0,0.17353 0.10026,0.26172 0.30274,0.26172 l 14.62305,0 c 0.37602,-0.17354 0.70879,-0.56448 0.99804,-1.17188 0.2314,-0.49173 0.34571,-0.91068 0.34571,-1.25781 0,-1.44627 -0.95423,-2.56086 -2.86329,-3.3418 -0.0868,-0.0287 -0.18703,0.001 -0.30273,0.0879 -0.0579,0.14454 -0.0579,0.24474 0,0.30274 0.43387,0.4628 0.65039,0.96999 0.65039,1.51953 0,0.89666 -0.50716,1.63436 -1.51953,2.21289 -0.89668,0.52067 -1.83686,0.78125 -2.82031,0.78125 -1.76444,0 -2.64649,-0.73769 -2.64649,-2.21289 l 0,-3.60156 2.60352,0 c 1.18592,0 2.08397,0.54923 2.6914,1.64843 0.0579,0.0867 0.14407,0.11656 0.25977,0.0879 0.1157,-0.0289 0.17383,-0.10113 0.17383,-0.21679 l 0,-4.20899 c 0,-0.11593 -0.0581,-0.18813 -0.17383,-0.21679 -0.11568,-0.0287 -0.2019,-8e-4 -0.25977,0.0859 -0.37602,0.6364 -0.6807,1.02728 -0.9121,1.17188 -0.40495,0.3182 -0.99832,0.47656 -1.7793,0.47656 l -2.60352,0 0,-11.49609 c 0,-0.98346 0.56528,-1.47657 1.69336,-1.47657 l 0.82422,0 c 1.07023,0 2.01041,0.16035 2.82031,0.47852 1.12808,0.40495 1.69141,1.05447 1.69141,1.95117 0,0.43387 -0.10026,0.79667 -0.30274,1.08594 -0.0868,0.11567 -0.0727,0.21593 0.043,0.30273 0.0868,0.0867 0.173,0.0867 0.25977,0 1.64873,-1.1281 2.57487,-2.6035 2.77734,-4.42578 0.0579,-0.20247 -0.0143,-0.30468 -0.21679,-0.30468 l -15.44727,0 z m 84.26367,0 c -0.17355,-10e-6 -0.25976,0.10221 -0.25976,0.30468 0,0.14463 0.0862,0.2168 0.25976,0.2168 l 0.4336,0 c 1.07022,0 1.60546,0.5052 1.60547,1.51758 l 0,16.61914 c -1e-5,0.63633 -0.21652,1.22774 -0.6504,1.77734 -0.40494,0.52067 -0.9121,0.78125 -1.51953,0.78125 l -0.47656,0 c -0.20247,0 -0.30469,0.0862 -0.30469,0.25977 0,0.17353 0.10222,0.26172 0.30469,0.26172 l 14.62109,0 c 0.37603,-0.17354 0.7088,-0.56448 0.99805,-1.17188 0.2314,-0.49173 0.34766,-0.91068 0.34766,-1.25781 0,-1.44627 -0.95422,-2.56086 -2.86328,-3.3418 -0.0868,-0.0287 -0.18899,0.001 -0.30469,0.0879 -0.0579,0.14454 -0.0579,0.24474 0,0.30274 0.43387,0.4628 0.65039,0.96999 0.65039,1.51953 0,0.89666 -0.50521,1.63436 -1.51758,2.21289 -0.89668,0.52067 -1.83686,0.78125 -2.82031,0.78125 -1.76443,0 -2.64649,-0.73769 -2.64649,-2.21289 l 0,-3.60156 2.60352,0 c 1.18593,0 2.08203,0.54923 2.68945,1.64843 0.0579,0.0867 0.14407,0.11656 0.25977,0.0879 0.1157,-0.0289 0.17383,-0.10113 0.17383,-0.21679 l 0,-4.20899 c 0,-0.11593 -0.0581,-0.18813 -0.17383,-0.21679 -0.11569,-0.0287 -0.2019,-8e-4 -0.25977,0.0859 -0.37602,0.6364 -0.6807,1.02728 -0.91211,1.17188 -0.40494,0.3182 -0.99636,0.47656 -1.77734,0.47656 l -2.60352,0 0,-11.49609 c 0,-0.98346 0.56333,-1.47657 1.69141,-1.47657 l 0.82422,0 c 1.07023,0 2.01041,0.16035 2.82031,0.47852 1.12808,0.40495 1.69336,1.05447 1.69336,1.95117 0,0.43387 -0.10221,0.79667 -0.30469,1.08594 -0.0868,0.11567 -0.0727,0.21593 0.043,0.30273 0.0868,0.0867 0.17495,0.0867 0.26172,0 1.64873,-1.1281 2.57292,-2.6035 2.77539,-4.42578 0.0579,-0.20247 -0.0143,-0.30468 -0.2168,-0.30468 l -15.44531,0 z m -96.28711,0.002 c -0.14462,0 -0.21875,0.10026 -0.21875,0.30273 0,0.14463 0.0741,0.2168 0.21875,0.2168 l 0.47657,0 c 1.07022,0 1.60546,0.50715 1.60546,1.51953 l 0,16.61719 c 0,0.63633 -0.21651,1.2297 -0.65039,1.7793 -0.43387,0.52066 -0.96911,0.78124 -1.60546,0.78124 l -0.47852,0 c -0.14463,0 -0.2168,0.0862 -0.2168,0.25977 0,0.17353 0.0722,0.25977 0.2168,0.25977 l 9.24219,0 c 0.17355,0 0.25976,-0.0862 0.25976,-0.25977 0,-0.17353 -0.0862,-0.25977 -0.25976,-0.25977 l -0.47657,0 c -0.60742,0 -1.12862,-0.26058 -1.5625,-0.78124 -0.43387,-0.5496 -0.65039,-1.14297 -0.65039,-1.7793 l 0,-16.61719 c 0,-1.01238 0.53524,-1.51953 1.60547,-1.51953 l 0.47657,0 c 0.17355,0 0.25976,-0.0722 0.25976,-0.2168 0,-0.20247 -0.0862,-0.30273 -0.25976,-0.30273 l -7.98243,0 z m 84.78711,0 c -0.14462,0 -0.21679,0.10026 -0.21679,0.30273 0,0.14463 0.0722,0.2168 0.21679,0.2168 l 0.47657,0 c 1.07022,0 1.60546,0.50715 1.60546,1.51953 l 0,16.61719 c 0,0.63633 -0.21651,1.2297 -0.65039,1.7793 -0.43387,0.52066 -0.96911,0.78124 -1.60547,0.78124 l -0.47656,0 c -0.14462,0 -0.2168,0.0862 -0.2168,0.25977 0,0.17353 0.0722,0.25977 0.2168,0.25977 l 9.24219,0 c 0.17355,0 0.25977,-0.0862 0.25977,-0.25977 -1e-5,-0.17353 -0.0862,-0.25977 -0.25977,-0.25977 l -0.47852,0 c -0.60742,0 -1.12862,-0.26058 -1.5625,-0.78124 -0.43388,-0.5496 -0.65039,-1.14297 -0.65039,-1.7793 l 0,-16.61719 c 0,-1.01238 0.53525,-1.51953 1.60547,-1.51953 l 0.47852,0 c 0.17354,0 0.25976,-0.0722 0.25976,-0.2168 0,-0.20247 -0.0862,-0.30273 -0.25976,-0.30273 l -7.98438,0 z m 99.33594,0 c -0.14463,0 -0.2168,0.10026 -0.2168,0.30273 0,0.14463 0.0722,0.2168 0.2168,0.2168 l 0.47656,0 c 1.07024,0 1.60547,0.50715 1.60547,1.51953 l 0,16.61719 c 0,0.63633 -0.21651,1.2297 -0.65039,1.7793 -0.43387,0.52066 -0.96911,0.78124 -1.60547,0.78124 l -0.47851,0 c -0.14463,0 -0.2168,0.0862 -0.2168,0.25977 0,0.17353 0.0722,0.25977 0.2168,0.25977 l 9.24218,0 c 0.17356,0 0.25977,-0.0862 0.25977,-0.25977 0,-0.17353 -0.0862,-0.25977 -0.25977,-0.25977 l -0.47656,0 c -0.60743,0 -1.12862,-0.26058 -1.5625,-0.78124 -0.43387,-0.5496 -0.65039,-1.14297 -0.65039,-1.7793 l 0,-16.61719 c 0,-1.01238 0.53524,-1.51953 1.60547,-1.51953 l 0.47656,0 c 0.17355,0 0.25977,-0.0722 0.25977,-0.2168 0,-0.20247 -0.0862,-0.30273 -0.25977,-0.30273 l -7.98242,0 z m 30.33203,0 c -0.14463,0 -0.2168,0.10026 -0.2168,0.30273 0,0.14463 0.0722,0.2168 0.2168,0.2168 l 0.47656,0 c 1.07023,0 1.60547,0.50715 1.60547,1.51953 l 0,16.61719 c 0,0.63633 -0.21651,1.2297 -0.65039,1.7793 -0.43388,0.52066 -0.96912,0.78124 -1.60547,0.78124 l -0.47851,0 c -0.14463,0 -0.2168,0.0862 -0.2168,0.25977 0,0.17353 0.0722,0.25977 0.2168,0.25977 l 9.24218,0 c 0.17356,0 0.25977,-0.0862 0.25977,-0.25977 0,-0.17353 -0.0862,-0.25977 -0.25977,-0.25977 l -0.47656,0 c -0.60742,0 -1.12862,-0.26058 -1.5625,-0.78124 -0.43387,-0.5496 -0.65039,-1.14297 -0.65039,-1.7793 l 0,-16.61719 c 0,-1.01238 0.53524,-1.51953 1.60547,-1.51953 l 0.47656,0 c 0.17356,0 0.25977,-0.0722 0.25977,-0.2168 0,-0.20247 -0.0862,-0.30273 -0.25977,-0.30273 l -7.98242,0 z m -184.79101,0.043 c -0.17355,0 -0.26172,0.0862 -0.26172,0.25976 0,0.14463 0.0882,0.2168 0.26172,0.2168 l 0.39062,0 c 1.09915,0 1.64844,0.50715 1.64844,1.51953 l 0,16.61719 c 0,0.63633 -0.21652,1.2297 -0.65039,1.7793 -0.43388,0.52066 -0.96912,0.78124 -1.60547,0.78124 l -0.43359,0 c -0.17356,0 -0.26172,0.0862 -0.26172,0.25977 0,0.17353 0.0882,0.25977 0.26172,0.25977 l 15.48828,0 c 0.54957,0 1.18702,-0.21653 1.91015,-0.65039 -1.01238,-0.49174 -1.64983,-1.30163 -1.91015,-2.42969 -0.17356,-0.781 -0.54846,-1.4606 -1.12696,-2.03906 -0.5785,-0.57854 -1.26003,-0.86719 -2.04101,-0.86719 -0.63636,0 -1.31594,0.20242 -2.03907,0.60742 1.07023,0.63633 1.60547,1.37409 1.60547,2.21289 0,0.72313 -0.34681,1.30051 -1.04101,1.73438 -0.66528,0.40473 -1.38894,0.59312 -2.16992,0.56445 -0.60743,-0.0289 -1.12667,-0.24546 -1.56055,-0.65039 -0.40495,-0.43394 -0.60742,-0.9551 -0.60742,-1.5625 l 0,-16.61719 c 0,-1.01238 0.51924,-1.51953 1.56054,-1.51953 l 0.99805,0 c 0.17355,0 0.26172,-0.0722 0.26172,-0.2168 0,-0.17355 -0.0882,-0.25976 -0.26172,-0.25976 l -8.41601,0 z m 33.96679,0 c -0.17354,0 -0.25976,0.0862 -0.25976,0.25976 0,0.14463 0.0862,0.2168 0.25976,0.2168 l 0.4336,0 c 1.09915,0 1.65039,0.50715 1.65039,1.51953 l 0,16.61719 c 0,0.63633 -0.23252,1.2297 -0.69532,1.7793 -0.43388,0.52066 -0.95507,0.78124 -1.5625,0.78124 l -0.47656,0 c -0.17355,0 -0.25976,0.0862 -0.25976,0.25977 0,0.17353 0.0862,0.25977 0.25976,0.25977 l 9.24219,0 c 0.17355,0 0.25976,-0.0862 0.25976,-0.25977 0,-0.17353 -0.0862,-0.25977 -0.25976,-0.25977 l -0.47852,0 c -0.63635,0 -1.17159,-0.26058 -1.60546,-0.78124 -0.43388,-0.5496 -0.6504,-1.14297 -0.6504,-1.7793 l 0,-1.30078 c 0.26032,-0.57854 0.62314,-0.86914 1.08594,-0.86914 0.4628,0 1.05422,0.43493 1.77735,1.30273 1.47518,1.6776 2.58974,2.76217 3.34179,3.25391 1.33056,0.83886 2.84811,1.05539 4.55469,0.65039 0.5785,-0.1446 1.18591,-0.53554 1.82227,-1.17188 0.66528,-0.6364 1.07021,-1.2438 1.21484,-1.82226 0.0868,-0.43387 0.0446,-0.86692 -0.12891,-1.30078 -0.14462,-0.4628 -0.4493,-0.69532 -0.91211,-0.69532 -0.52064,0 -0.85342,0.36281 -0.99804,1.08594 0.4628,0.1446 0.75344,0.36112 0.86914,0.65039 0.20247,0.376 0.14434,0.78098 -0.17383,1.21484 -0.28925,0.43387 -0.76637,0.6504 -1.43164,0.6504 -0.72313,0 -1.43275,-0.20249 -2.12695,-0.60743 -0.95453,-1.0124 -1.6622,-1.86634 -2.125,-2.56054 -1.41734,-1.96687 -2.63216,-2.94922 -3.64454,-2.94922 l -0.26171,0 c 0.6942,-0.781 1.59225,-1.83744 2.6914,-3.16797 1.90906,-2.314 3.32635,-4.23647 4.25195,-5.76953 0.95454,-1.53302 1.43165,-2.77789 1.43165,-3.73242 0,-1.01239 -0.5212,-1.50355 -1.5625,-1.47461 -1.35948,0.0579 -2.42996,0.78151 -3.21094,2.16992 0.89668,-0.17355 1.44596,0.0289 1.64844,0.60742 0.14462,0.46279 2.8e-4,1.11231 -0.4336,1.95117 -2.25616,4.19414 -4.81611,7.79649 -7.67969,10.80469 l 0,-13.53711 c 0,-1.01238 0.54929,-1.51953 1.64844,-1.51953 l 0.39063,0 c 0.17355,0 0.26172,-0.0722 0.26172,-0.2168 0,-0.17355 -0.0882,-0.25976 -0.26172,-0.25976 l -7.89649,0 z m 62.43946,0 c -0.17356,0 -0.25977,0.0862 -0.25977,0.25976 0,0.14463 0.0862,0.2168 0.25977,0.2168 l 0.43359,0 c 1.09915,0 1.64844,0.50715 1.64844,1.51953 l 0,16.61719 c 0,0.63633 -0.23056,1.2297 -0.69336,1.7793 -0.43388,0.52066 -0.95507,0.78124 -1.5625,0.78124 l -0.47657,0 c -0.17355,0 -0.25976,0.0862 -0.25976,0.25977 0,0.17353 0.0862,0.25977 0.25976,0.25977 l 9.24219,0 c 0.17356,0 0.25977,-0.0862 0.25977,-0.25977 0,-0.17353 -0.0862,-0.25977 -0.25977,-0.25977 l -0.47851,0 c -0.63636,0 -1.17159,-0.26058 -1.60547,-0.78124 -0.43388,-0.5496 -0.65039,-1.14297 -0.65039,-1.7793 l 0,-1.30078 c 0.26032,-0.57854 0.62314,-0.86914 1.08594,-0.86914 0.46279,0 1.05421,0.43493 1.77734,1.30273 1.47518,1.6776 2.58974,2.76217 3.3418,3.25391 1.33055,0.83886 2.8481,1.05539 4.55468,0.65039 0.57851,-0.1446 1.18592,-0.53554 1.82227,-1.17188 0.66528,-0.6364 1.07022,-1.2438 1.21484,-1.82226 0.0868,-0.43387 0.0446,-0.86692 -0.1289,-1.30078 -0.14463,-0.4628 -0.44931,-0.69532 -0.91211,-0.69532 -0.52066,0 -0.85342,0.36281 -0.99805,1.08594 0.4628,0.1446 0.75344,0.36112 0.86914,0.65039 0.20248,0.376 0.14435,0.78098 -0.17383,1.21484 -0.28924,0.43387 -0.76636,0.6504 -1.43164,0.6504 -0.72312,0 -1.43274,-0.20249 -2.12695,-0.60743 -0.95453,-1.0124 -1.6622,-1.86634 -2.125,-2.56054 -1.41733,-1.96687 -2.63215,-2.94922 -3.64453,-2.94922 l -0.26172,0 c 0.69421,-0.781 1.59225,-1.83744 2.6914,-3.16797 1.90906,-2.314 3.32635,-4.23647 4.25196,-5.76953 0.95452,-1.53302 1.43164,-2.77789 1.43164,-3.73242 0,-1.01239 -0.52119,-1.50355 -1.5625,-1.47461 -1.35948,0.0579 -2.42997,0.78151 -3.21094,2.16992 0.89667,-0.17355 1.44596,0.0289 1.64844,0.60742 0.14463,0.46279 2.9e-4,1.11231 -0.4336,1.95117 -2.25616,4.19414 -4.8161,7.79649 -7.67968,10.80469 l 0,-13.53711 c 0,-1.01238 0.54928,-1.51953 1.64844,-1.51953 l 0.39062,0 c 0.17355,0 0.26172,-0.0722 0.26172,-0.2168 0,-0.17355 -0.0882,-0.25976 -0.26172,-0.25976 l -7.89648,0 z m 39.1914,0 c -0.11466,0 -0.17789,0.0512 -0.2168,0.12695 -0.034,-0.0208 -0.0682,-0.041 -0.12304,-0.041 l -5.50977,0 c -0.1157,0 -0.17383,0.0722 -0.17383,0.2168 0,0.14463 0.0581,0.21875 0.17383,0.21875 l 0.4336,0 c 0.4628,0 0.86773,0.14435 1.21484,0.4336 0.34711,0.28925 0.5055,0.65011 0.47656,1.08398 -0.20247,2.74792 -0.3909,5.51031 -0.56445,8.28711 -0.3471,3.471 -1.04073,6.08911 -2.08203,7.85351 -0.75205,1.3306 -1.62006,1.9961 -2.60352,1.9961 -0.78098,0 -1.48864,-0.57933 -2.125,-1.73633 -0.95452,-1.73553 -1.6501,-4.41168 -2.08398,-8.02734 -0.26032,-2.80574 -0.53497,-5.59626 -0.82422,-8.37305 -0.0579,-0.40495 0.0584,-0.73772 0.34766,-0.99805 0.31817,-0.26031 0.66498,-0.41869 1.04101,-0.47656 l 0.56445,0 c 0.2314,-0.0289 0.34766,-0.11709 0.34766,-0.26172 0,-0.14463 -0.0882,-0.2168 -0.26172,-0.2168 l -7.89648,0 c -0.20248,0 -0.30274,0.0722 -0.30274,0.2168 0,0.14463 0.10026,0.21875 0.30274,0.21875 1.24378,0 1.92336,0.50521 2.03906,1.51758 l 0.95508,9.11133 c 0.54958,3.876 1.43163,6.65241 2.64648,8.33008 1.21486,1.64873 2.66219,2.47461 4.33985,2.47461 1.7355,0 3.20897,-0.83992 4.42382,-2.51758 1.24378,-1.7066 2.06966,-4.49712 2.47461,-8.37305 0.20248,-3.00827 0.38895,-6.0172 0.5625,-9.02539 0.0868,-1.01237 0.78235,-1.51758 2.08399,-1.51758 0.0878,0 0.13933,-0.0365 0.17383,-0.0898 0.0424,0.0261 0.0922,0.0449 0.16601,0.0449 l 0.39063,0 c 1.09915,0 1.64843,0.50715 1.64843,1.51953 l 0,16.61719 c 0,0.63633 -0.21651,1.2297 -0.65039,1.7793 -0.43387,0.52066 -0.96911,0.78124 -1.60547,0.78124 l -0.43359,0 c -0.17355,0 -0.25976,0.0862 -0.25976,0.25977 0,0.17353 0.0862,0.25977 0.25976,0.25977 l 15.49024,0 c 0.54958,0 1.18507,-0.21653 1.9082,-0.65039 -1.01238,-0.49174 -1.64788,-1.30163 -1.9082,-2.42969 -0.17355,-0.781 -0.5504,-1.4606 -1.12891,-2.03906 -0.5785,-0.57854 -1.25808,-0.86719 -2.03906,-0.86719 -0.63635,0 -1.31593,0.20242 -2.03907,0.60742 1.07024,0.63633 1.60547,1.37409 1.60547,2.21289 0,0.72313 -0.34681,1.30051 -1.04101,1.73438 -0.66528,0.40473 -1.38894,0.59312 -2.16992,0.56445 -0.60743,-0.0289 -1.12863,-0.24546 -1.5625,-0.65039 -0.40496,-0.43394 -0.60743,-0.9551 -0.60743,-1.5625 l 0,-16.61719 c 0,-1.01238 0.5212,-1.51953 1.5625,-1.51953 l 0.99805,0 c 0.17355,0 0.25977,-0.0722 0.25977,-0.2168 0,-0.17355 -0.0862,-0.25976 -0.25977,-0.25976 l -8.41797,0 z m -186.23633,0.21679 c -0.17355,0 -0.26172,0.0862 -0.26172,0.25977 0,0.17355 0.0882,0.25976 0.26172,0.25976 0.95453,0 1.72033,0.21847 2.29883,0.65235 0.4628,0.31817 0.968,0.92558 1.51758,1.82226 l 0,15.66211 c 0,0.60747 -0.21651,1.1868 -0.65039,1.73633 -0.43388,0.5496 -0.95312,0.82422 -1.56055,0.82422 l -0.52148,0 c -0.17355,0 -0.25977,0.0862 -0.25977,0.25977 0,0.14466 0.0862,0.21679 0.25977,0.21679 l 6.76758,0 c 0.17355,0 0.26171,-0.0721 0.26171,-0.21679 0,-0.17354 -0.0882,-0.25977 -0.26171,-0.25977 l -0.47657,0 c -0.60742,0 -1.12862,-0.27462 -1.5625,-0.82422 -0.43387,-0.54953 -0.65039,-1.12886 -0.65039,-1.73633 l 0,-13.49414 9.41602,15.18555 c 1.157,1.88013 2.444,3.0809 3.86133,3.60156 0.0868,0.0293 0.20107,0.015 0.3457,-0.043 0.0579,-0.0867 0.0157,-0.21702 -0.12891,-0.39062 -0.6942,-0.54953 -1.27352,-1.50382 -1.73632,-2.86328 -0.37603,-1.18594 -0.56446,-2.30047 -0.56446,-3.3418 l 0,-15.31445 c 0,-0.98346 0.55124,-1.47657 1.65039,-1.47657 l 0.4336,0 c 0.14462,0 0.21679,-0.0862 0.21679,-0.25976 0,-0.17355 -0.0722,-0.25977 -0.21679,-0.25977 l -5.50977,0 c -0.14462,0 -0.21875,0.0862 -0.21875,0.25977 0,0.17355 0.0741,0.25976 0.21875,0.25976 l 0.47656,0 c 1.07023,10e-6 1.60547,0.49311 1.60547,1.47657 l 0,12.58203 -8.76562,-14.57813 -6.2461,0 z m -13.1582,4.51172 5.12109,12.14844 c -0.20247,-0.20247 -0.34877,-0.34679 -0.43554,-0.43359 -1.41733,-1.09914 -3.10927,-1.64844 -5.07617,-1.64844 -1.67766,0 -3.20926,0.44904 -4.59766,1.3457 l 4.98828,-11.41211 z m 276.3418,2.56055 c -1.59088,0 -3.05226,0.72365 -4.38281,2.16992 l 0,-1.73633 -4.85938,0 c -0.17355,0 -0.25977,0.0581 -0.25977,0.17383 0,0.1446 0.0862,0.2168 0.25977,0.2168 0.52065,0 0.95563,0.23251 1.30273,0.69531 0.3471,0.43387 0.51954,0.92501 0.51954,1.47461 l 0,16.40039 c 0,3.21067 -1.18478,5.68439 -3.55665,7.41992 -0.0868,0.0579 -0.13085,0.1441 -0.13085,0.25977 0.0289,0.0868 0.11513,0.13086 0.25976,0.13086 0.31818,0 0.85342,-0.20249 1.60547,-0.60742 1.56195,-0.83887 2.79277,-2.27215 3.68945,-4.29688 0.78098,-1.76447 1.16993,-3.62884 1.16993,-5.5957 l 0,-2.90821 c 0.54957,0.28927 1.17298,0.4336 1.86718,0.4336 1.93798,0 3.62991,-0.96825 5.07617,-2.90625 1.33056,-1.7644 1.9961,-3.6588 1.9961,-5.6836 0,-1.47513 -0.37685,-2.74809 -1.12891,-3.81836 -0.86775,-1.21486 -2.0104,-1.82226 -3.42773,-1.82226 z m -1.7793,1.3457 c 1.18593,0 2.12611,0.76576 2.82031,2.29883 0.5785,1.21487 0.86719,2.48783 0.86719,3.81836 0,1.33053 -0.28869,2.60349 -0.86719,3.81836 -0.6942,1.53307 -1.63438,2.29883 -2.82031,2.29883 -0.98345,0 -1.85146,-0.6074 -2.60351,-1.82227 l 0,-8.58984 c 0.6942,-1.21487 1.56221,-1.82227 2.60351,-1.82227 z m -124.08594,1.95117 c -0.17355,0 -0.25976,0.0882 -0.25976,0.26172 l 0,2.38477 c 0,0.14467 0.0862,0.2168 0.25976,0.2168 l 4.47071,0 c 0.17354,0 0.25976,-0.0721 0.25976,-0.2168 l 0,-2.38477 c 0,-0.17353 -0.0862,-0.26172 -0.25976,-0.26172 l -4.47071,0 z m 111.83789,7.50586 c -0.4628,0 -0.86774,0.17442 -1.21484,0.52149 -0.3471,0.34713 -0.52148,0.75204 -0.52148,1.21484 0,0.49167 0.16034,0.91068 0.47851,1.25781 0.3471,0.34714 0.76609,0.52149 1.25781,0.52149 0.49173,0 0.91071,-0.17435 1.25782,-0.52149 0.3471,-0.34713 0.52148,-0.76614 0.52148,-1.25781 0,-0.4628 -0.17438,-0.86771 -0.52148,-1.21484 -0.34711,-0.34707 -0.76609,-0.52149 -1.25782,-0.52149 z"
       id="path4523-4"
       inkscape:connector-curvature="0"
       inkscape:export-filename="C:\Users\Marek\js\KuligiBiesiady\logo\logo-napis-1500.png"
       inkscape:export-xdpi="449.93079"
       inkscape:export-ydpi="449.93079" />
    <text
       xml:space="preserve"
       style="font-style:normal;font-variant:normal;font-weight:normal;font-stretch:normal;font-size:12.80000019px;line-height:0%;font-family:'Trebuchet MS';-inkscape-font-specification:'Trebuchet MS';text-align:start;letter-spacing:0px;word-spacing:0px;writing-mode:lr-tb;text-anchor:start;fill:#000000;fill-opacity:1;stroke:none;stroke-width:1.06666672"
       x="1371.6525"
       y="866.07556"
       id="text4314"><tspan
         sodipodi:role="line"
         id="tspan4316"
         x="1371.6525"
         y="866.07556"
         style="font-size:25.60000038px;line-height:1.25;stroke-width:1.06666672"></tspan></text>
    <path
       inkscape:connector-curvature="0"
       style="fill:#231f20;fill-opacity:1;fill-rule:nonzero;stroke:none"
       d="m 294.40076,723.16506 c -3.00202,0.0277 -6.70129,0.489 -10.64453,1.39258 -4.50656,1.03266 -8.47449,2.44674 -11.30078,3.93555 -1.41314,0.7444 -2.54041,1.50051 -3.32812,2.28906 -0.78771,0.78853 -1.31465,1.70132 -1.0918,2.67383 0.22284,0.97253 1.09401,1.56281 2.14648,1.92968 1.05246,0.36687 2.39593,0.55653 3.99219,0.61133 3.19257,0.10962 7.38016,-0.34433 11.88672,-1.37695 4.50656,-1.03266 8.47449,-2.44869 11.30078,-3.9375 1.41315,-0.7444 2.54432,-1.49858 3.33203,-2.28711 0.78771,-0.78854 1.3127,-1.70129 1.08985,-2.67383 -0.22284,-0.9725 -1.09207,-1.56283 -2.14454,-1.92969 -1.05248,-0.36687 -2.3998,-0.55848 -3.99609,-0.61328 -0.39907,-0.0137 -0.81333,-0.0176 -1.24219,-0.0137 z m 1.10938,1.19922 c 1.49932,0.0515 2.6916,0.38609 3.50586,0.66992 0.81425,0.28384 1.20007,0.69133 1.26953,1.03125 0.0675,0.33186 -0.17023,0.78852 -0.87305,1.28516 -0.70423,0.49764 -1.57698,0.96878 -2.90429,1.66797 -2.65465,1.39839 -6.52875,2.78885 -10.92774,3.79687 -4.39901,1.008 -8.49353,1.44279 -11.49219,1.33985 -1.49932,-0.0515 -2.27515,-0.0447 -3.24218,-0.25977 -0.84174,-0.18724 -1.22193,-0.40601 -1.3125,-0.7832 -0.10177,-0.42525 0.0761,-0.90362 0.68554,-1.51368 0.60943,-0.61007 1.5438,-1.39847 2.8711,-2.09765 2.65464,-1.39838 6.52873,-2.79083 10.92773,-3.79883 4.39899,-1.00802 8.49353,-1.44084 11.49219,-1.33789 z m 12.90039,8.70312 c -4.32679,2.77479 -11.24244,1.50479 -12.27734,2.9629 -1.03491,1.45807 3.05832,3.29175 3.10546,6.58398 5.45598,-0.18795 11.42817,-5.03298 16.93164,-3.99805 -3.10439,0.51744 -7.19501,2.25894 -9.40625,4.75196 8.67998,-1.2006 15.93288,3.86175 21.25977,11.85156 5.64384,8.46647 12.04018,12.22997 12.79297,17.68555 -3.669,-5.73833 -16.08503,-8.65325 -19.18945,-20.50586 -2.16339,15.14489 21.07106,20.64669 22.55273,30.94726 1.19919,-9.38322 -0.6697,-18.5805 -8.06641,-24.55078 1.8345,0.23499 3.19693,-0.28246 4.9375,-1.55273 -6.58483,0.235 -14.10985,-18.29692 -26.57422,-15.94532 0.98778,-1.34062 3.24572,-2.18733 5.78516,-2.75195 -6.20808,-3.10403 -14.15692,-0.35135 -18.06055,0.21289 2.22638,-1.53653 4.51591,-3.38696 6.20899,-5.69141 z m -15.09766,2.89844 c -0.0703,-0.009 -0.13358,-0.003 -0.18945,0.0176 -0.89349,0.32961 -0.6086,4.76258 -0.4707,6.44336 0.33631,-3.41219 4.84419,-4.18537 4.70312,7.19726 0.43305,-1.92805 1.13002,-4.18663 0.33008,-7.29101 -0.74928,-2.91037 -3.31835,-6.23414 -4.37305,-6.36719 z m -1.92968,0.91016 c -2.03042,1.12179 -5.51361,2.83194 -6.27344,5.19726 -0.90476,2.81559 4.88218,1.66682 6.08594,1.3418 -1.31703,-2.2109 -1.22344,-4.2814 0.1875,-6.53906 z m -14.20899,1.22656 c -0.53082,0.19938 0.99583,2.65518 1.54883,4.58008 0.55298,1.92488 1.92372,5.33211 3.53906,6.2168 -0.90722,-1.5485 -2.21124,-4.80083 -1.32617,-5.06641 0.88505,-0.26524 3.60472,1.90218 4.63086,2.98633 -1.09261,1.28292 -3.48047,7.45673 -4.69727,9.29297 -1.09858,1.65755 -1.02786,3.60127 -0.46679,5.55078 1.04793,3.64112 2.24603,8.70592 2.3125,13.8164 0.0661,5.11047 -1.00212,9.53395 -1.44922,11.40625 -0.42424,1.77774 1.26218,3.62682 2.05859,4.49024 0.86183,0.93347 1.29447,3.11729 2.5,3.42969 1.41658,0.36633 2.48977,-0.0331 4.64649,-0.26563 1.43804,-0.1541 2.47769,-1.34956 3.25195,-2.30078 0.77425,-0.9512 1.16793,-4.063 0.88476,-6.74805 -0.57796,1.02521 -0.56068,2.23835 -1.13476,3.21875 -0.74188,1.26665 -0.97491,0.0478 -0.74414,-0.69726 0.26452,-0.85337 0.50542,-2.32205 0.0195,-3.14063 -0.48649,-0.8186 -1.83147,-1.34576 -2.38867,-0.95117 -1.06165,0.75204 -0.0975,2.38368 -0.72656,3.22656 -0.68385,0.91595 -1.52362,1.50302 -1.48633,2.72461 0.0438,1.45997 -1.20742,2.25991 -1.76953,1.17188 -0.59907,-1.15901 -1.06137,-1.63626 -2.11914,-1.67969 -2.85956,-0.11906 -0.90477,-4.63977 -0.50586,-7.80859 0.41229,-3.276 0.43563,-5.50408 0.0586,-9.78125 -0.39785,-4.51346 -2.06441,-8.29526 -1.66797,-11.19141 0.23814,-1.73739 3.09332,-2.37234 3.2168,-3.23242 0.12305,-0.86008 -1.90293,0.0439 -2.30078,-0.79688 -0.39821,-0.84072 9.72875,-5.33681 8.25586,-11.91601 -1.30507,0.0233 -3.32149,0.5672 -4.43555,1.26758 -0.98777,-1.2312 -4.65966,-3.68086 -6.00977,-4.8125 -1.34974,-1.13166 -3.16449,-3.18934 -3.69531,-2.99024 z m 62.36914,0.56055 c -0.22876,0.004 -0.45261,0.0182 -0.66992,0.043 -0.78338,0.0895 -1.48993,0.32077 -2.0918,0.70703 -2.30519,1.48165 -2.33812,4.01504 -1.46679,6.70117 0.98532,3.03967 3.08843,6.29034 4.64257,8.68945 0.38237,0.59097 0.73358,1.13158 0.93164,1.44922 0.27051,0.4348 0.49623,0.81971 0.66016,1.15039 0.87978,1.77538 1.81311,3.76023 2.73828,5.86524 0.81998,1.86658 1.64418,3.85139 2.42969,5.89648 0.71411,1.85805 1.38166,3.72131 1.96875,5.53711 0.54666,1.69205 1.04236,3.39646 1.46484,5.08594 0.82947,3.31453 1.3676,6.71095 1.61914,10.1289 0.25503,3.46348 0.21791,6.94391 -0.10547,10.37891 -0.32432,3.43897 -0.93729,6.8428 -1.83007,10.14844 -0.87979,3.25662 -2.0347,6.42244 -3.46289,9.43554 -1.71418,3.61548 -3.8145,6.99892 -6.28711,10.04493 -2.30494,2.84023 -4.94778,5.38768 -7.9043,7.57617 -0.15337,-0.49762 -0.25195,-0.97085 -0.25195,-1.38086 0,-2.96383 2.53977,-4.56275 5.17382,-9.5957 2.63409,-5.03249 1.90555,-11.63886 -0.14257,-19.18946 -0.75279,-2.77565 -2.33719,-5.66126 -2.63477,-7.99609 -0.32856,-2.58722 0.37762,-6.72667 -1.55078,-10.06641 0.98812,4.60918 -0.65766,12.65363 -3.10352,9.59571 -0.37675,3.15155 3.84795,6.05841 4.60743,11.90039 0.75278,5.78523 -1.13489,10.76446 -5.40821,12.79296 -5.64454,2.68156 -14.81587,-3.73946 -19.00195,-3.90429 1.52845,1.85805 3.15092,5.43284 -1.03516,3.95117 4.95066,2.73068 10.81589,10.7052 18.89258,16.75977 -1.78778,0.9949 -3.66089,1.88028 -5.63867,2.61523 -0.34146,0.12685 -0.69799,0.23099 -1.04492,0.34961 0.24025,-2.51261 -1.03171,-8.38681 -3.88281,-9.18945 0.776,1.33973 2.15409,4.22669 1.47656,5.9414 -0.45309,1.14967 -2.00579,0.26709 -1.95899,-1.04297 0.0499,-1.40533 -0.55207,-2.37763 -0.85742,-3.55859 -0.12515,0.91992 -0.42561,4.37962 -1.82812,4.17578 -1.04864,-0.15176 -2.09552,-1.09359 -2.74805,-1.87109 -1.04197,-1.24143 -0.18565,-2.54389 -0.0254,-3.97071 0.27509,-2.4511 -2.9748,-6.5039 -4.35938,-8.38671 -1.85243,-2.51835 -1.41134,-4.44514 -0.2832,-5.64454 1.1292,-1.1994 1.02787,-2.2661 1.90625,-2.46875 0.52414,-0.12142 7.4733,3.17299 10.15625,3.91407 2.68297,0.74153 8.18628,1.27256 9.70313,0.53125 1.51685,-0.74015 2.69475,-4.53603 1.98242,-4.4375 -0.71303,0.0981 -1.98251,2.17984 -4.66406,2.56836 -3.4544,0.49988 -6.53867,-0.44949 -9.16993,-1.23633 -3.42169,-1.02266 -8.84614,-3.87263 -9.08007,-3.68164 -0.23393,0.19145 -0.37199,1.54567 -1.04493,2.76562 -0.67435,1.22065 -3.30931,3.13125 -2.1875,6.2793 0.91708,2.57579 3.46136,4.64355 4.19727,7.125 0.56952,1.9218 -2.15182,5.11538 -4.02149,4.375 -1.86967,-0.74131 -2.77024,-9.39544 -3.66796,-12.69922 -0.59837,-2.20245 -2.35256,-5.28992 -2.08204,-7.61914 0.17931,-1.54098 2.47057,-0.14051 4.26954,-0.21289 1.79895,-0.07 3.93462,-1.40887 6.02343,-1.64258 3.31793,-0.37194 6.887,-0.15665 9.81446,0.75977 -1.12884,-1.51718 -4.19602,-2.18584 -7.3711,-2.08008 -2.73574,0.091 -4.16297,-0.49388 -5.11523,-2.85742 3.91524,0.38851 7.45197,-0.61773 11.20117,-0.92383 1.6797,-0.13542 3.60843,-0.13958 5.07813,0.95312 1.4282,1.06351 2.48746,3.28597 3.93359,4.13282 1.41413,0.82769 0.39845,-5.31258 -0.87109,-6.37305 -0.85761,-0.71702 -2.26867,-0.50608 -2.51563,-1.03516 -0.4281,-0.91595 0.45969,-2.11727 0.42383,-3.38672 -2.35769,4.26487 -6.26358,4.89683 -10.85938,5.18946 -2.47861,-4.50462 -2.22576,-9.87445 -2.08789,-17.25196 0.14079,-7.54944 -1.70647,-12.32264 -4.9375,-18.27343 2.61086,7.97205 2.46144,13.03987 1.69141,19.7539 -1.05778,-1.23443 -2.15036,-2.36354 -3.45508,-2.96289 3.57422,6.00296 0.84664,14.38078 4.24024,18.49805 -1.4313,-0.17275 -2.83122,-0.31646 -4.13282,-0.0859 -2.31057,-3.22765 -2.23109,-8.04448 -1.30859,-10.50781 -1.04336,0.74341 -1.9561,1.82505 -2.40039,3.51758 -2.1131,-6.05726 4.5171,-15.62922 2.25976,-29.26953 -0.70566,2.18727 -1.76344,3.4088 -2.46875,4.44336 0.85763,4.23819 -0.91752,11.43055 -2.14062,16.79296 -1.22065,5.35306 -0.12207,10.48397 0.0469,11.11719 -2.2334,0.67826 -4.63179,2.44469 -6.8789,2.85352 -2.35231,0.42821 -6.93377,0.25249 -8.59766,0.86328 -1.66459,0.60916 -3.46589,4.98403 -2.9414,6.96094 0.36057,1.35934 2.56723,3.49651 4.46679,6.32421 1.24808,1.85876 2.20518,3.75082 2.43946,5.04688 0.16344,0.90194 0.13444,2.51812 0.59961,3.33203 0.79711,1.3946 2.37394,2.33141 3.47851,3.43555 1.27869,1.27879 1.30332,3.85485 2.48633,4.45117 1.46195,0.73687 2.76677,1.1844 3.97266,1.9668 1.30504,0.84684 5.99485,1.31995 6.91015,0.65429 0.32181,-0.23421 0.23599,-1.08201 -0.0215,-2.13476 2.03879,0.83221 4.25052,0.88062 5.98437,2.41211 1.73284,1.52978 3.00042,2.69959 5.21094,3.82031 0.75819,0.38412 1.77669,0.64299 2.81055,0.80273 -2.17375,0.55653 -4.43173,0.97681 -6.79688,1.20508 -0.54103,0.0514 -1.18523,0.0971 -1.90039,0.13672 -0.76615,0.0421 -1.48139,0.0699 -2.11914,0.084 -0.63706,0.0233 -1.35262,0.0233 -2.11914,0 -0.71656,0 -1.3631,-0.0268 -1.90625,-0.0547 -3.96025,-0.21247 -7.67654,-0.91467 -11.13867,-2.03516 -3.61975,-1.17185 -6.95194,-2.80088 -9.98633,-4.80859 -3.18353,-2.10626 -6.04021,-4.6275 -8.55469,-7.46875 -2.59994,-2.93815 -4.84178,-6.22868 -6.70898,-9.76758 -1.55591,-2.95006 -2.84525,-6.06307 -3.86328,-9.2793 -1.03314,-3.26363 -1.78944,-6.63689 -2.25977,-10.05859 -0.4703,-3.41865 -0.65771,-6.89402 -0.55078,-10.36524 0.1053,-3.42611 0.49818,-6.84271 1.18555,-10.18945 0.35002,-1.70607 0.77351,-3.43077 1.24804,-5.14453 0.50866,-1.83915 1.09465,-3.73019 1.72852,-5.61719 0.69793,-2.07683 1.43601,-4.09426 2.17578,-5.99414 0.83407,-2.14264 1.68286,-4.16458 2.48633,-5.97656 0.1499,-0.337 0.35945,-0.73169 0.61133,-1.17773 0.18398,-0.32611 0.51013,-0.88182 0.86718,-1.48829 1.44966,-2.46381 3.41243,-5.79824 4.26758,-8.87695 0.75559,-2.72132 0.61478,-5.25106 -1.75195,-6.63281 -0.61737,-0.36056 -1.33383,-0.56354 -2.12109,-0.61914 -0.87204,-0.0619 -1.83405,0.053 -2.84961,0.32422 -0.99165,0.26488 -2.03965,0.68373 -3.10938,1.24023 -1.0782,0.56108 -2.17318,1.26045 -3.24609,2.08008 -0.44181,0.3377 -0.86153,0.67728 -1.25586,1.01953 -0.3908,0.33877 -0.7946,0.71196 -1.20899,1.11719 -0.41261,0.40349 -0.79433,0.79911 -1.14257,1.18359 -0.36411,0.40138 -0.72712,0.82652 -1.08594,1.27149 -3.10827,3.85578 -5.80939,7.96603 -8.09766,12.25976 -2.33929,4.38858 -4.23644,8.95005 -5.6875,13.60547 -1.47603,4.73573 -2.49699,9.57906 -3.05664,14.44531 -0.56145,4.8847 -0.65876,9.79573 -0.28906,14.64844 0.43269,5.67037 1.50494,11.26192 3.22265,16.64648 1.67865,5.26342 3.97391,10.32538 6.88868,15.0625 2.81735,4.5779 6.21703,8.8583 10.20507,12.72852 l 0,0.008 c 3.83291,3.72055 8.21104,7.06086 13.13868,9.92383 2.14547,1.24681 4.29977,2.35723 6.45507,3.33203 2.18838,0.9895 4.40729,1.85197 6.64844,2.59375 2.25874,0.74761 4.5334,1.36575 6.81641,1.85742 2.30973,0.49757 4.61699,0.86223 6.91406,1.09961 1.27167,0.13078 2.50778,0.22188 3.7168,0.27539 1.25689,0.0536 2.4848,0.0719 3.6875,0.0488 1.20799,-0.0231 2.43164,-0.0833 3.67968,-0.18359 1.21011,-0.0978 2.44062,-0.23597 3.70313,-0.41406 2.31818,-0.3259 4.63953,-0.78289 6.95313,-1.375 2.29427,-0.58698 4.57131,-1.30261 6.82617,-2.15039 2.20457,-0.82863 4.41636,-1.79674 6.62304,-2.90625 2.1648,-1.08874 4.29579,-2.30082 6.38672,-3.63868 4.80099,-3.07123 9.03398,-6.59584 12.70508,-10.47656 3.8192,-4.03739 7.03306,-8.4599 9.65234,-13.1543 2.71006,-4.85668 4.78546,-10.01115 6.23829,-15.34179 1.48588,-5.45323 2.3182,-11.08759 2.50781,-16.77149 0.16251,-4.86439 -0.14396,-9.76488 -0.91406,-14.62109 -0.76651,-4.83893 -1.99337,-9.63402 -3.66993,-14.30273 -1.64876,-4.58912 -3.73704,-9.06466 -6.26172,-13.34961 -2.46978,-4.19172 -5.34322,-8.18271 -8.61328,-11.90235 -0.37745,-0.42917 -0.75805,-0.83906 -1.13867,-1.22461 -0.36479,-0.36937 -0.76419,-0.74761 -1.19336,-1.13281 -0.43161,-0.38765 -0.85062,-0.74259 -1.25586,-1.06445 -0.40878,-0.32503 -0.84325,-0.64719 -1.29883,-0.96485 -1.10668,-0.77355 -2.23027,-1.4248 -3.33203,-1.93945 -1.09226,-0.51041 -2.1576,-0.88545 -3.16015,-1.10742 -0.76958,-0.17073 -1.50512,-0.25493 -2.19141,-0.24414 z m 1.84766,2.83789 c 0.63564,-0.021 1.3215,0.10293 2.02539,0.35547 1.90484,0.68245 4.13276,2.36111 5.92187,4.54492 2.3773,2.90177 4.59171,5.96397 6.59961,9.16015 1.95517,3.11075 3.71986,6.35703 5.25782,9.7129 4.72782,10.31481 6.82315,21.29131 6.60156,32 -0.23115,11.19107 -2.99215,22.09841 -7.92188,31.6621 -4.27897,8.30174 -9.84948,14.9633 -16.22851,20.0586 -6.86414,5.48311 -14.65924,9.15142 -22.78907,11.09961 -3.84345,0.92085 -8.02668,1.47064 -12.24023,1.64062 -4.22548,0.17044 -8.46321,-0.0415 -12.40234,-0.64453 -8.67579,-1.32875 -17.12969,-4.5629 -24.66993,-9.83984 -6.98761,-4.8903 -13.18477,-11.53416 -18.04101,-20.04297 -5.33392,-9.34398 -8.55645,-20.12393 -9.26563,-31.29492 -0.67822,-10.68932 0.94567,-21.74452 5.22852,-32.25196 1.393,-3.4186 3.01817,-6.73647 4.83789,-9.92773 1.86969,-3.27887 3.94983,-6.43457 6.20117,-9.43555 1.69381,-2.25801 3.85106,-4.02997 5.72461,-4.79297 0.693,-0.28211 1.37023,-0.43578 2.00586,-0.4414 0.73874,-0.007 1.40642,0.18671 1.9668,0.60742 0.44711,0.33489 0.80289,0.79328 1.04492,1.38672 0.69228,1.69976 -0.94207,4.72986 -3.21875,8.94726 -0.96313,1.78417 -2.05218,3.79841 -3.13281,5.99805 -2.82192,5.74349 -5.20806,12.54366 -6.69922,19.46485 -1.3575,6.30403 -1.96768,12.68952 -1.48047,18.43554 1.22838,14.49462 5.63294,25.76908 11.94336,34.05469 7.10863,9.33417 16.65085,14.89168 26.79492,16.99023 3.43715,0.71142 7.54563,1.01576 11.6582,0.92774 4.11222,-0.0887 8.20174,-0.56648 11.60547,-1.42383 10.04488,-2.53048 19.3435,-8.49006 26.04688,-18.11914 5.95092,-8.54804 9.86994,-20.00132 10.47851,-34.53516 0.24131,-5.76165 -0.642,-12.11345 -2.26758,-18.35351 -1.78487,-6.85109 -4.46074,-13.5443 -7.52539,-19.16211 -1.17386,-2.15178 -2.34632,-4.11776 -3.38476,-5.85938 -2.45502,-4.11644 -4.21643,-7.07322 -3.59766,-8.80078 0.21643,-0.60329 0.55206,-1.0774 0.98438,-1.43164 0.54242,-0.44357 1.20019,-0.66412 1.9375,-0.68945 z m 0.0684,1.19922 c -0.86564,0.0211 -1.5346,0.43058 -1.85547,1.32617 -0.62616,1.74587 3.15037,6.79835 6.90625,13.68359 5.95692,10.91859 10.4523,25.80377 9.93555,38.13867 -1.31917,31.50782 -18.01683,48.87901 -37.4336,53.76954 -6.9978,1.76326 -16.73173,1.97011 -23.79883,0.50781 -19.60745,-4.05746 -37.03203,-20.69827 -39.69531,-52.1211 -1.04266,-12.30174 2.81399,-27.36677 8.29883,-38.52929 3.45898,-7.03967 7.01605,-12.24679 6.31641,-13.96485 -1.14889,-2.81944 -5.64869,-0.5142 -8.66407,3.50586 -4.38309,5.84258 -8.11249,12.28657 -10.88867,19.09766 -8.61069,21.1246 -6.29583,44.51534 3.9668,62.49609 9.89746,17.33961 25.46019,26.77889 41.84961,29.28907 7.73512,1.18445 16.60656,0.83852 24.18164,-0.97657 15.37421,-3.68436 29.52095,-13.64283 38.23047,-30.53906 9.4859,-18.40265 10.79983,-41.87142 1.29492,-62.60937 -3.06427,-6.6866 -7.06632,-12.96311 -11.69531,-18.61329 -2.18917,-2.67285 -5.04483,-4.50748 -6.94922,-4.46093 z m -42.22071,0.99609 c 1.22277,1.55201 1.90472,3.10495 1.76368,4.93945 6.63161,-0.70531 12.66628,11.09639 20.06054,17.9668 7.31334,6.79668 17.30802,10.72414 22.57617,18.25 -2.16341,-8.27814 -12.36965,-12.0876 -19.18945,-18.53125 -7.54411,-7.12761 -11.66524,-21.91934 -25.21094,-22.625 z m 52.72266,12.08203 c 0.13581,0.008 0.25081,0.0388 0.33594,0.0977 0.22795,0.1576 0.47762,0.40505 0.7207,0.6914 0.28317,0.33209 0.55807,0.71833 0.78711,1.08204 0.62793,0.99728 1.12168,2.105 1.40625,2.80468 0.2539,0.6279 0.25043,1.07195 0.0137,1.42969 -0.33488,0.50479 -2.08079,1.29302 -2.625,1.29102 -0.34897,-0.001 -0.79411,-0.0979 -1.17578,-0.74024 -0.34332,-0.57762 -0.77366,-1.38162 -1.17187,-2.17383 -0.61245,-1.21783 -1.15145,-2.41188 -1.18555,-2.72461 -0.044,-0.40067 0.60543,-0.94039 1.34765,-1.3164 0.54456,-0.27653 1.13946,-0.46445 1.54688,-0.44141 z m -53.84766,0.35547 c 0.34827,2.75438 -0.54122,5.00502 -3.51757,4.72852 0.61385,-0.53082 1.17729,-0.71397 1.99023,-0.9961 -2.75262,-0.55018 -4.09843,1.65917 -3.88281,4.11524 0.39823,-0.71373 0.83021,-1.24364 1.46093,-1.79102 0.0331,0.54738 -0.0996,1.0773 -0.39843,1.625 1.22767,0.0163 2.58633,-0.58061 3.15234,-2.05664 0.5477,0.54736 0.76352,1.52675 0.46485,2.47266 1.65933,-2.3727 1.79246,-5.45936 0.73046,-8.09766 z m -39.82617,1.64649 c 0.40597,-0.0405 1.0083,0.12037 1.56445,0.37304 0.75736,0.34405 1.42943,0.8577 1.40235,1.25977 -0.021,0.31414 -0.50871,1.52902 -1.06836,2.77148 -0.3641,0.80906 -0.75816,1.62901 -1.07617,2.22071 -0.35389,0.65812 -0.79556,0.7749 -1.14453,0.79101 -0.54347,0.0257 -2.32176,-0.68772 -2.67774,-1.17773 -0.25221,-0.34756 -0.27499,-0.78996 -0.0469,-1.42774 0.25398,-0.71128 0.6989,-1.84067 1.2832,-2.86328 0.21388,-0.3736 0.47381,-0.77121 0.74219,-1.11523 0.23138,-0.29654 0.46819,-0.55398 0.68945,-0.72071 0.0827,-0.0625 0.19671,-0.0978 0.33203,-0.11132 z m 43.07813,4.12695 c 1.19461,8.66126 -3.21902,10.71868 -3.88282,10.35351 -0.70845,-0.38945 -0.62476,-2.12328 -0.59765,-2.91992 -1.41697,3.89333 -2.12414,7.40064 -1.22852,11.78125 0.39855,-5.01102 10.05583,-8.39667 5.70899,-19.21484 z m -7.93946,3.63086 c -0.56424,0.0297 -1.24883,1.71301 -1.60937,3.0957 -0.5326,2.04064 -1.12933,7.71865 -0.85742,11.67969 0.93115,-8.08341 2.40199,-11.13902 2.77734,-11.76172 0.37497,-0.6227 0.25403,-3.04407 -0.31055,-3.01367 z m 66.9375,12.72461 c 0.58813,0.005 1.10279,0.12129 1.2793,0.37695 0.15831,0.22742 0.30337,0.54471 0.42969,0.89844 0.14748,0.4114 0.26957,0.87106 0.35547,1.29297 0.23426,1.1541 0.30356,2.36577 0.32226,3.12109 0.0165,0.67711 -0.14364,1.0908 -0.49218,1.3418 -0.49109,0.35301 -2.40578,0.47113 -2.91407,0.27734 -0.32611,-0.12515 -0.70784,-0.37172 -0.83789,-1.10742 -0.11621,-0.66169 -0.23397,-1.56516 -0.32617,-2.44727 -0.14299,-1.35583 -0.22343,-2.66232 -0.14453,-2.96679 0.0999,-0.39038 0.89723,-0.66716 1.72461,-0.75586 0.20245,-0.0219 0.40747,-0.0329 0.60351,-0.0312 z m -109.50976,2.33984 c 0.1958,-0.01 0.39832,-0.009 0.60156,0.004 0.8302,0.0537 1.641,0.29812 1.75781,0.68359 0.0916,0.3012 0.065,1.60848 -0.0195,2.96875 -0.0549,0.88514 -0.13416,1.79307 -0.22265,2.45899 -0.0981,0.74013 -0.46858,1.0056 -0.78907,1.14453 -0.49951,0.2148 -2.41601,0.17958 -2.92187,-0.1543 -0.35914,-0.23583 -0.53618,-0.64368 -0.54883,-1.32031 -0.014,-0.75531 0.005,-1.96765 0.18945,-3.13086 0.0675,-0.42541 0.16946,-0.88988 0.29883,-1.30664 0.1116,-0.35887 0.24288,-0.68378 0.39063,-0.91797 0.16566,-0.26337 0.67626,-0.39971 1.26367,-0.42969 z m 109.73828,20.78711 c 0.13412,-0.006 0.27774,-0.002 0.42578,0.008 0.19739,0.0138 0.40322,0.0429 0.60742,0.082 0.79959,0.1534 1.57361,0.48511 1.69922,0.88086 0.0841,0.26384 0.12779,0.61066 0.14649,0.98633 0.0208,0.43544 0.003,0.90945 -0.0391,1.33789 -0.11399,1.17325 -0.40257,2.35186 -0.60547,3.08008 -0.18293,0.65142 -0.45662,1.00092 -0.86328,1.13867 -0.57304,0.19496 -2.43803,-0.2509 -2.86718,-0.58594 -0.27517,-0.21458 -0.56757,-0.5636 -0.47657,-1.30468 0.082,-0.66659 0.23433,-1.56443 0.4043,-2.43555 0.26101,-1.3374 0.56392,-2.61042 0.72852,-2.87891 0.11793,-0.19437 0.43747,-0.29054 0.83984,-0.30859 z m -108.84766,2.33398 c 0.34065,0.0166 0.60654,0.0987 0.71875,0.26563 0.17558,0.26174 0.53427,1.51874 0.85157,2.84375 0.20686,0.86295 0.39703,1.7534 0.50781,2.41601 0.12281,0.73713 -0.15401,1.09947 -0.41992,1.32618 -0.41438,0.35302 -2.25871,0.87803 -2.83985,0.70898 -0.41187,-0.12129 -0.70019,-0.45908 -0.91015,-1.10156 l 0,-0.002 c -0.23391,-0.7183 -0.57288,-1.8829 -0.73633,-3.04883 -0.0598,-0.42563 -0.0994,-0.89932 -0.0977,-1.33594 0.002,-0.37543 0.0329,-0.72532 0.10547,-0.99219 0.1088,-0.39997 0.86762,-0.76563 1.66016,-0.95312 0.40472,-0.0957 0.81951,-0.14359 1.16015,-0.12696 z m 47.6543,1.35743 c 1.51708,0.0806 2.45507,1.2713 3.27148,2.71093 -0.81588,0.34553 -1.58242,0.88661 -2.26953,1.76953 -1.11829,1.43756 -2.26506,2.90006 -3.1582,4.49219 -0.70535,1.25887 -0.2744,2.12102 0.11133,3.42188 -2.05783,-1.32288 -3.68319,-3.40681 -6.05274,-2.66211 0.84638,0 1.86937,0.56485 2.45118,1.2793 0.62194,0.76325 1.11042,1.78993 2.26562,2.95898 0.82894,0.83826 1.68821,1.57534 2.51758,2.34375 0.60527,2.00343 1.17859,4.0158 1.54883,6.06836 0.12078,0.66976 0.21907,1.55363 0.3457,2.51367 -0.13515,-0.0531 -0.26929,-0.11032 -0.41602,-0.13476 l 0,-0.002 c -0.4267,-0.07 -2.45403,-0.0254 -3.09179,-0.0254 -0.63776,0 -0.38832,-1.69195 -1.24805,-2.63476 -1.32303,-1.44993 -5.24258,-7.0471 -6.21875,-11.84961 -0.68773,1.53025 -1.77068,2.47366 -3.19922,2.63476 2.31643,1.78053 7.65487,7.84671 6.98438,9.64453 -0.48086,1.28742 -1.67177,1.92642 -1.00586,2.31446 0.53223,0.31007 2.2126,0.27249 2.94922,0.64257 0.60047,0.30095 0.57301,1.79837 1.13867,2.16797 0.6937,0.4525 1.83446,-0.32997 2.35156,-0.89453 0.89351,2.35164 -0.75438,4.35125 -2.11328,3.10352 -0.7658,-0.70348 -1.13705,-1.77496 -2.21875,-1.80274 -1.08171,-0.028 -2.21925,-0.13027 -2.68359,-1.59375 -0.50585,-1.59562 -3.00832,-1.97112 -3.5293,-3.98047 -0.65113,-2.51438 -1.23149,-5.25325 -2.55274,-7.51757 -1.27695,-2.18867 -3.42652,-4.02999 -4.49414,-6.31836 -0.78833,-1.68901 0.69433,-4.72215 1.85938,-5.30469 0.74294,-0.37147 3.67365,-0.3723 4.38281,0.084 0.82736,0.53187 0.25019,1.66112 0.084,2.60743 -0.27754,1.58138 0.83184,3.38435 -0.21094,4.87304 2.76247,-0.98951 3.3168,-6.14793 8.18359,-5.83203 -0.54033,-0.89914 -4.83067,0.35545 -5.08008,-2.35156 3.31898,0.39832 6.32442,-2.07762 7.67383,-2.51563 0.52647,-0.17073 0.99815,-0.23355 1.42383,-0.21093 z m 55.81445,15.58203 c 0.39247,-0.0166 0.98079,0.20308 1.51953,0.51758 0.7039,0.41163 1.3226,0.98399 1.3086,1.39843 -0.009,0.27691 -0.0813,0.61826 -0.18946,0.97852 -0.12629,0.41793 -0.3003,0.86055 -0.48242,1.25 -0.49776,1.06795 -1.1616,2.08266 -1.5957,2.70117 l -0.002,0 c -0.38908,0.55334 -0.7626,0.78711 -1.19141,0.78711 -0.6054,-0.007 -2.21443,-1.04902 -2.50781,-1.50781 -0.18747,-0.29441 -0.34911,-0.72216 -0.0156,-1.39063 0.29901,-0.60145 0.74078,-1.39746 1.19141,-2.16211 0.69124,-1.17419 1.40467,-2.27224 1.64844,-2.4707 0.0782,-0.0635 0.18558,-0.096 0.3164,-0.10156 z m -97.40429,2.08008 c 0.13095,-3e-5 0.24144,0.0276 0.32226,0.0879 0.25223,0.18678 1.00883,1.25483 1.75,2.39843 0.48228,0.74434 0.95851,1.5217 1.2832,2.10938 0.36126,0.65515 0.22,1.08608 0.0449,1.38867 -0.27334,0.47023 -1.83709,1.58013 -2.44141,1.61328 -0.42882,0.0233 -0.81198,-0.19932 -1.22461,-0.73633 l -0.002,0 c -0.46009,-0.59888 -1.16656,-1.58313 -1.70899,-2.6289 -0.19869,-0.38174 -0.39358,-0.8162 -0.53711,-1.22852 -0.12374,-0.35467 -0.20992,-0.69255 -0.23046,-0.96875 -0.031,-0.41397 0.56313,-1.01253 1.24804,-1.45312 0.52476,-0.33762 1.10323,-0.58195 1.4961,-0.58203 z m 87.89062,14.20117 c 0.39095,0.0115 0.9717,0.46556 1.44727,1.01758 0.53152,0.61616 0.93052,1.35679 0.7832,1.74414 -0.0981,0.25939 -0.27662,0.5603 -0.49609,0.86523 -0.25504,0.3542 -0.56391,0.71579 -0.86328,1.02539 -0.81681,0.84777 -1.77604,1.59085 -2.38672,2.03516 -0.5484,0.39793 -0.97987,0.50023 -1.38477,0.35547 -0.56952,-0.20359 -1.75314,-1.71117 -1.88086,-2.24024 -0.0823,-0.33948 -0.0954,-0.79442 0.4375,-1.31836 0.47771,-0.47163 1.15378,-1.08173 1.82813,-1.6582 1.03525,-0.88583 2.06582,-1.69299 2.36132,-1.80273 0.0472,-0.0173 0.0985,-0.0251 0.1543,-0.0234 z m -77.68945,1.66015 c 0.0558,-0.004 0.10823,3.4e-4 0.15625,0.0156 0.2997,0.0958 1.36104,0.86016 2.43359,1.70117 0.69791,0.54705 1.39998,1.12774 1.89844,1.57813 0.55368,0.50129 0.56167,0.95583 0.49414,1.29882 -0.10502,0.53327 -1.22512,2.09001 -1.78516,2.31836 -0.3982,0.1611 -0.83419,0.0774 -1.39843,-0.29687 -0.62968,-0.41677 -1.61768,-1.11912 -2.47071,-1.93164 -0.31167,-0.29699 -0.63644,-0.64334 -0.90625,-0.98633 -0.23255,-0.29582 -0.4238,-0.58972 -0.5332,-0.84375 -0.16322,-0.38128 0.20226,-1.13909 0.70703,-1.7793 0.45093,-0.571 1.01372,-1.04598 1.4043,-1.07422 z"
       id="path16345-4-6"
       inkscape:export-filename="C:\Users\Marek\js\KuligiBiesiady\logo\logo-kon.png"
       inkscape:export-xdpi="449.93079"
       inkscape:export-ydpi="449.93079" />
    <path
       inkscape:connector-curvature="0"
       style="font-size:medium;font-style:normal;font-variant:normal;font-weight:normal;font-stretch:normal;text-align:start;line-height:1.25;letter-spacing:0px;word-spacing:0px;writing-mode:lr-tb;text-anchor:start;fill:#4479c6;fill-opacity:1;stroke:none;font-family:ShangriLaNF;-inkscape-font-specification:'ShangriLaNF, Normal'"
       d="m 456.91053,875.50295 c -2.05369,0.46281 -3.67345,1.83797 -4.85938,4.12305 -1.0413,1.9669 -1.5625,4.09187 -1.5625,6.37695 l 0,17.0957 c 0,0.52067 -0.18842,1.01181 -0.56445,1.47461 -0.34711,0.4628 -0.78013,0.69336 -1.30078,0.69336 -0.14463,0 -0.2168,0.0722 -0.2168,0.2168 0,0.14467 0.0722,0.21875 0.2168,0.21875 l 6.72461,0 c 0.14463,0 0.2168,-0.0741 0.2168,-0.21875 0,-0.1446 -0.0722,-0.2168 -0.2168,-0.2168 -0.52065,0 -0.96968,-0.23056 -1.3457,-0.69336 -0.34711,-0.4628 -0.51954,-0.95394 -0.51954,-1.47461 l 0,-19.74218 c 0,-3.32639 1.20078,-5.81416 3.60157,-7.46289 0.0868,-0.0868 0.11487,-0.173 0.0859,-0.25977 -0.0289,-0.0868 -0.11513,-0.13086 -0.25976,-0.13086 z M 169.516,882.37014 c -0.0506,-0.0217 -0.11831,-0.0121 -0.20508,0.0312 -1.79336,0.75205 -3.26878,2.44591 -4.42578,5.07812 l -6.72461,15.22852 c -0.28925,0.63633 -0.72423,1.21371 -1.30274,1.73437 -0.5785,0.49174 -1.17187,0.73829 -1.77929,0.73829 -0.17355,0 -0.25977,0.0862 -0.25977,0.25976 0,0.14467 0.0862,0.2168 0.25977,0.2168 l 8.11523,0 c 0.17355,0 0.25977,-0.0721 0.25977,-0.2168 0,-0.17353 -0.0862,-0.25976 -0.25977,-0.25976 l -0.69531,0 c -1.61981,0 -2.55999,-0.78182 -2.82031,-2.34375 1.18593,-1.67767 2.96603,-2.51563 5.33789,-2.51563 1.59088,0 2.95004,0.41901 4.07812,1.25781 0.6942,0.5496 1.14128,0.96855 1.34375,1.25782 0.28925,0.40493 0.43555,0.79587 0.43555,1.17187 0,0.75233 -0.44903,1.14321 -1.3457,1.17188 -0.20248,0.0289 -0.30469,0.11516 -0.30469,0.25976 0,0.14467 0.10221,0.2168 0.30469,0.2168 l 8.98046,0 c 0.14463,0 0.2168,-0.0721 0.2168,-0.2168 0,-0.17353 -0.0722,-0.25976 -0.2168,-0.25976 l -0.25976,0 c -0.5785,0 -1.12779,-0.26059 -1.64844,-0.78125 -0.52065,-0.5206 -0.91155,-1.08394 -1.17187,-1.69141 l -6.42188,-15.22852 c -0.3471,-0.83886 -0.51953,-1.69279 -0.51953,-2.56054 0,-1.07023 0.33277,-1.76386 0.99805,-2.08203 0.14463,-0.0289 0.18676,-0.13114 0.1289,-0.30469 -0.0145,-0.0868 -0.047,-0.14042 -0.0977,-0.16211 z m 240.34961,1.37109 c -0.86685,0.0506 -1.57796,0.54402 -2.13477,1.48047 -1.33055,-0.80991 -2.79193,-1.21484 -4.38281,-1.21484 -2.42971,0 -4.58472,0.85396 -6.46484,2.56054 -2.45864,2.25613 -3.6875,5.14887 -3.6875,8.67774 -1e-5,2.54547 0.72366,4.8167 2.16992,6.8125 1.90905,2.69007 4.43895,4.03516 7.59179,4.03516 3.18176,0 5.6555,-1.20077 7.41993,-3.60157 0.1157,-0.60746 0.24599,-1.01237 0.39062,-1.21484 0.26033,-0.34707 0.78152,-0.60765 1.5625,-0.78125 0.14463,-0.0578 0.20081,-0.18816 0.17188,-0.39063 0,-0.1736 -0.0862,-0.25976 -0.25977,-0.25976 l -7.28906,0 c -0.11569,0 -0.2019,0.0862 -0.25977,0.25976 0,0.20227 0.0722,0.33263 0.2168,0.39063 1.21485,0.34713 1.82226,1.0407 1.82226,2.08203 0,0.6942 -0.30468,1.25949 -0.9121,1.69336 -0.60743,0.40467 -1.27102,0.59117 -1.99415,0.5625 -1.53303,-0.0289 -2.93628,-0.96911 -4.20898,-2.82031 -1.50411,-2.11154 -2.25586,-4.69956 -2.25586,-7.76563 0,-2.02473 0.40494,-3.87507 1.21484,-5.55273 1.01238,-2.11153 2.41368,-3.25418 4.20704,-3.42774 1.47518,-0.17354 2.706,0.60631 3.68945,2.3418 0.63635,1.12807 0.95312,2.22661 0.95312,3.29688 0,0.66526 -0.14434,1.25863 -0.43359,1.77929 -0.2314,0.34707 -0.492,0.52149 -0.78125,0.52149 -0.20247,-0.0289 -0.36086,-0.13116 -0.47656,-0.30469 -0.0868,-0.17353 -0.0727,-0.37602 0.043,-0.60742 0.14462,-0.2314 0.0584,-0.34571 -0.25977,-0.34571 -1.04132,0.20247 -1.53248,0.66359 -1.47461,1.38672 0.0579,0.8388 0.6793,1.25977 1.86524,1.25977 1.33055,0 2.40103,-0.70962 3.21093,-2.12695 0.3471,-0.63634 0.51953,-1.40217 0.51953,-2.29883 0,-0.37607 -0.10026,-1.30221 -0.30273,-2.77735 -0.20247,-1.27272 0.15838,-2.35722 1.08398,-3.2539 0.0868,-0.0579 0.10084,-0.13003 0.043,-0.2168 -0.0289,-0.1157 -0.10109,-0.17383 -0.21679,-0.17383 -0.13017,-0.0108 -0.25703,-0.0131 -0.38086,-0.006 z m -154.57813,0.26563 c -2.25615,0 -4.36708,0.56528 -6.33398,1.69336 -2.25616,1.27269 -3.52911,2.93461 -3.81836,4.98828 -0.0579,0.405 -0.0859,0.79587 -0.0859,1.17187 0,1.8512 0.7658,3.26849 2.29883,4.25196 0.92561,0.6074 2.58945,1.22883 4.99023,1.86523 1.79336,0.4628 3.05031,0.8978 3.77344,1.30274 1.41733,0.781 2.05478,1.82144 1.91016,3.12304 -0.11571,0.8388 -0.59282,1.5184 -1.43164,2.03906 -0.83883,0.52067 -1.86523,0.78125 -3.08008,0.78125 -1.56196,0 -2.96521,-0.40491 -4.20899,-1.21484 -1.35948,-0.89667 -2.16936,-2.08151 -2.42968,-3.55664 l -1.38868,0.12891 c 1.12808,2.7768 1.99609,4.85964 2.60352,6.24804 l 1.04102,-1.08398 c 1.157,0.4628 2.38586,0.69336 3.6875,0.69336 2.14045,0 3.99272,-0.57731 5.55468,-1.73438 1.47518,-1.0702 2.25503,-2.57567 2.3418,-4.51367 0.1157,-1.93793 -0.59197,-3.41338 -2.125,-4.42578 -0.89667,-0.6074 -2.5024,-1.22883 -4.81641,-1.86523 -1.99583,-0.52067 -3.34095,-0.98374 -4.03515,-1.38868 -1.21486,-0.6942 -1.77819,-1.66245 -1.69141,-2.90625 0.0868,-1.24373 0.70823,-2.24207 1.86524,-2.99414 1.0413,-0.66528 2.25612,-0.99804 3.64453,-0.99804 1.5041,0 2.77706,0.42093 3.81836,1.25976 1.12808,0.92558 1.6914,2.12441 1.6914,3.59961 0,0.376 -0.0441,0.73881 -0.13086,1.08594 l 0.4336,0.2168 c 0.86775,-1.33054 1.85202,-2.83602 2.95117,-4.51368 -1.35948,-2.16938 -3.70291,-3.2539 -7.0293,-3.2539 z m -43.76953,0.0859 c -0.17355,-10e-6 -0.25976,0.10221 -0.25976,0.30468 0,0.14463 0.0862,0.2168 0.25976,0.2168 l 0.43555,0 c 1.07023,0 1.60547,0.5052 1.60547,1.51758 l 0,16.61914 c 0,0.63633 -0.21847,1.22774 -0.65235,1.77734 -0.40495,0.52067 -0.91015,0.78125 -1.51758,0.78125 l -0.47851,0 c -0.20248,0 -0.30274,0.0862 -0.30274,0.25977 0,0.17353 0.10026,0.26172 0.30274,0.26172 l 14.62305,0 c 0.37602,-0.17354 0.70879,-0.56448 0.99804,-1.17188 0.2314,-0.49173 0.34571,-0.91068 0.34571,-1.25781 0,-1.44627 -0.95423,-2.56086 -2.86329,-3.3418 -0.0868,-0.0287 -0.18703,0.001 -0.30273,0.0879 -0.0579,0.14454 -0.0579,0.24474 0,0.30274 0.43387,0.4628 0.65039,0.96999 0.65039,1.51953 0,0.89666 -0.50716,1.63436 -1.51953,2.21289 -0.89668,0.52067 -1.83686,0.78125 -2.82031,0.78125 -1.76444,0 -2.64649,-0.73769 -2.64649,-2.21289 l 0,-3.60156 2.60352,0 c 1.18592,0 2.08397,0.54923 2.6914,1.64843 0.0579,0.0867 0.14407,0.11656 0.25977,0.0879 0.1157,-0.0289 0.17383,-0.10113 0.17383,-0.21679 l 0,-4.20899 c 0,-0.11593 -0.0581,-0.18813 -0.17383,-0.21679 -0.11568,-0.0287 -0.2019,-8e-4 -0.25977,0.0859 -0.37602,0.6364 -0.6807,1.02728 -0.9121,1.17188 -0.40495,0.3182 -0.99832,0.47656 -1.7793,0.47656 l -2.60352,0 0,-11.49609 c 0,-0.98346 0.56528,-1.47657 1.69336,-1.47657 l 0.82422,0 c 1.07023,0 2.01041,0.16035 2.82031,0.47852 1.12808,0.40495 1.69141,1.05447 1.69141,1.95117 0,0.43387 -0.10026,0.79667 -0.30274,1.08594 -0.0868,0.11567 -0.0727,0.21593 0.043,0.30273 0.0868,0.0867 0.173,0.0867 0.25977,0 1.64873,-1.1281 2.57487,-2.6035 2.77734,-4.42578 0.0579,-0.20247 -0.0143,-0.30468 -0.21679,-0.30468 l -15.44727,0 z m 84.26367,0 c -0.17355,-10e-6 -0.25976,0.10221 -0.25976,0.30468 0,0.14463 0.0862,0.2168 0.25976,0.2168 l 0.4336,0 c 1.07022,0 1.60546,0.5052 1.60547,1.51758 l 0,16.61914 c -1e-5,0.63633 -0.21652,1.22774 -0.6504,1.77734 -0.40494,0.52067 -0.9121,0.78125 -1.51953,0.78125 l -0.47656,0 c -0.20247,0 -0.30469,0.0862 -0.30469,0.25977 0,0.17353 0.10222,0.26172 0.30469,0.26172 l 14.62109,0 c 0.37603,-0.17354 0.7088,-0.56448 0.99805,-1.17188 0.2314,-0.49173 0.34766,-0.91068 0.34766,-1.25781 0,-1.44627 -0.95422,-2.56086 -2.86328,-3.3418 -0.0868,-0.0287 -0.18899,0.001 -0.30469,0.0879 -0.0579,0.14454 -0.0579,0.24474 0,0.30274 0.43387,0.4628 0.65039,0.96999 0.65039,1.51953 0,0.89666 -0.50521,1.63436 -1.51758,2.21289 -0.89668,0.52067 -1.83686,0.78125 -2.82031,0.78125 -1.76443,0 -2.64649,-0.73769 -2.64649,-2.21289 l 0,-3.60156 2.60352,0 c 1.18593,0 2.08203,0.54923 2.68945,1.64843 0.0579,0.0867 0.14407,0.11656 0.25977,0.0879 0.1157,-0.0289 0.17383,-0.10113 0.17383,-0.21679 l 0,-4.20899 c 0,-0.11593 -0.0581,-0.18813 -0.17383,-0.21679 -0.11569,-0.0287 -0.2019,-8e-4 -0.25977,0.0859 -0.37602,0.6364 -0.6807,1.02728 -0.91211,1.17188 -0.40494,0.3182 -0.99636,0.47656 -1.77734,0.47656 l -2.60352,0 0,-11.49609 c 0,-0.98346 0.56333,-1.47657 1.69141,-1.47657 l 0.82422,0 c 1.07023,0 2.01041,0.16035 2.82031,0.47852 1.12808,0.40495 1.69336,1.05447 1.69336,1.95117 0,0.43387 -0.10221,0.79667 -0.30469,1.08594 -0.0868,0.11567 -0.0727,0.21593 0.043,0.30273 0.0868,0.0867 0.17495,0.0867 0.26172,0 1.64873,-1.1281 2.57292,-2.6035 2.77539,-4.42578 0.0579,-0.20247 -0.0143,-0.30468 -0.2168,-0.30468 l -15.44531,0 z m -96.28711,0.002 c -0.14462,0 -0.21875,0.10026 -0.21875,0.30273 0,0.14463 0.0741,0.2168 0.21875,0.2168 l 0.47657,0 c 1.07022,0 1.60546,0.50715 1.60546,1.51953 l 0,16.61719 c 0,0.63633 -0.21651,1.2297 -0.65039,1.7793 -0.43387,0.52066 -0.96911,0.78124 -1.60546,0.78124 l -0.47852,0 c -0.14463,0 -0.2168,0.0862 -0.2168,0.25977 0,0.17353 0.0722,0.25977 0.2168,0.25977 l 9.24219,0 c 0.17355,0 0.25976,-0.0862 0.25976,-0.25977 0,-0.17353 -0.0862,-0.25977 -0.25976,-0.25977 l -0.47657,0 c -0.60742,0 -1.12862,-0.26058 -1.5625,-0.78124 -0.43387,-0.5496 -0.65039,-1.14297 -0.65039,-1.7793 l 0,-16.61719 c 0,-1.01238 0.53524,-1.51953 1.60547,-1.51953 l 0.47657,0 c 0.17355,0 0.25976,-0.0722 0.25976,-0.2168 0,-0.20247 -0.0862,-0.30273 -0.25976,-0.30273 l -7.98243,0 z m 84.78711,0 c -0.14462,0 -0.21679,0.10026 -0.21679,0.30273 0,0.14463 0.0722,0.2168 0.21679,0.2168 l 0.47657,0 c 1.07022,0 1.60546,0.50715 1.60546,1.51953 l 0,16.61719 c 0,0.63633 -0.21651,1.2297 -0.65039,1.7793 -0.43387,0.52066 -0.96911,0.78124 -1.60547,0.78124 l -0.47656,0 c -0.14462,0 -0.2168,0.0862 -0.2168,0.25977 0,0.17353 0.0722,0.25977 0.2168,0.25977 l 9.24219,0 c 0.17355,0 0.25977,-0.0862 0.25977,-0.25977 -1e-5,-0.17353 -0.0862,-0.25977 -0.25977,-0.25977 l -0.47852,0 c -0.60742,0 -1.12862,-0.26058 -1.5625,-0.78124 -0.43388,-0.5496 -0.65039,-1.14297 -0.65039,-1.7793 l 0,-16.61719 c 0,-1.01238 0.53525,-1.51953 1.60547,-1.51953 l 0.47852,0 c 0.17354,0 0.25976,-0.0722 0.25976,-0.2168 0,-0.20247 -0.0862,-0.30273 -0.25976,-0.30273 l -7.98438,0 z m 99.33594,0 c -0.14463,0 -0.2168,0.10026 -0.2168,0.30273 0,0.14463 0.0722,0.2168 0.2168,0.2168 l 0.47656,0 c 1.07024,0 1.60547,0.50715 1.60547,1.51953 l 0,16.61719 c 0,0.63633 -0.21651,1.2297 -0.65039,1.7793 -0.43387,0.52066 -0.96911,0.78124 -1.60547,0.78124 l -0.47851,0 c -0.14463,0 -0.2168,0.0862 -0.2168,0.25977 0,0.17353 0.0722,0.25977 0.2168,0.25977 l 9.24218,0 c 0.17356,0 0.25977,-0.0862 0.25977,-0.25977 0,-0.17353 -0.0862,-0.25977 -0.25977,-0.25977 l -0.47656,0 c -0.60743,0 -1.12862,-0.26058 -1.5625,-0.78124 -0.43387,-0.5496 -0.65039,-1.14297 -0.65039,-1.7793 l 0,-16.61719 c 0,-1.01238 0.53524,-1.51953 1.60547,-1.51953 l 0.47656,0 c 0.17355,0 0.25977,-0.0722 0.25977,-0.2168 0,-0.20247 -0.0862,-0.30273 -0.25977,-0.30273 l -7.98242,0 z m 30.33203,0 c -0.14463,0 -0.2168,0.10026 -0.2168,0.30273 0,0.14463 0.0722,0.2168 0.2168,0.2168 l 0.47656,0 c 1.07023,0 1.60547,0.50715 1.60547,1.51953 l 0,16.61719 c 0,0.63633 -0.21651,1.2297 -0.65039,1.7793 -0.43388,0.52066 -0.96912,0.78124 -1.60547,0.78124 l -0.47851,0 c -0.14463,0 -0.2168,0.0862 -0.2168,0.25977 0,0.17353 0.0722,0.25977 0.2168,0.25977 l 9.24218,0 c 0.17356,0 0.25977,-0.0862 0.25977,-0.25977 0,-0.17353 -0.0862,-0.25977 -0.25977,-0.25977 l -0.47656,0 c -0.60742,0 -1.12862,-0.26058 -1.5625,-0.78124 -0.43387,-0.5496 -0.65039,-1.14297 -0.65039,-1.7793 l 0,-16.61719 c 0,-1.01238 0.53524,-1.51953 1.60547,-1.51953 l 0.47656,0 c 0.17356,0 0.25977,-0.0722 0.25977,-0.2168 0,-0.20247 -0.0862,-0.30273 -0.25977,-0.30273 l -7.98242,0 z m -184.79101,0.043 c -0.17355,0 -0.26172,0.0862 -0.26172,0.25976 0,0.14463 0.0882,0.2168 0.26172,0.2168 l 0.39062,0 c 1.09915,0 1.64844,0.50715 1.64844,1.51953 l 0,16.61719 c 0,0.63633 -0.21652,1.2297 -0.65039,1.7793 -0.43388,0.52066 -0.96912,0.78124 -1.60547,0.78124 l -0.43359,0 c -0.17356,0 -0.26172,0.0862 -0.26172,0.25977 0,0.17353 0.0882,0.25977 0.26172,0.25977 l 15.48828,0 c 0.54957,0 1.18702,-0.21653 1.91015,-0.65039 -1.01238,-0.49174 -1.64983,-1.30163 -1.91015,-2.42969 -0.17356,-0.781 -0.54846,-1.4606 -1.12696,-2.03906 -0.5785,-0.57854 -1.26003,-0.86719 -2.04101,-0.86719 -0.63636,0 -1.31594,0.20242 -2.03907,0.60742 1.07023,0.63633 1.60547,1.37409 1.60547,2.21289 0,0.72313 -0.34681,1.30051 -1.04101,1.73438 -0.66528,0.40473 -1.38894,0.59312 -2.16992,0.56445 -0.60743,-0.0289 -1.12667,-0.24546 -1.56055,-0.65039 -0.40495,-0.43394 -0.60742,-0.9551 -0.60742,-1.5625 l 0,-16.61719 c 0,-1.01238 0.51924,-1.51953 1.56054,-1.51953 l 0.99805,0 c 0.17355,0 0.26172,-0.0722 0.26172,-0.2168 0,-0.17355 -0.0882,-0.25976 -0.26172,-0.25976 l -8.41601,0 z m 33.96679,0 c -0.17354,0 -0.25976,0.0862 -0.25976,0.25976 0,0.14463 0.0862,0.2168 0.25976,0.2168 l 0.4336,0 c 1.09915,0 1.65039,0.50715 1.65039,1.51953 l 0,16.61719 c 0,0.63633 -0.23252,1.2297 -0.69532,1.7793 -0.43388,0.52066 -0.95507,0.78124 -1.5625,0.78124 l -0.47656,0 c -0.17355,0 -0.25976,0.0862 -0.25976,0.25977 0,0.17353 0.0862,0.25977 0.25976,0.25977 l 9.24219,0 c 0.17355,0 0.25976,-0.0862 0.25976,-0.25977 0,-0.17353 -0.0862,-0.25977 -0.25976,-0.25977 l -0.47852,0 c -0.63635,0 -1.17159,-0.26058 -1.60546,-0.78124 -0.43388,-0.5496 -0.6504,-1.14297 -0.6504,-1.7793 l 0,-1.30078 c 0.26032,-0.57854 0.62314,-0.86914 1.08594,-0.86914 0.4628,0 1.05422,0.43493 1.77735,1.30273 1.47518,1.6776 2.58974,2.76217 3.34179,3.25391 1.33056,0.83886 2.84811,1.05539 4.55469,0.65039 0.5785,-0.1446 1.18591,-0.53554 1.82227,-1.17188 0.66528,-0.6364 1.07021,-1.2438 1.21484,-1.82226 0.0868,-0.43387 0.0446,-0.86692 -0.12891,-1.30078 -0.14462,-0.4628 -0.4493,-0.69532 -0.91211,-0.69532 -0.52064,0 -0.85342,0.36281 -0.99804,1.08594 0.4628,0.1446 0.75344,0.36112 0.86914,0.65039 0.20247,0.376 0.14434,0.78098 -0.17383,1.21484 -0.28925,0.43387 -0.76637,0.6504 -1.43164,0.6504 -0.72313,0 -1.43275,-0.20249 -2.12695,-0.60743 -0.95453,-1.0124 -1.6622,-1.86634 -2.125,-2.56054 -1.41734,-1.96687 -2.63216,-2.94922 -3.64454,-2.94922 l -0.26171,0 c 0.6942,-0.781 1.59225,-1.83744 2.6914,-3.16797 1.90906,-2.314 3.32635,-4.23647 4.25195,-5.76953 0.95454,-1.53302 1.43165,-2.77789 1.43165,-3.73242 0,-1.01239 -0.5212,-1.50355 -1.5625,-1.47461 -1.35948,0.0579 -2.42996,0.78151 -3.21094,2.16992 0.89668,-0.17355 1.44596,0.0289 1.64844,0.60742 0.14462,0.46279 2.8e-4,1.11231 -0.4336,1.95117 -2.25616,4.19414 -4.81611,7.79649 -7.67969,10.80469 l 0,-13.53711 c 0,-1.01238 0.54929,-1.51953 1.64844,-1.51953 l 0.39063,0 c 0.17355,0 0.26172,-0.0722 0.26172,-0.2168 0,-0.17355 -0.0882,-0.25976 -0.26172,-0.25976 l -7.89649,0 z m 62.43946,0 c -0.17356,0 -0.25977,0.0862 -0.25977,0.25976 0,0.14463 0.0862,0.2168 0.25977,0.2168 l 0.43359,0 c 1.09915,0 1.64844,0.50715 1.64844,1.51953 l 0,16.61719 c 0,0.63633 -0.23056,1.2297 -0.69336,1.7793 -0.43388,0.52066 -0.95507,0.78124 -1.5625,0.78124 l -0.47657,0 c -0.17355,0 -0.25976,0.0862 -0.25976,0.25977 0,0.17353 0.0862,0.25977 0.25976,0.25977 l 9.24219,0 c 0.17356,0 0.25977,-0.0862 0.25977,-0.25977 0,-0.17353 -0.0862,-0.25977 -0.25977,-0.25977 l -0.47851,0 c -0.63636,0 -1.17159,-0.26058 -1.60547,-0.78124 -0.43388,-0.5496 -0.65039,-1.14297 -0.65039,-1.7793 l 0,-1.30078 c 0.26032,-0.57854 0.62314,-0.86914 1.08594,-0.86914 0.46279,0 1.05421,0.43493 1.77734,1.30273 1.47518,1.6776 2.58974,2.76217 3.3418,3.25391 1.33055,0.83886 2.8481,1.05539 4.55468,0.65039 0.57851,-0.1446 1.18592,-0.53554 1.82227,-1.17188 0.66528,-0.6364 1.07022,-1.2438 1.21484,-1.82226 0.0868,-0.43387 0.0446,-0.86692 -0.1289,-1.30078 -0.14463,-0.4628 -0.44931,-0.69532 -0.91211,-0.69532 -0.52066,0 -0.85342,0.36281 -0.99805,1.08594 0.4628,0.1446 0.75344,0.36112 0.86914,0.65039 0.20248,0.376 0.14435,0.78098 -0.17383,1.21484 -0.28924,0.43387 -0.76636,0.6504 -1.43164,0.6504 -0.72312,0 -1.43274,-0.20249 -2.12695,-0.60743 -0.95453,-1.0124 -1.6622,-1.86634 -2.125,-2.56054 -1.41733,-1.96687 -2.63215,-2.94922 -3.64453,-2.94922 l -0.26172,0 c 0.69421,-0.781 1.59225,-1.83744 2.6914,-3.16797 1.90906,-2.314 3.32635,-4.23647 4.25196,-5.76953 0.95452,-1.53302 1.43164,-2.77789 1.43164,-3.73242 0,-1.01239 -0.52119,-1.50355 -1.5625,-1.47461 -1.35948,0.0579 -2.42997,0.78151 -3.21094,2.16992 0.89667,-0.17355 1.44596,0.0289 1.64844,0.60742 0.14463,0.46279 2.9e-4,1.11231 -0.4336,1.95117 -2.25616,4.19414 -4.8161,7.79649 -7.67968,10.80469 l 0,-13.53711 c 0,-1.01238 0.54928,-1.51953 1.64844,-1.51953 l 0.39062,0 c 0.17355,0 0.26172,-0.0722 0.26172,-0.2168 0,-0.17355 -0.0882,-0.25976 -0.26172,-0.25976 l -7.89648,0 z m 39.1914,0 c -0.11466,0 -0.17789,0.0512 -0.2168,0.12695 -0.034,-0.0208 -0.0682,-0.041 -0.12304,-0.041 l -5.50977,0 c -0.1157,0 -0.17383,0.0722 -0.17383,0.2168 0,0.14463 0.0581,0.21875 0.17383,0.21875 l 0.4336,0 c 0.4628,0 0.86773,0.14435 1.21484,0.4336 0.34711,0.28925 0.5055,0.65011 0.47656,1.08398 -0.20247,2.74792 -0.3909,5.51031 -0.56445,8.28711 -0.3471,3.471 -1.04073,6.08911 -2.08203,7.85351 -0.75205,1.3306 -1.62006,1.9961 -2.60352,1.9961 -0.78098,0 -1.48864,-0.57933 -2.125,-1.73633 -0.95452,-1.73553 -1.6501,-4.41168 -2.08398,-8.02734 -0.26032,-2.80574 -0.53497,-5.59626 -0.82422,-8.37305 -0.0579,-0.40495 0.0584,-0.73772 0.34766,-0.99805 0.31817,-0.26031 0.66498,-0.41869 1.04101,-0.47656 l 0.56445,0 c 0.2314,-0.0289 0.34766,-0.11709 0.34766,-0.26172 0,-0.14463 -0.0882,-0.2168 -0.26172,-0.2168 l -7.89648,0 c -0.20248,0 -0.30274,0.0722 -0.30274,0.2168 0,0.14463 0.10026,0.21875 0.30274,0.21875 1.24378,0 1.92336,0.50521 2.03906,1.51758 l 0.95508,9.11133 c 0.54958,3.876 1.43163,6.65241 2.64648,8.33008 1.21486,1.64873 2.66219,2.47461 4.33985,2.47461 1.7355,0 3.20897,-0.83992 4.42382,-2.51758 1.24378,-1.7066 2.06966,-4.49712 2.47461,-8.37305 0.20248,-3.00827 0.38895,-6.0172 0.5625,-9.02539 0.0868,-1.01237 0.78235,-1.51758 2.08399,-1.51758 0.0878,0 0.13933,-0.0365 0.17383,-0.0898 0.0424,0.0261 0.0922,0.0449 0.16601,0.0449 l 0.39063,0 c 1.09915,0 1.64843,0.50715 1.64843,1.51953 l 0,16.61719 c 0,0.63633 -0.21651,1.2297 -0.65039,1.7793 -0.43387,0.52066 -0.96911,0.78124 -1.60547,0.78124 l -0.43359,0 c -0.17355,0 -0.25976,0.0862 -0.25976,0.25977 0,0.17353 0.0862,0.25977 0.25976,0.25977 l 15.49024,0 c 0.54958,0 1.18507,-0.21653 1.9082,-0.65039 -1.01238,-0.49174 -1.64788,-1.30163 -1.9082,-2.42969 -0.17355,-0.781 -0.5504,-1.4606 -1.12891,-2.03906 -0.5785,-0.57854 -1.25808,-0.86719 -2.03906,-0.86719 -0.63635,0 -1.31593,0.20242 -2.03907,0.60742 1.07024,0.63633 1.60547,1.37409 1.60547,2.21289 0,0.72313 -0.34681,1.30051 -1.04101,1.73438 -0.66528,0.40473 -1.38894,0.59312 -2.16992,0.56445 -0.60743,-0.0289 -1.12863,-0.24546 -1.5625,-0.65039 -0.40496,-0.43394 -0.60743,-0.9551 -0.60743,-1.5625 l 0,-16.61719 c 0,-1.01238 0.5212,-1.51953 1.5625,-1.51953 l 0.99805,0 c 0.17355,0 0.25977,-0.0722 0.25977,-0.2168 0,-0.17355 -0.0862,-0.25976 -0.25977,-0.25976 l -8.41797,0 z m -186.23633,0.21679 c -0.17355,0 -0.26172,0.0862 -0.26172,0.25977 0,0.17355 0.0882,0.25976 0.26172,0.25976 0.95453,0 1.72033,0.21847 2.29883,0.65235 0.4628,0.31817 0.968,0.92558 1.51758,1.82226 l 0,15.66211 c 0,0.60747 -0.21651,1.1868 -0.65039,1.73633 -0.43388,0.5496 -0.95312,0.82422 -1.56055,0.82422 l -0.52148,0 c -0.17355,0 -0.25977,0.0862 -0.25977,0.25977 0,0.14466 0.0862,0.21679 0.25977,0.21679 l 6.76758,0 c 0.17355,0 0.26171,-0.0721 0.26171,-0.21679 0,-0.17354 -0.0882,-0.25977 -0.26171,-0.25977 l -0.47657,0 c -0.60742,0 -1.12862,-0.27462 -1.5625,-0.82422 -0.43387,-0.54953 -0.65039,-1.12886 -0.65039,-1.73633 l 0,-13.49414 9.41602,15.18555 c 1.157,1.88013 2.444,3.0809 3.86133,3.60156 0.0868,0.0293 0.20107,0.015 0.3457,-0.043 0.0579,-0.0867 0.0157,-0.21702 -0.12891,-0.39062 -0.6942,-0.54953 -1.27352,-1.50382 -1.73632,-2.86328 -0.37603,-1.18594 -0.56446,-2.30047 -0.56446,-3.3418 l 0,-15.31445 c 0,-0.98346 0.55124,-1.47657 1.65039,-1.47657 l 0.4336,0 c 0.14462,0 0.21679,-0.0862 0.21679,-0.25976 0,-0.17355 -0.0722,-0.25977 -0.21679,-0.25977 l -5.50977,0 c -0.14462,0 -0.21875,0.0862 -0.21875,0.25977 0,0.17355 0.0741,0.25976 0.21875,0.25976 l 0.47656,0 c 1.07023,10e-6 1.60547,0.49311 1.60547,1.47657 l 0,12.58203 -8.76562,-14.57813 -6.2461,0 z m -13.1582,4.51172 5.12109,12.14844 c -0.20247,-0.20247 -0.34877,-0.34679 -0.43554,-0.43359 -1.41733,-1.09914 -3.10927,-1.64844 -5.07617,-1.64844 -1.67766,0 -3.20926,0.44904 -4.59766,1.3457 l 4.98828,-11.41211 z m 276.3418,2.56055 c -1.59088,0 -3.05226,0.72365 -4.38281,2.16992 l 0,-1.73633 -4.85938,0 c -0.17355,0 -0.25977,0.0581 -0.25977,0.17383 0,0.1446 0.0862,0.2168 0.25977,0.2168 0.52065,0 0.95563,0.23251 1.30273,0.69531 0.3471,0.43387 0.51954,0.92501 0.51954,1.47461 l 0,16.40039 c 0,3.21067 -1.18478,5.68439 -3.55665,7.41992 -0.0868,0.0579 -0.13085,0.1441 -0.13085,0.25977 0.0289,0.0868 0.11513,0.13086 0.25976,0.13086 0.31818,0 0.85342,-0.20249 1.60547,-0.60742 1.56195,-0.83887 2.79277,-2.27215 3.68945,-4.29688 0.78098,-1.76447 1.16993,-3.62884 1.16993,-5.5957 l 0,-2.90821 c 0.54957,0.28927 1.17298,0.4336 1.86718,0.4336 1.93798,0 3.62991,-0.96825 5.07617,-2.90625 1.33056,-1.7644 1.9961,-3.6588 1.9961,-5.6836 0,-1.47513 -0.37685,-2.74809 -1.12891,-3.81836 -0.86775,-1.21486 -2.0104,-1.82226 -3.42773,-1.82226 z m -1.7793,1.3457 c 1.18593,0 2.12611,0.76576 2.82031,2.29883 0.5785,1.21487 0.86719,2.48783 0.86719,3.81836 0,1.33053 -0.28869,2.60349 -0.86719,3.81836 -0.6942,1.53307 -1.63438,2.29883 -2.82031,2.29883 -0.98345,0 -1.85146,-0.6074 -2.60351,-1.82227 l 0,-8.58984 c 0.6942,-1.21487 1.56221,-1.82227 2.60351,-1.82227 z m -124.08594,1.95117 c -0.17355,0 -0.25976,0.0882 -0.25976,0.26172 l 0,2.38477 c 0,0.14467 0.0862,0.2168 0.25976,0.2168 l 4.47071,0 c 0.17354,0 0.25976,-0.0721 0.25976,-0.2168 l 0,-2.38477 c 0,-0.17353 -0.0862,-0.26172 -0.25976,-0.26172 l -4.47071,0 z m 111.83789,7.50586 c -0.4628,0 -0.86774,0.17442 -1.21484,0.52149 -0.3471,0.34713 -0.52148,0.75204 -0.52148,1.21484 0,0.49167 0.16034,0.91068 0.47851,1.25781 0.3471,0.34714 0.76609,0.52149 1.25781,0.52149 0.49173,0 0.91071,-0.17435 1.25782,-0.52149 0.3471,-0.34713 0.52148,-0.76614 0.52148,-1.25781 0,-0.4628 -0.17438,-0.86771 -0.52148,-1.21484 -0.34711,-0.34707 -0.76609,-0.52149 -1.25782,-0.52149 z"
       id="path4523"
       inkscape:export-filename="C:\Users\Marek\js\KuligiBiesiady\logo\logo-napis-1500.png"
       inkscape:export-xdpi="449.93079"
       inkscape:export-ydpi="449.93079" />
    <text
       xml:space="preserve"
       style="font-style:normal;font-variant:normal;font-weight:normal;font-stretch:normal;font-size:41.27088928px;line-height:1.25;font-family:ShangriLaNF;-inkscape-font-specification:'ShangriLaNF, Normal';font-variant-ligatures:normal;font-variant-caps:normal;font-variant-numeric:normal;font-feature-settings:normal;text-align:start;letter-spacing:0px;word-spacing:0px;writing-mode:lr-tb;text-anchor:start;fill:#000000;fill-opacity:1;stroke:none;stroke-width:1.03177226"
       x="483.39841"
       y="1043.24"
       id="text2487-9"><tspan
         sodipodi:role="line"
         id="tspan2485-0"
         x="483.39841"
         y="1043.24"
         style="stroke-width:1.03177226">ShangriLaNF</tspan></text>
  </g>
</svg>
